<svg width="520" height="392" viewBox="0 0 520 392" fill="none" xmlns="http://www.w3.org/2000/svg">
<g clip-path="url(#clip0_721_24802)">
<rect width="520" height="392" rx="12" fill="#52006B"/>
<g opacity="0.4">
<path fill-rule="evenodd" clip-rule="evenodd" d="M438.035 175.613C438.648 177.081 439.795 178.249 441.23 178.875C443.062 179.672 445.679 180.814 447.767 181.723C449.043 182.279 449.041 184.122 447.767 184.678L441.23 187.527C439.793 188.152 438.648 189.321 438.035 190.788C437.254 192.658 436.136 195.33 435.245 197.461C434.7 198.763 432.895 198.763 432.35 197.461C431.459 195.33 430.341 192.658 429.56 190.788C428.947 189.321 427.8 188.152 426.365 187.527C424.533 186.729 421.916 185.588 419.828 184.678C418.552 184.122 418.552 182.279 419.828 181.723C421.916 180.814 424.533 179.672 426.365 178.875C427.803 178.249 428.947 177.079 429.56 175.613C430.341 173.744 431.459 171.072 432.35 168.941C432.895 167.638 434.7 167.638 435.245 168.941C436.136 171.072 437.254 173.744 438.035 175.613Z" fill="#3F0D4A"/>
<path fill-rule="evenodd" clip-rule="evenodd" d="M81.3868 272.941C82.1577 274.787 83.6003 276.257 85.4064 277.044C87.7107 278.047 91.0034 279.483 93.6299 280.627C95.235 281.327 95.2322 283.646 93.6299 284.345L85.4064 287.929C83.5976 288.716 82.1577 290.185 81.3868 292.032C80.4039 294.384 78.9971 297.745 77.8766 300.427C77.1911 302.065 74.9197 302.065 74.2342 300.427C73.1137 297.745 71.7069 294.384 70.724 292.032C69.9531 290.185 68.5105 288.716 66.7044 287.929C64.4001 286.925 61.1074 285.489 58.4809 284.345C56.8758 283.646 56.8758 281.327 58.4809 280.627C61.1074 279.483 64.4001 278.047 66.7044 277.044C68.5132 276.257 69.9531 274.784 70.724 272.941C71.7069 270.589 73.1137 267.227 74.2342 264.546C74.9197 262.908 77.1911 262.908 77.8766 264.546C78.9971 267.227 80.4039 270.589 81.3868 272.941Z" fill="#3F0D4A"/>
<path fill-rule="evenodd" clip-rule="evenodd" d="M194.334 62.033C194.59 62.6443 195.07 63.131 195.671 63.3915C196.437 63.7237 197.532 64.1992 198.406 64.5779C198.94 64.8096 198.939 65.5773 198.406 65.809L195.671 66.9954C195.069 67.2559 194.59 67.7426 194.334 68.3539C194.007 69.1328 193.539 70.2457 193.167 71.1334C192.939 71.6759 192.183 71.6759 191.955 71.1334C191.582 70.2457 191.114 69.1328 190.788 68.3539C190.531 67.7426 190.051 67.2559 189.451 66.9954C188.684 66.6632 187.589 66.1877 186.716 65.809C186.182 65.5773 186.182 64.8096 186.716 64.5779C187.589 64.1992 188.684 63.7237 189.451 63.3915C190.052 63.131 190.531 62.6434 190.788 62.033C191.114 61.2541 191.582 60.1413 191.955 59.2535C192.183 58.7111 192.939 58.7111 193.167 59.2535C193.539 60.1413 194.007 61.2541 194.334 62.033Z" fill="#3F0D4A"/>
<path fill-rule="evenodd" clip-rule="evenodd" d="M307.001 324.01C307.257 324.621 307.737 325.108 308.337 325.368C309.104 325.7 310.199 326.176 311.073 326.554C311.606 326.786 311.605 327.554 311.073 327.786L308.337 328.972C307.736 329.232 307.257 329.719 307.001 330.331C306.674 331.109 306.206 332.222 305.833 333.11C305.605 333.652 304.85 333.652 304.622 333.11C304.249 332.222 303.781 331.109 303.454 330.331C303.198 329.719 302.718 329.232 302.117 328.972C301.351 328.64 300.256 328.164 299.382 327.786C298.848 327.554 298.848 326.786 299.382 326.554C300.256 326.176 301.351 325.7 302.117 325.368C302.719 325.108 303.198 324.62 303.454 324.01C303.781 323.231 304.249 322.118 304.622 321.23C304.85 320.688 305.605 320.688 305.833 321.23C306.206 322.118 306.674 323.231 307.001 324.01Z" fill="#3F0D4A"/>
<path d="M42.1924 480.56L249.484 198.908C250.109 198.077 251.397 198.676 251.169 199.701L189.109 481.352C189.014 481.797 188.616 482.106 188.181 482.106H42.9497C42.1735 482.106 41.7191 481.197 42.1924 480.54V480.56Z" fill="#3F0D4A"/>
<path d="M260.182 -101.878V172.565C260.182 173.454 261.28 173.879 261.848 173.202L494.869 -101.878H370.842L290.493 102.388C290.228 103.065 289.224 102.717 289.414 102.021L315.522 7.72511C315.711 7.06799 314.84 6.68145 314.48 7.26126L298.028 34.9374C297.706 35.4786 296.873 35.1694 296.987 34.5316L320.236 -101.878H260.182Z" fill="#3F0D4A"/>
<path d="M-0.5 11.436L245.395 181.455C246.304 182.093 245.604 183.542 244.562 183.175L131.119 143.497C130.513 143.284 130.077 144.115 130.589 144.502L143.236 154.32C143.709 154.687 143.368 155.48 142.781 155.344L-0.5 124.943V11.436Z" fill="#3F0D4A"/>
<path d="M272.753 207.18L418.287 421.457H519.5V336.322L442.312 290.826C441.877 290.575 441.347 290.981 441.479 291.484L449.242 319.74C449.374 320.261 448.825 320.667 448.39 320.377L274.04 205.788C273.169 205.208 272.166 206.29 272.753 207.16V207.18Z" fill="#3F0D4A"/>
</g>
<g style="mix-blend-mode:screen" opacity="0.7" filter="url(#filter0_f_721_24802)">
<ellipse cx="222.349" cy="209.902" rx="237.849" ry="157.004" transform="rotate(21.0304 222.349 209.902)" fill="#9E26C8"/>
</g>
<path d="M26.9062 45.1106C26.6761 44.9942 26.4132 44.9323 26.1187 44.9272C25.9127 44.9209 25.7029 44.9462 25.488 44.9968C25.2731 45.0486 25.0747 45.1295 24.8927 45.2382C24.7094 45.3469 24.5603 45.4872 24.4414 45.6579C24.3226 45.8285 24.2581 46.0307 24.2443 46.2658L25.3465 46.2582C25.3692 46.1495 25.4109 46.0547 25.4716 45.9751C25.5322 45.8955 25.6081 45.8335 25.7003 45.7918C25.7926 45.7488 25.8975 45.7286 26.0151 45.7311C26.1453 45.7374 26.2464 45.7691 26.3184 45.8272C26.3905 45.8853 26.4372 45.9637 26.4612 46.0635C26.484 46.1634 26.4904 46.2696 26.4764 46.3847L26.4334 46.6601L25.8988 46.6564C25.6649 46.6564 25.4286 46.6791 25.1897 46.7246C24.9521 46.7701 24.7322 46.846 24.5299 46.9534C24.3277 47.0596 24.1633 47.205 24.0357 47.3895C23.908 47.5728 23.8385 47.8028 23.8284 48.0783C23.8183 48.3223 23.8689 48.5372 23.9826 48.7204C24.0951 48.9037 24.2493 49.0491 24.4427 49.154C24.6361 49.2589 24.8497 49.3145 25.081 49.3196C25.2478 49.3221 25.4046 49.2994 25.55 49.2513C25.6953 49.2033 25.8293 49.1351 25.9519 49.044C26.0214 48.9922 26.0858 48.9353 26.1465 48.8734C26.1554 48.9973 26.1769 49.1173 26.2122 49.2349L27.2904 49.2311L27.298 49.1616C27.2386 49.0137 27.2146 48.8557 27.2285 48.6914C27.2424 48.5258 27.2601 48.3678 27.2841 48.2161L27.5774 46.4035C27.609 46.0939 27.5622 45.8297 27.4383 45.6123C27.3144 45.3949 27.1375 45.2268 26.9062 45.1106ZM26.0858 48.1807C25.9923 48.2806 25.8811 48.3564 25.7534 48.4095C25.6258 48.4626 25.4956 48.4879 25.3629 48.4854C25.2694 48.4828 25.1897 48.4601 25.1227 48.4184C25.057 48.3766 25.0077 48.3197 24.9761 48.2478C24.9445 48.1757 24.9357 48.0948 24.9483 48.0038C24.9647 47.8761 25.0026 47.7674 25.0633 47.6789C25.1253 47.5905 25.2024 47.5184 25.2959 47.4616C25.3894 47.4059 25.4918 47.3642 25.6018 47.3364C25.7117 47.3086 25.8242 47.2934 25.9355 47.2909L26.3323 47.2934L26.2262 47.9735C26.1895 48.048 26.144 48.1175 26.0846 48.1795L26.0858 48.1807Z" fill="white"/>
<path d="M27.9919 49.2333H29.0891L30.1319 43.2319H29.0297L27.9919 49.2333Z" fill="white"/>
<path d="M34.6129 48.3046C34.4373 48.3918 34.2451 48.4323 34.0366 48.4272C33.8735 48.4221 33.7357 48.3855 33.6284 48.3185C33.5209 48.2515 33.4349 48.163 33.3742 48.053C33.3136 47.9431 33.2718 47.8204 33.2517 47.6839C33.2403 47.6119 33.2353 47.5399 33.234 47.4666H35.834L35.8959 46.9976C35.9237 46.7284 35.9148 46.4718 35.8681 46.2253C35.8213 45.9789 35.7341 45.7602 35.6064 45.5668C35.4788 45.3747 35.3107 45.2205 35.1021 45.1067C34.8936 44.9929 34.642 44.9323 34.3475 44.9272C34.0315 44.9184 33.7459 44.9727 33.4893 45.089C33.2327 45.2053 33.0115 45.3646 32.8232 45.5694C32.6361 45.7741 32.4856 46.0092 32.3744 46.2746C32.262 46.5413 32.1912 46.8206 32.1596 47.1152L32.1444 47.2757C32.1242 47.5563 32.1495 47.8204 32.2228 48.0657C32.2961 48.3096 32.4098 48.5258 32.5653 48.7103C32.7195 48.8961 32.9129 49.0402 33.1455 49.1464C33.3781 49.2513 33.6384 49.3069 33.9266 49.312H33.9279C34.1327 49.3145 34.3399 49.2892 34.5485 49.2361C34.7571 49.1831 34.9517 49.0996 35.1325 48.9859C35.3132 48.8721 35.4623 48.7267 35.5799 48.5498L35.0869 47.9557C34.9454 48.1023 34.7887 48.2187 34.6117 48.3058L34.6129 48.3046ZM33.526 46.2367C33.6031 46.104 33.7042 45.9978 33.8267 45.9156C33.9494 45.8348 34.101 45.7968 34.2793 45.8019C34.436 45.807 34.5611 45.8474 34.6547 45.9232C34.7482 45.9978 34.8127 46.099 34.8455 46.2215C34.8784 46.3454 34.886 46.4781 34.8645 46.6222L34.8455 46.7195L33.3351 46.717C33.3389 46.7006 33.3427 46.6841 33.3465 46.6677C33.3869 46.5135 33.4476 46.3694 33.526 46.2367Z" fill="white"/>
<path d="M39.0554 45.0052L38.1568 46.283L37.6878 45.0052V45.0039H36.5629L37.3832 47.0212L35.7969 49.2319H37.0229L37.9697 47.8807L38.4968 49.2319H39.6141L38.7584 47.1223L40.2776 45.0052H39.0554Z" fill="white"/>
<path d="M42.2923 43.9624H41.1939L41.0182 45.0052H40.4216L40.28 45.8015H40.8842L40.5025 48.0716C40.4798 48.3131 40.5025 48.5267 40.5707 48.7099C40.6403 48.8932 40.754 49.0373 40.9145 49.1409C41.0751 49.2459 41.2798 49.3002 41.5301 49.3053C41.6401 49.3053 41.7475 49.2977 41.8524 49.2837C41.9586 49.2699 42.0623 49.2471 42.1671 49.2155L42.2455 48.3762C42.1886 48.3851 42.133 48.3914 42.0774 48.3977C42.0218 48.404 41.9687 48.4066 41.9131 48.404C41.8133 48.399 41.7412 48.38 41.6944 48.3459C41.6476 48.3118 41.6186 48.2638 41.6072 48.1993C41.5958 48.1348 41.5958 48.0577 41.6059 47.9667L41.9776 45.8028H42.6765L42.8181 45.0065H42.1153L42.2948 43.9637L42.2923 43.9624Z" fill="white"/>
<path d="M46.3501 45.5668C46.2225 45.3747 46.0543 45.2205 45.8458 45.1067C45.6372 44.9929 45.3857 44.9323 45.0912 44.9272C44.7752 44.9184 44.4895 44.9727 44.2329 45.089C43.9763 45.2053 43.7551 45.3646 43.5668 45.5694C43.3797 45.7741 43.2294 46.0092 43.1181 46.2746C43.0056 46.5413 42.9348 46.8206 42.9032 47.1152L42.8881 47.2757C42.8678 47.5563 42.8931 47.8204 42.9665 48.0657C43.0398 48.3096 43.1535 48.5258 43.309 48.7103C43.4632 48.8961 43.6566 49.0402 43.8892 49.1464C44.1217 49.2513 44.3821 49.3069 44.6703 49.312H44.6715C44.8763 49.3145 45.0836 49.2892 45.2921 49.2361C45.5007 49.1831 45.6953 49.0996 45.8761 48.9859C46.0569 48.8721 46.206 48.7267 46.3236 48.5498L45.8306 47.9557C45.6891 48.1023 45.5323 48.2187 45.3554 48.3058C45.1797 48.393 44.9875 48.4335 44.779 48.4284C44.616 48.4234 44.4782 48.3867 44.3707 48.3198C44.2633 48.2528 44.1773 48.1643 44.1167 48.0543C44.056 47.9444 44.0143 47.8217 43.994 47.6852C43.9827 47.6132 43.9776 47.5411 43.9763 47.4678H46.5763L46.6383 46.9989C46.6661 46.7297 46.6573 46.4731 46.6105 46.2266C46.5638 45.9801 46.4765 45.7614 46.3489 45.5681L46.3501 45.5668ZM45.6069 46.6235L45.5879 46.7208L44.0775 46.7183C44.0813 46.7018 44.0851 46.6854 44.0888 46.669C44.1293 46.5148 44.1899 46.3707 44.2683 46.2379C44.3454 46.1053 44.4465 45.999 44.5692 45.9169C44.6918 45.836 44.8422 45.7981 45.0217 45.8031C45.1784 45.8082 45.3035 45.8487 45.3971 45.9245C45.4906 45.999 45.5551 46.1002 45.5879 46.2228C45.6208 46.3467 45.6284 46.4794 45.6069 46.6235Z" fill="white"/>
<path d="M49.907 44.97C49.8413 44.9548 49.7781 44.9422 49.7174 44.9308C49.6567 44.9194 49.5935 44.9156 49.5278 44.9156C49.2775 44.9131 49.0651 44.9725 48.8933 45.0938C48.7808 45.1735 48.6822 45.2696 48.5949 45.3795L48.6355 45.0066H47.604L46.8696 49.2334H47.9668L48.4407 46.4969C48.5002 46.3882 48.5722 46.2946 48.6582 46.2188C48.7479 46.1392 48.8541 46.0785 48.9767 46.0368C49.0993 45.9951 49.2358 45.9761 49.3875 45.9787C49.4532 45.9811 49.5176 45.9863 49.5809 45.9938C49.6441 46.0027 49.7073 46.0115 49.7705 46.0216L49.907 44.9712V44.97Z" fill="white"/>
<path d="M49.76 49.2321H50.8571L51.5915 45.0054H50.4943L49.76 49.2321Z" fill="white"/>
<path d="M51.2278 43.3346C51.0559 43.3371 50.9094 43.3927 50.788 43.4989C50.6666 43.6063 50.6098 43.7478 50.6148 43.9249C50.6174 44.0968 50.6793 44.232 50.8006 44.3318C50.9219 44.4304 51.0648 44.4785 51.2291 44.4759C51.3984 44.4722 51.5438 44.4178 51.6664 44.3116C51.7891 44.2055 51.8472 44.0626 51.8421 43.8856C51.8421 43.7175 51.7815 43.5823 51.6589 43.4812C51.5362 43.38 51.3934 43.332 51.2291 43.3346H51.2278Z" fill="white"/>
<path d="M55.4884 45.583C55.3468 45.3846 55.1648 45.2278 54.9436 45.1103C54.7212 44.994 54.4582 44.9321 54.1537 44.927C53.8326 44.9194 53.5444 44.9725 53.2878 45.0863C53.0312 45.2001 52.8088 45.3567 52.6204 45.559C52.4321 45.7612 52.2804 45.9938 52.1666 46.258C52.0529 46.5221 51.9809 46.8053 51.9493 47.1049L51.9379 47.187V47.1844C51.9139 47.4663 51.9303 47.733 51.9884 47.9859C52.0466 48.2386 52.1439 48.4636 52.2855 48.6595C52.4258 48.8567 52.6078 49.0122 52.8316 49.1285C53.0552 49.2447 53.3169 49.3054 53.6165 49.3105C53.9325 49.3194 54.2181 49.2663 54.4759 49.155C54.7338 49.0425 54.9563 48.8883 55.1459 48.6886C55.3355 48.4889 55.4872 48.2576 55.6034 47.9972C55.7198 47.7356 55.7943 47.4563 55.8284 47.1591L55.836 47.0732C55.8626 46.7901 55.8461 46.5196 55.788 46.2643C55.7298 46.009 55.6287 45.7815 55.4872 45.5843L55.4884 45.583ZM54.7351 47.072L54.7275 47.1541C54.7123 47.3008 54.6807 47.4487 54.634 47.6016C54.5872 47.7545 54.524 47.8948 54.4431 48.0237C54.3622 48.1527 54.2598 48.2563 54.1347 48.3321C54.0109 48.4092 53.8604 48.4447 53.686 48.4396C53.523 48.4345 53.3927 48.3903 53.2992 48.3081C53.2057 48.226 53.1387 48.1211 53.0982 47.9934C53.0578 47.8658 53.0351 47.7305 53.0299 47.5889C53.0249 47.4474 53.0287 47.3134 53.0413 47.1883L53.0489 47.1023C53.0653 46.9557 53.0945 46.8066 53.1412 46.6524C53.1867 46.4981 53.2499 46.3565 53.3308 46.2264C53.4117 46.0962 53.5141 45.9913 53.6392 45.9116C53.7643 45.832 53.9135 45.7954 54.0879 45.8004C54.251 45.8068 54.3811 45.851 54.4747 45.9357C54.5682 46.0204 54.6352 46.1278 54.677 46.2567C54.7187 46.3856 54.7427 46.5234 54.7452 46.6675C54.749 46.8116 54.7452 46.9468 54.7351 47.072Z" fill="white"/>
<path d="M59.1578 44.97C59.092 44.9548 59.0289 44.9422 58.9682 44.9308C58.9075 44.9194 58.8443 44.9156 58.7786 44.9156C58.5283 44.9131 58.3159 44.9725 58.1428 45.0938C58.0303 45.1735 57.9317 45.2696 57.8445 45.3795L57.885 45.0066H56.8535L56.1191 49.2334H57.2163L57.6903 46.4969C57.7497 46.3882 57.8217 46.2946 57.9077 46.2188C57.9974 46.1392 58.1036 46.0785 58.2263 46.0368C58.3488 45.9951 58.4853 45.9761 58.637 45.9787C58.7015 45.9811 58.7672 45.9863 58.8304 45.9938C58.8936 46.0014 58.9568 46.0115 59.02 46.0216L59.1565 44.9712L59.1578 44.97Z" fill="white"/>
<path d="M34.4492 39.027C34.4062 39.2001 34.3771 39.324 34.3619 39.3745C34.0863 40.641 34.1521 41.1403 35.1367 41.024C36.201 40.8938 36.3312 40.344 36.6775 39.027C36.699 38.9321 36.7281 38.8235 36.7648 38.6933C40.3469 38.2079 43.8645 37.9045 48.7055 37.5064C48.9015 37.49 49.0721 37.4723 49.2199 37.4507C49.2844 37.4444 49.3476 37.4394 49.4146 37.4331C50.8442 37.3004 50.8303 37.0501 50.9617 36.1628C51.1134 35.1528 49.991 35.1541 49.6535 35.1642H49.4929C47.3202 35.2211 45.7896 35.2325 43.4398 35.4878C41.4338 35.6559 39.4014 35.8783 37.4523 36.1236C37.8795 34.5967 38.2992 33.0989 38.2992 33.0989C38.2992 33.0989 38.7327 34.0329 39.9562 33.9381C41.693 33.8004 43.8064 32.1143 44.834 29.0162C45.9197 25.7236 45.8249 21.9898 43.6041 21.67C41.8092 21.416 40.9548 23.0022 40.8322 23.3195C40.8322 23.3195 41.2165 21.8786 40.0713 22.1326C38.9792 22.3715 38.7833 22.8556 38.5078 23.7316C38.4572 23.8832 37.5383 27.3073 36.5764 30.911C36.5625 30.9324 36.5473 30.9615 36.541 30.9905C36.3021 31.8084 35.8319 32.0763 35.4919 32.0978C34.3922 32.1698 36.7584 24.9121 36.9391 24.3534C37.178 23.6305 37.3158 23.0793 36.5119 22.776C35.9697 22.5737 35.2302 22.6458 35.0142 23.2247C34.9194 23.4712 34.8548 23.6443 34.8548 23.6443C34.8548 23.6443 34.2393 22.7254 32.8717 22.848C31.504 22.9707 29.775 24.6353 28.6374 27.5589C27.4947 30.4762 27.0018 34.6662 29.7079 35.0846C31.0832 35.2944 32.2409 34.5133 32.8414 33.2177C32.8414 33.2177 32.7327 34.086 33.6453 34.5133C34.0004 34.6789 34.8827 34.6144 35.722 34.1442C35.5045 34.9696 35.2948 35.7431 35.114 36.4383C29.2668 37.2485 24.6559 38.1535 24.6559 38.1535C24.6559 38.1535 27.8625 27.3049 28.5856 24.9247C29.1935 22.9277 28.0496 23.3612 27.2104 23.6077C26.3129 23.8681 25.8857 24.6214 25.4369 25.9966C23.4753 31.9967 21.9269 33.8636 20.8057 33.4579C19.7781 33.0888 23.0127 26.7209 22.2391 25.8816C21.5667 25.151 20.1839 25.194 19.9159 25.6212C19.6556 26.0485 20.0461 26.4466 19.8729 27.0546C19.7074 27.6625 18.4105 30.9552 18.274 31.6933C18.1363 32.4315 17.0151 36.5205 19.9893 36.3397C21.7474 36.2386 22.9494 34.9064 23.0796 34.5373C22.5298 36.1223 21.7474 38.692 21.7474 38.692C21.7474 38.692 18.1501 39.5894 15.2847 42.5927C13.0045 44.974 11.398 50.1045 14.7993 50.9222C20.0815 52.1963 22.5867 44.1258 23.8671 41.0872C28.152 40.1317 31.4219 39.5022 34.4479 39.0244L34.4492 39.027ZM39.7249 28.2364V28.2288C40.448 25.8626 41.1141 24.921 41.7372 24.653C43.2274 24.0159 43.5105 25.8828 42.3591 28.7268C41.0269 32.0119 39.4709 31.9398 38.8781 31.2889C38.8781 31.2889 38.9577 30.7251 39.7249 28.2351V28.2364ZM33.0663 29.6546C32.4293 31.1953 31.8289 32.2811 31.0035 32.2887C29.8242 32.2963 29.8521 30.5229 30.6926 28.287C31.4016 26.4124 32.6897 25.2256 33.3848 25.0954C34.0801 24.9652 34.8902 25.2547 33.0663 29.6546ZM17.4474 47.6081C14.6388 50.1196 15.3479 46.6828 16.3907 45.199C18.3739 42.3841 20.8273 41.6674 20.8273 41.6674C19.5822 45.3076 18.0263 47.0949 17.4474 47.6081Z" fill="white"/>
<path d="M48.409 33.1936C50.1318 33.1215 51.622 31.8766 52.1656 30.95C52.4259 30.5014 52.5347 29.7998 52.4841 29.4877C52.3539 28.6117 51.818 28.4815 50.9066 29.6318C50.6816 29.8845 48.888 31.4847 48.0046 30.5368C47.3675 29.8491 47.9034 28.503 47.9325 28.503C49.0827 28.4158 51.0949 27.9532 52.6939 26.1078H52.6876C53.7518 24.8779 54.236 22.2589 52.4563 21.2958C50.2999 20.1304 47.4914 21.9114 46.3272 25.7462C45.292 29.154 44.9091 33.3529 48.4115 33.1924L48.409 33.1936ZM50.109 23.1198V23.1273C51.0785 22.2223 51.9974 23.3081 50.8839 24.8577C49.7551 26.4288 48.4305 26.3846 48.4242 26.4352C48.5619 25.8196 49.0536 24.112 50.1103 23.1198H50.109Z" fill="white"/>
<g filter="url(#filter1_d_721_24802)">
<path d="M113.206 91.607L112.069 109.333H104.069L106.286 91.607H113.206ZM110.321 84.1977C111.761 84.1977 112.751 84.4633 113.289 84.9944C113.829 85.499 114.05 86.2957 113.951 87.3845C113.852 88.4733 113.484 89.2833 112.849 89.8144C112.243 90.319 111.207 90.5713 109.74 90.5713C108.274 90.5713 107.283 90.319 106.769 89.8144C106.258 89.2833 106.052 88.4733 106.151 87.3845C106.25 86.2957 106.603 85.499 107.209 84.9944C107.844 84.4633 108.881 84.1977 110.321 84.1977ZM144.49 103.876H136.93L138.005 92.085H137.805L134.37 103.876H127.37L126.125 92.085H125.925L124.85 103.876H117.37L120.586 79.1387H131.226L132.085 90.3322H132.445L135.306 79.1387H145.826L144.49 103.876ZM156.286 103.876H147.846L150.102 79.1387H158.542L156.286 103.876ZM160.049 87.0658C160.288 84.4367 161.275 82.3919 163.008 80.9312C164.741 79.4706 167.021 78.7403 169.848 78.7403C172.701 78.7403 175.61 79.0059 178.575 79.537L177.016 86.5479C173.743 85.884 171.587 85.5521 170.547 85.5521C169.507 85.5521 168.958 85.8708 168.899 86.5081C168.878 86.7471 168.942 86.9197 169.092 87.026C169.245 87.1056 169.359 87.172 169.434 87.2251C169.509 87.2782 169.65 87.3446 169.856 87.4243C170.089 87.504 170.268 87.5836 170.394 87.6633C170.549 87.7164 171.011 87.9156 171.78 88.2608C172.577 88.5795 173.166 88.8451 173.547 89.0575C173.957 89.2434 174.501 89.5621 175.18 90.0136C177.136 91.3679 177.995 93.3597 177.755 95.9888C177.515 98.6179 176.542 100.663 174.836 102.123C173.132 103.557 170.799 104.274 167.839 104.274C164.906 104.274 162.059 103.916 159.298 103.199L160.471 96.4668C163.962 97.3697 166.335 97.8212 167.588 97.8212C168.415 97.8212 168.855 97.5291 168.908 96.9448C168.932 96.6792 168.845 96.4668 168.646 96.3075C168.474 96.1481 168.196 95.9755 167.813 95.7896C167.457 95.6037 166.919 95.3647 166.199 95.0726C165.481 94.7539 164.878 94.4883 164.391 94.2759C163.906 94.0369 163.339 93.6784 162.689 93.2003C160.689 91.7397 159.809 89.6949 160.049 87.0658ZM187.732 103.876H179.292L181.547 79.1387H189.987L187.732 103.876ZM191.502 91.3679C191.906 86.933 193.079 83.7197 195.021 81.7279C196.989 79.7362 200 78.7403 204.053 78.7403C208.133 78.7403 210.95 79.7229 212.504 81.6881C214.085 83.6533 214.673 86.8533 214.269 91.2883C213.867 95.6967 212.662 98.9631 210.655 101.088C208.675 103.212 205.671 104.274 201.645 104.274C197.645 104.274 194.847 103.225 193.252 101.127C191.683 99.0295 191.1 95.7763 191.502 91.3679ZM205.574 86.6276C205.29 85.9371 204.575 85.5919 203.428 85.5919C202.282 85.5919 201.518 85.9239 201.138 86.5878C200.757 87.2517 200.467 88.6725 200.269 90.8501L200.109 92.6028C199.906 94.8336 199.947 96.2809 200.233 96.9448C200.519 97.6087 201.249 97.9407 202.422 97.9407C203.596 97.9407 204.358 97.622 204.709 96.9846C205.061 96.3473 205.337 94.9265 205.538 92.7223L205.705 90.8899C205.904 88.7123 205.86 87.2915 205.574 86.6276ZM211.972 72.6058L206.242 77.5453H200.962L203.852 72.6058H211.972ZM236.616 103.876H228.456L224.306 94.1165H224.026L223.136 103.876H215.536L217.792 79.1387H226.232L230.033 89.2169H230.273L231.192 79.1387H238.872L236.616 103.876ZM256.391 91.8061C256.207 93.8244 256.299 95.2983 256.668 96.2278C257.039 97.1307 257.757 97.5822 258.824 97.5822C259.891 97.5822 261.691 97.29 264.224 96.7058L264.926 103.04C262.238 103.863 259.681 104.274 257.254 104.274C253.547 104.274 250.936 103.225 249.421 101.127C247.935 99.0029 247.381 95.856 247.762 91.6866C248.144 87.4907 249.316 84.2906 251.277 82.0865C253.24 79.8557 256.209 78.7403 260.182 78.7403C262.502 78.7403 264.781 79.1918 267.019 80.0947L265.052 87.1853C262.482 86.4152 260.704 86.0301 259.717 86.0301C258.757 86.0301 258.008 86.4948 257.47 87.4243C256.935 88.3272 256.575 89.7878 256.391 91.8061ZM275.643 95.1124C275.512 96.5465 276.087 97.2635 277.367 97.2635C278.674 97.2635 279.393 96.5332 279.527 95.0726L280.98 79.1387H289.54L288.039 95.5904C287.773 98.5116 286.655 100.689 284.684 102.123C282.713 103.557 280.008 104.274 276.568 104.274C269.581 104.274 266.349 101.406 266.872 95.6701L268.38 79.1387H277.1L275.643 95.1124ZM317.615 103.876H310.055L311.13 92.085H310.93L307.495 103.876H300.495L299.25 92.085H299.05L297.975 103.876H290.495L293.711 79.1387H304.351L305.21 90.3322H305.57L308.431 79.1387H318.951L317.615 103.876ZM331.556 96.1481H329.836L329.131 103.876H320.731L322.987 79.1387H332.667C335.947 79.1387 338.273 79.8026 339.645 81.1304C341.018 82.4582 341.565 84.6492 341.286 87.7032C341.008 90.7571 340.089 92.9348 338.53 94.236C336.974 95.5108 334.649 96.1481 331.556 96.1481ZM332.483 90.3721C332.762 89.9472 332.947 89.2301 333.039 88.221C333.131 87.2119 333.063 86.4948 332.835 86.0699C332.634 85.645 332.186 85.4326 331.493 85.4326H330.653L330.145 91.0094H331.185C331.798 91.0094 332.231 90.797 332.483 90.3721ZM356.667 103.876H341.747L344.003 79.1387H352.563L350.892 97.4627H357.812L356.667 103.876ZM366.95 103.876H358.51L360.766 79.1387H369.206L366.95 103.876ZM393.037 90.9696C392.252 99.5739 387.913 103.876 380.02 103.876H370.38L372.635 79.1387H382.475C386.715 79.1387 389.622 80.1611 391.196 82.206C392.772 84.2242 393.385 87.1455 393.037 90.9696ZM380.466 97.6618C381.826 97.6618 382.749 97.1971 383.234 96.2676C383.718 95.3381 384.059 93.7979 384.255 91.6468C384.454 89.4692 384.367 87.9289 383.996 87.026C383.654 86.0965 382.79 85.6317 381.403 85.6317H380.563L379.466 97.6618H380.466ZM415.245 103.876H406.845L406.394 100.052H401.954L400.765 103.876H392.725L400.141 79.1387H412.341L415.245 103.876ZM406.262 94.9132L405.498 86.6276H405.338L403.022 94.9132H406.262Z" fill="white"/>
</g>
<g filter="url(#filter2_d_721_24802)">
<path d="M88.0731 122.718H82.7931L81.1514 140.723H72.6314L74.2731 122.718H68.7131L69.687 115.986H89.167L88.0731 122.718ZM97.6939 131.96C97.5631 133.394 98.1378 134.111 99.4178 134.111C100.724 134.111 101.444 133.38 101.578 131.92L103.03 115.986H111.59L110.09 132.438C109.824 135.359 108.705 137.536 106.735 138.97C104.764 140.405 102.058 141.122 98.6185 141.122C91.6318 141.122 88.4 138.253 88.923 132.517L90.4304 115.986H99.1504L97.6939 131.96ZM136.083 140.723H120.243L122.499 115.986H138.899L137.74 122.559H130.46L130.187 125.546H136.547L136.024 131.282H129.664L129.355 134.668H137.195L136.083 140.723ZM159.761 140.723H151.601L147.451 130.964H147.171L146.281 140.723H138.681L140.936 115.986H149.376L153.177 126.064H153.417L154.336 115.986H162.016L159.761 140.723ZM186.193 115.986L179.138 140.723H166.858L164.033 115.986H173.273L173.809 131.163H174.289L177.393 115.986H186.193ZM194.666 140.723H186.226L188.482 115.986H196.922L194.666 140.723ZM200.238 109.453L194.507 114.392H189.227L192.118 109.453H200.238ZM198.396 128.215C198.801 123.78 199.974 120.567 201.915 118.575C203.884 116.583 206.894 115.588 210.948 115.588C215.028 115.588 217.845 116.57 219.399 118.535C220.98 120.5 221.568 123.701 221.164 128.135C220.762 132.544 219.557 135.81 217.55 137.935C215.57 140.059 212.566 141.122 208.539 141.122C204.539 141.122 201.742 140.073 200.146 137.975C198.578 135.877 197.994 132.623 198.396 128.215ZM212.469 123.475C212.185 122.784 211.47 122.439 210.323 122.439C209.176 122.439 208.413 122.771 208.032 123.435C207.652 124.099 207.362 125.52 207.163 127.697L207.004 129.45C206.8 131.681 206.842 133.128 207.128 133.792C207.414 134.456 208.144 134.788 209.317 134.788C210.49 134.788 211.253 134.469 211.604 133.832C211.956 133.194 212.232 131.774 212.433 129.569L212.6 127.737C212.798 125.559 212.755 124.139 212.469 123.475ZM247.544 122.559H240.264L239.955 125.945H245.475L244.952 131.681H239.432L238.608 140.723H230.048L232.304 115.986H248.704L247.544 122.559ZM257.264 131.96C257.133 133.394 257.708 134.111 258.988 134.111C260.295 134.111 261.015 133.38 261.148 131.92L262.601 115.986H271.161L269.661 132.438C269.394 135.359 268.276 137.536 266.305 138.97C264.334 140.405 261.629 141.122 258.189 141.122C251.202 141.122 247.97 138.253 248.493 132.517L250.001 115.986H258.721L257.264 131.96ZM288.036 140.723H272.196L274.452 115.986H290.852L289.693 122.559H282.413L282.14 125.546H288.5L287.977 131.282H281.617L281.308 134.668H289.148L288.036 140.723ZM314.091 140.723H298.251L300.507 115.986H316.907L315.747 122.559H308.467L308.195 125.546H314.555L314.032 131.282H307.672L307.363 134.668H315.203L314.091 140.723ZM338.009 140.723H328.849L327.222 133.991H326.862L323.849 140.723H315.089L321.036 128.135L317.824 115.986H327.144L328.352 122.917H328.672L331.344 115.986H339.664L334.553 128.175L338.009 140.723ZM348.298 140.723H339.858L342.114 115.986H350.554L348.298 140.723ZM370.729 122.718H365.449L363.808 140.723H355.288L356.929 122.718H351.369L352.343 115.986H371.823L370.729 122.718ZM371.092 128.215C371.496 123.78 372.669 120.567 374.611 118.575C376.579 116.583 379.59 115.588 383.643 115.588C387.723 115.588 390.54 116.57 392.094 118.535C393.675 120.5 394.263 123.701 393.859 128.135C393.457 132.544 392.252 135.81 390.245 137.935C388.265 140.059 385.261 141.122 381.235 141.122C377.235 141.122 374.437 140.073 372.842 137.975C371.273 135.877 370.69 132.623 371.092 128.215ZM385.164 123.475C384.88 122.784 384.165 122.439 383.018 122.439C381.872 122.439 381.108 122.771 380.727 123.435C380.347 124.099 380.057 125.52 379.859 127.697L379.699 129.45C379.496 131.681 379.537 133.128 379.823 133.792C380.109 134.456 380.839 134.788 382.012 134.788C383.186 134.788 383.948 134.469 384.299 133.832C384.651 133.194 384.927 131.774 385.128 129.569L385.295 127.737C385.494 125.559 385.45 124.139 385.164 123.475ZM395.459 123.913C395.699 121.284 396.685 119.239 398.418 117.778C400.151 116.318 402.431 115.588 405.258 115.588C408.111 115.588 411.02 115.853 413.985 116.384L412.426 123.395C409.153 122.731 406.997 122.399 405.957 122.399C404.917 122.399 404.368 122.718 404.31 123.355C404.288 123.594 404.352 123.767 404.502 123.873C404.655 123.953 404.769 124.019 404.844 124.072C404.919 124.125 405.06 124.192 405.266 124.271C405.499 124.351 405.678 124.431 405.804 124.51C405.96 124.564 406.421 124.763 407.19 125.108C407.988 125.427 408.577 125.692 408.957 125.905C409.367 126.091 409.911 126.409 410.59 126.861C412.547 128.215 413.405 130.207 413.165 132.836C412.926 135.465 411.952 137.51 410.246 138.97C408.542 140.405 406.21 141.122 403.25 141.122C400.316 141.122 397.469 140.763 394.708 140.046L395.882 133.314C399.373 134.217 401.745 134.668 402.998 134.668C403.825 134.668 404.265 134.376 404.318 133.792C404.342 133.526 404.255 133.314 404.056 133.155C403.884 132.995 403.606 132.823 403.223 132.637C402.867 132.451 402.329 132.212 401.609 131.92C400.891 131.601 400.289 131.336 399.801 131.123C399.317 130.884 398.749 130.526 398.099 130.048C396.099 128.587 395.219 126.542 395.459 123.913ZM414.803 128.215C415.207 123.78 416.38 120.567 418.322 118.575C420.29 116.583 423.301 115.588 427.354 115.588C431.434 115.588 434.251 116.57 435.805 118.535C437.386 120.5 437.974 123.701 437.57 128.135C437.168 132.544 435.963 135.81 433.956 137.935C431.976 140.059 428.972 141.122 424.946 141.122C420.946 141.122 418.148 140.073 416.553 137.975C414.984 135.877 414.401 132.623 414.803 128.215ZM428.875 123.475C428.591 122.784 427.876 122.439 426.729 122.439C425.583 122.439 424.819 122.771 424.438 123.435C424.058 124.099 423.768 125.52 423.57 127.697L423.41 129.45C423.207 131.681 423.248 133.128 423.534 133.792C423.82 134.456 424.55 134.788 425.723 134.788C426.897 134.788 427.659 134.469 428.01 133.832C428.362 133.194 428.638 131.774 428.839 129.569L429.006 127.737C429.205 125.559 429.161 124.139 428.875 123.475ZM441.636 133.712L442.773 115.986H450.773L448.556 133.712H441.636ZM444.521 141.122C443.081 141.122 442.09 140.869 441.55 140.365C441.011 139.834 440.792 139.024 440.891 137.935C440.991 136.846 441.343 136.049 441.949 135.545C442.584 135.014 443.635 134.748 445.102 134.748C446.568 134.748 447.558 135.014 448.069 135.545C448.583 136.049 448.791 136.846 448.691 137.935C448.592 139.024 448.225 139.834 447.59 140.365C446.984 140.869 445.961 141.122 444.521 141.122Z" fill="#F4C12A"/>
</g>
<path d="M308.835 186.208C310.505 194.92 306.518 222.282 312.056 232.014C316.789 240.321 326.243 249.858 327.647 260.947L254.896 253.274C256.348 246.922 263.957 237.631 265.187 223.579L308.839 186.212L308.835 186.208Z" fill="#2C2044"/>
<path d="M293.628 247.736L295.643 216.446L267.095 214.609L265.08 245.899C262.942 245.887 260.827 245.891 258.764 245.927C261.117 254.817 268.9 261.446 278.374 262.057C287.848 262.668 296.421 257.086 299.892 248.573C297.849 248.271 295.751 247.994 293.632 247.732L293.628 247.736Z" fill="#FCDABA"/>
<path d="M266.096 230.161L265.45 240.178C270.353 240.916 278.296 241.424 284.933 238.631C290.221 236.409 292.006 233.207 292.605 231.874L266.1 230.161H266.096Z" fill="#DCAC82"/>
<path d="M243.812 427.019C257.752 427.019 269.052 415.718 269.052 401.779C269.052 387.84 257.752 376.54 243.812 376.54C229.873 376.54 218.573 387.84 218.573 401.779C218.573 415.718 229.873 427.019 243.812 427.019Z" fill="#2C2044"/>
<path d="M302.011 427.019C315.951 427.019 327.251 415.718 327.251 401.779C327.251 387.84 315.951 376.54 302.011 376.54C288.072 376.54 276.772 387.84 276.772 401.779C276.772 415.718 288.072 427.019 302.011 427.019Z" fill="#2C2044"/>
<path d="M269.048 401.929L218.573 401.779C217.22 371.493 226.753 352.026 232.196 344.738H313.627C319.07 352.026 328.604 371.493 327.251 401.779L276.776 401.929H269.052H269.048Z" fill="#2C2044"/>
<path d="M223.42 360.484C227.983 345.341 232.549 330.199 237.111 315.056C234.525 313.159 227.443 307.431 224.579 297.275C220.076 281.291 229.958 268.266 231.105 266.81C230.938 261.173 230.768 255.531 230.601 249.894C233.6 249.406 236.635 248.93 239.702 248.474C246.172 247.51 252.528 246.669 258.76 245.927C261.109 254.801 268.869 261.423 278.315 262.054C278.335 262.054 278.354 262.054 278.374 262.054C278.394 262.054 278.414 262.054 278.434 262.057C287.884 262.641 296.425 257.071 299.896 248.569C305.982 250.1 312.179 251.755 318.471 253.536C321.454 254.381 324.402 255.242 327.314 256.111C326.425 261.681 325.533 267.251 324.644 272.821C326.171 278.291 327.699 283.758 329.226 289.229C323.807 299.254 318.392 309.279 312.972 319.305C313.448 325.541 314.417 332.761 316.261 340.656C318.332 349.515 321.018 357.156 323.672 363.44C311.989 367.621 291.657 373.148 266.298 371.105C248.013 369.633 233.346 364.721 223.424 360.476L223.42 360.484Z" fill="#DE4A65"/>
<path d="M275.451 338.014C271.88 337.816 269.698 335.832 270.69 330.477L288.741 333.452L321.867 362.214L322.462 364L312.941 366.777C304.874 366.115 291.438 365.15 287.154 364.991C282.869 364.833 282.459 360.958 282.592 359.834C282.459 359.239 282.631 357.335 284.377 354.478C282.155 353.526 282.261 351.437 282.592 350.511C282.988 349.85 284.218 348.091 285.964 346.345C283.583 345.949 282.592 344.163 282.988 341.982C283.306 340.236 284.178 339.006 284.575 338.609C282.724 338.477 278.307 338.173 275.451 338.014Z" fill="#973043"/>
<path d="M318.931 364.087C309.747 364.087 302.277 356.672 302.221 347.476C302.166 338.248 309.6 330.722 318.832 330.667C325.894 330.623 332.943 329.889 339.842 328.477C333.471 312.136 324.577 297.005 313.361 283.449C307.478 276.339 308.474 265.802 315.587 259.923C322.696 254.04 333.233 255.035 339.112 262.149C353.72 279.807 365.058 299.683 372.81 321.229C375.647 329.107 375.008 337.863 371.061 345.242C367.129 352.589 360.242 357.953 352.161 359.953C341.346 362.631 330.198 364.023 319.03 364.09C318.999 364.09 318.963 364.09 318.927 364.09L318.931 364.087Z" fill="#FCDABA"/>
<path d="M229.527 283.278C238.755 283.278 246.237 275.797 246.237 266.568C246.237 257.34 238.755 249.858 229.527 249.858C220.298 249.858 212.817 257.34 212.817 266.568C212.817 275.797 220.298 283.278 229.527 283.278Z" fill="#DE4A65"/>
<path d="M326.243 289.506C335.472 289.506 342.953 282.025 342.953 272.796C342.953 263.568 335.472 256.086 326.243 256.086C317.015 256.086 309.533 263.568 309.533 272.796C309.533 282.025 317.015 289.506 326.243 289.506Z" fill="#DE4A65"/>
<path d="M306.292 205.861L302.42 205.068L299.512 219.271L303.384 220.064C306.236 220.647 309.021 218.81 309.605 215.958L310.398 212.086C310.981 209.233 309.144 206.448 306.292 205.861Z" fill="#FCDABA"/>
<path d="M306.494 211.062C306.426 210.892 306.236 210.808 306.069 210.876L302.602 212.225C302.499 212.264 302.419 212.356 302.4 212.467C302.376 212.578 302.412 212.689 302.491 212.768L305.153 215.371C305.204 215.422 305.272 215.454 305.339 215.462C305.439 215.474 305.542 215.442 305.617 215.367C305.744 215.236 305.744 215.03 305.613 214.903L303.316 212.657L306.307 211.495C306.478 211.427 306.561 211.237 306.494 211.066V211.062Z" fill="#DCAC82"/>
<path d="M262.018 196.796C259.165 196.213 256.38 198.05 255.793 200.903L255 204.775C254.416 207.627 256.253 210.412 259.106 210.999L262.978 211.793L265.886 197.59L262.014 196.796H262.018Z" fill="#DCAC82"/>
<path d="M289.197 171.073L285.968 170.411C275.272 168.221 264.822 175.116 262.633 185.815L256.682 214.871C254.857 223.786 260.605 232.494 269.52 234.319L275.974 235.64C286.67 237.83 297.12 230.935 299.31 220.235L304.598 194.408C306.788 183.713 299.893 173.263 289.193 171.073H289.197Z" fill="#FCDABA"/>
<path d="M285.789 204.473C284.932 204.299 284.048 205.08 283.814 206.223C283.58 207.365 284.087 208.432 284.944 208.607C285.801 208.782 286.686 208 286.92 206.857C287.154 205.715 286.646 204.648 285.789 204.473Z" fill="#2C2044"/>
<path d="M266.869 200.561C266.012 200.387 265.128 201.168 264.894 202.311C264.66 203.454 265.167 204.521 266.024 204.695C266.881 204.87 267.766 204.088 268 202.946C268.234 201.803 267.726 200.736 266.869 200.561Z" fill="#2C2044"/>
<path d="M291.423 199.982C290.697 199.335 289.467 198.506 287.733 198.205C286.198 197.939 284.913 198.209 284.099 198.482C283.929 198.542 283.834 198.728 283.893 198.899C283.953 199.074 284.139 199.165 284.31 199.105C285.051 198.859 286.218 198.613 287.622 198.851C289.201 199.125 290.324 199.883 290.982 200.47C291.034 200.514 291.094 200.541 291.157 200.549C291.26 200.561 291.371 200.526 291.447 200.442C291.566 200.307 291.554 200.097 291.419 199.978L291.423 199.982Z" fill="#2C2044"/>
<path d="M270.282 195.634C269.794 195.087 268.957 194.372 267.758 194.075C266.39 193.738 265.212 194.087 264.458 194.44C264.295 194.515 264.224 194.714 264.299 194.876C264.374 195.043 264.573 195.114 264.735 195.035C265.39 194.729 266.422 194.42 267.596 194.714C268.635 194.971 269.361 195.594 269.786 196.07C269.841 196.13 269.913 196.17 269.988 196.177C270.079 196.189 270.175 196.162 270.25 196.098C270.385 195.975 270.397 195.769 270.278 195.634H270.282Z" fill="#2C2044"/>
<path d="M288.987 211.067C287.741 210.813 286.619 211.166 286.48 211.86C286.337 212.55 287.234 213.32 288.475 213.574C289.721 213.828 290.844 213.475 290.983 212.78C291.125 212.09 290.229 211.321 288.987 211.067Z" fill="#FBCCA1"/>
<path d="M260.982 205.334C259.736 205.08 258.614 205.433 258.475 206.128C258.332 206.818 259.228 207.588 260.47 207.842C261.712 208.095 262.839 207.742 262.977 207.048C263.12 206.358 262.224 205.588 260.982 205.334Z" fill="#FBCCA1"/>
<path d="M301.638 217.807C300.547 217.585 299.48 218.287 299.254 219.382C299.032 220.473 299.734 221.54 300.825 221.766C301.916 221.989 302.983 221.286 303.209 220.191C303.436 219.096 302.729 218.033 301.634 217.807H301.638Z" fill="#10CBB4"/>
<path d="M293.716 171.997L285.944 170.406C275.621 168.292 265.37 174.624 262.827 184.847C262.613 185.704 262.438 186.577 262.295 187.454C268.956 186.267 273.558 183.542 275.97 181.86C280.41 188.981 287.677 194.495 296.77 197.15C296.762 199.209 296.604 201.394 296.409 203.838L306.934 205.992L309.116 195.333C311.306 184.637 304.411 174.187 293.712 171.997H293.716Z" fill="#2C2044"/>
<path d="M272.495 217.042C273.356 217.216 274.225 217.335 275.093 217.387C278.343 217.585 279.553 218.712 278.886 220.64C278.184 222.679 276.407 224.968 271.091 223.885C265.774 222.79 265.045 219.989 265.199 217.835C265.346 215.8 266.905 215.24 269.968 216.335C270.789 216.629 271.634 216.863 272.495 217.042Z" fill="#6B222F"/>
<path d="M266.33 221.54C267.195 222.532 268.67 223.385 271.094 223.889C273.522 224.381 275.212 224.174 276.395 223.603C275.546 222.171 273.868 221.001 271.777 220.572C269.686 220.144 267.675 220.56 266.33 221.544V221.54Z" fill="#DE4A65"/>
<path d="M267.314 215.787L267.615 216.978C267.727 217.418 268.056 217.759 268.476 217.906C270.25 218.505 272.428 219.14 274.959 219.655C276.399 219.949 277.748 220.167 278.986 220.326C279.418 218.584 278.164 217.569 275.102 217.386C274.233 217.331 273.36 217.22 272.503 217.041C271.638 216.863 270.793 216.625 269.976 216.335C268.909 215.954 268.024 215.776 267.318 215.783L267.314 215.787Z" fill="white"/>
<path d="M214.221 354.351C235.017 356.489 253.607 341.362 255.741 320.566C257.88 299.77 242.753 281.179 221.957 279.045C201.16 276.906 182.57 292.033 180.436 312.83C178.297 333.626 193.424 352.216 214.221 354.351Z" fill="#FCDABA"/>
<path d="M225.031 266.254L244.261 289.348L191.917 344.04L153.276 344.893L151.586 267.869L225.035 266.258L225.031 266.254Z" fill="#FCDABA"/>
<path d="M255.932 315.861C255.908 309.708 255.404 300.297 252.766 289.237C249.283 274.653 244.677 268.286 240.904 256.686C238.532 249.398 236.203 239.174 236.155 225.864C236.139 220.27 231.625 215.748 226.035 215.827C220.866 215.903 216.569 219.913 216.228 225.071C215.589 234.81 215.891 244.788 217.251 254.904C214.07 258.165 207.5 265.85 205.421 277.502C201.613 298.885 216.291 314.798 218.089 316.682L255.94 315.853L255.928 315.861H255.932Z" fill="#FCDABA"/>
<path d="M245.145 343.167C240.023 344.512 225.951 347.515 218.259 340.005C215.629 337.438 214.438 334.324 213.435 310.846C212.344 285.345 213.399 280.707 214.859 276.652C218.188 267.456 223.686 261.141 227.388 257.534C225.364 255.884 222.555 252.73 219.505 249.076C219.505 249.076 216.315 244.383 216.021 240.582V240.527C216.16 243.407 216.375 246.402 216.664 249.477C216.843 251.326 217.037 253.131 217.255 254.9C212.848 257.808 180.495 279.759 180.221 312.342C180.178 317.852 180.074 329.551 188.318 340.025C197.824 352.097 211.519 354.017 213.423 354.251C231.335 356.441 243.602 344.682 245.145 343.151V343.171V343.167Z" fill="#DCAC82"/>
<mask id="mask0_721_24802" style="mask-type:luminance" maskUnits="userSpaceOnUse" x="131" y="181" width="89" height="184">
<path d="M217.398 181.099L131.496 182.253L133.945 364.491L219.847 363.337L217.398 181.099Z" fill="white"/>
</mask>
<g mask="url(#mask0_721_24802)">
<path d="M219.759 356.679L217.557 192.896C217.505 189.218 214.478 186.275 210.789 186.326L138.24 187.302C134.555 187.35 131.603 190.373 131.655 194.051L133.857 357.833C133.904 361.511 136.935 364.455 140.621 364.403L213.169 363.427C216.855 363.38 219.806 360.357 219.755 356.679H219.759Z" fill="#403556"/>
<path d="M219.691 351.546L217.49 187.763C217.438 184.085 214.411 181.141 210.722 181.193L138.173 182.169C134.487 182.217 131.536 185.24 131.587 188.917L133.789 352.7C133.837 356.378 136.868 359.322 140.553 359.27L213.102 358.294C216.787 358.242 219.739 355.223 219.688 351.546H219.691Z" fill="#2C2044"/>
<path d="M215.423 344.274L213.419 195.146C213.396 193.321 211.892 191.861 210.063 191.885L139.109 192.837C137.28 192.861 135.817 194.36 135.84 196.185L137.844 345.313C137.868 347.138 139.371 348.598 141.2 348.574L212.154 347.622C213.983 347.598 215.447 346.099 215.423 344.274Z" fill="#742384"/>
<path d="M165.888 189.072L183.189 188.838C184.193 188.826 184.998 188.001 184.982 186.997V186.775C184.967 185.771 184.141 184.97 183.138 184.986L165.837 185.22C164.833 185.232 164.028 186.057 164.043 187.06V187.283C164.059 188.286 164.884 189.088 165.888 189.072Z" fill="#544A69"/>
</g>
<path d="M144.695 257.201V257.193C146.456 251.905 143.592 246.192 138.3 244.435L128.818 241.285C123.53 239.527 117.817 242.391 116.059 247.68V247.688C114.298 252.976 117.162 258.689 122.455 260.446L131.936 263.596C137.225 265.354 142.937 262.489 144.695 257.201Z" fill="#FCDABA"/>
<path d="M145.655 282.822V282.814C146.544 277.311 142.803 272.13 137.3 271.241L125.509 269.337C120.007 268.448 114.826 272.19 113.937 277.692V277.7C113.048 283.203 116.789 288.384 122.292 289.272L134.083 291.177C139.585 292.065 144.766 288.324 145.655 282.822Z" fill="#FCDABA"/>
<path d="M144.505 308.446V308.438C144.897 302.876 140.708 298.052 135.146 297.659L123.597 296.846C118.035 296.453 113.211 300.646 112.822 306.204V306.212C112.43 311.774 116.619 316.599 122.181 316.987L133.73 317.801C139.292 318.193 144.116 314 144.505 308.442V308.446Z" fill="#FCDABA"/>
<path d="M146.996 335.828V335.82C147.389 330.258 143.2 325.433 137.638 325.041L127.624 324.338C122.062 323.946 117.238 328.139 116.849 333.697V333.705C116.456 339.263 120.646 344.091 126.208 344.48L136.221 345.182C141.783 345.575 146.607 341.386 146.996 335.824V335.828Z" fill="#FCDABA"/>
<path d="M328.651 310.826C333.46 309.204 340.319 306.272 347.42 300.88C353.696 296.116 358.017 291.05 360.818 287.201C357.017 281.778 352.443 275.986 346.952 270.134C344.512 267.536 342.084 265.132 339.704 262.91C330.726 269.504 321.748 276.097 312.771 282.687C318.063 292.065 323.359 301.444 328.651 310.822V310.826Z" fill="#DE4A65"/>
<path d="M326.239 289.511C335.468 289.511 342.949 282.029 342.949 272.801C342.949 263.572 335.468 256.091 326.239 256.091C317.011 256.091 309.529 263.572 309.529 272.801C309.529 282.029 317.011 289.511 326.239 289.511Z" fill="#DE4A65"/>
<path d="M339.842 328.476C341.207 328.27 342.794 328.123 344.559 328.127C346.793 328.127 348.753 328.373 350.368 328.679C349.042 327.27 347.944 326.251 344.559 324.723C342.143 323.633 339.363 323.541 337.736 323.335C338.645 325.525 338.934 326.287 339.842 328.476Z" fill="#DCAC82"/>
<path d="M322.859 300.523L314.33 285.845C317.573 298.955 317.152 304.605 315.52 314.012L322.859 300.523Z" fill="#973043"/>
<path d="M318.609 364.221C327.992 364.221 335.597 356.616 335.597 347.234C335.597 337.852 327.992 330.246 318.609 330.246C309.227 330.246 301.622 337.852 301.622 347.234C301.622 356.616 309.227 364.221 318.609 364.221Z" fill="#FCDABA"/>
<path d="M291.738 362.176L317.292 364.169L319.935 330.289L294.38 328.296L291.738 362.176Z" fill="#FCDABA"/>
<path d="M304.776 329.112L275.494 326.827C273.153 326.644 271.11 328.394 270.927 330.73C270.745 333.067 272.494 335.114 274.831 335.297L304.113 337.582L304.772 329.112H304.776Z" fill="#FCDABA"/>
<path d="M304.117 337.581L287.439 336.28C285.099 336.098 283.055 337.847 282.873 340.184C282.69 342.525 284.44 344.568 286.777 344.75L303.455 346.051L304.113 337.581H304.117Z" fill="#FCDABA"/>
<path d="M303.455 346.052L286.777 344.75C284.436 344.568 282.393 346.317 282.21 348.654C282.028 350.995 283.777 353.038 286.114 353.22L302.792 354.522L303.451 346.052H303.455Z" fill="#FCDABA"/>
<path d="M302.796 354.521L286.118 353.22C283.778 353.038 281.734 354.787 281.552 357.124C281.369 359.465 283.119 361.508 285.456 361.69L302.134 362.991L302.792 354.521H302.796Z" fill="#FCDABA"/>
<path d="M295.231 331.857L301.788 322.907C303.625 320.399 307.188 319.939 309.6 321.899L319.935 330.29L316.13 336.514L294.965 335.268L295.231 331.857Z" fill="#FCDABA"/>
<path d="M173.34 246.066C174.35 244.986 176.064 244.986 177.074 246.066L180.598 249.837C181.38 250.674 182.486 251.131 183.63 251.093L188.788 250.919C190.267 250.869 191.479 252.08 191.429 253.559L191.254 258.717C191.215 259.862 191.674 260.967 192.511 261.749L196.281 265.273C197.362 266.283 197.362 267.998 196.281 269.008L192.511 272.531C191.674 273.313 191.216 274.419 191.254 275.563L191.429 280.722C191.479 282.2 190.267 283.412 188.788 283.362L183.63 283.188C182.486 283.149 181.38 283.608 180.598 284.444L177.074 288.215C176.064 289.296 174.35 289.295 173.34 288.215L169.816 284.444C169.034 283.608 167.928 283.149 166.783 283.188L161.625 283.362C160.147 283.412 158.936 282.2 158.986 280.722L159.159 275.563C159.198 274.419 158.74 273.313 157.904 272.531L154.133 269.008C153.052 267.998 153.052 266.283 154.133 265.273L157.904 261.749C158.74 260.967 159.198 259.861 159.159 258.717L158.986 253.559C158.936 252.08 160.147 250.869 161.625 250.919L166.783 251.093C167.928 251.131 169.034 250.674 169.816 249.837L173.34 246.066Z" fill="#10CBB4" stroke="#10CBB4" stroke-width="1.41192"/>
<path fill-rule="evenodd" clip-rule="evenodd" d="M164.739 265.144C165.842 264.041 167.63 264.041 168.732 265.144L174.38 270.792C175.483 271.894 175.483 273.682 174.38 274.785C173.277 275.888 171.489 275.888 170.387 274.785L164.739 269.137C163.636 268.035 163.636 266.247 164.739 265.144Z" fill="white"/>
<path fill-rule="evenodd" clip-rule="evenodd" d="M185.675 259.496C184.573 258.393 182.785 258.393 181.682 259.496L170.387 270.791C169.284 271.894 169.284 273.682 170.387 274.785C171.489 275.888 173.277 275.888 174.38 274.785L185.675 263.49C186.778 262.387 186.778 260.599 185.675 259.496Z" fill="white"/>
<path d="M111.595 191.479C114.625 192.182 118.444 193.956 122.522 196.282C126.659 198.641 131.002 201.532 134.959 204.342C138.915 207.151 142.476 209.874 145.048 211.895C145.657 212.374 146.211 212.812 146.701 213.204L109.545 206.062C109.528 206.056 109.506 206.049 109.48 206.04C109.4 206.012 109.282 205.97 109.13 205.915C108.826 205.806 108.385 205.644 107.848 205.438C106.771 205.024 105.308 204.43 103.753 203.709C102.197 202.986 100.563 202.142 99.1431 201.231C97.7985 200.368 96.7009 199.48 96.0255 198.617L95.8959 198.445L95.8225 198.331C95.7631 198.224 95.7413 198.138 95.7351 198.068C95.7269 197.976 95.7424 197.861 95.8123 197.714C95.9646 197.394 96.3376 196.991 96.9942 196.534C98.2913 195.632 100.341 194.757 102.563 193.988C104.766 193.225 107.068 192.588 108.825 192.141C109.702 191.917 110.441 191.742 110.959 191.623C111.218 191.563 111.423 191.517 111.562 191.487C111.573 191.484 111.585 191.481 111.595 191.479Z" fill="#10CBB4" stroke="#10CBB4" stroke-width="1.61622"/>
<path fill-rule="evenodd" clip-rule="evenodd" d="M149.523 215.494C149.523 215.494 109.092 188.518 99.9397 188.268L96.3819 199.723L149.523 215.494Z" fill="#008C7B"/>
<path d="M93.4071 196.883C123.854 202.895 140.775 210.239 148.988 214.728C149.987 215.275 149.622 216.781 148.356 216.67C117.897 213.984 101.791 216.68 96.3475 217.937C95.6683 218.094 95.0266 217.636 94.9348 217.024L92.0789 198.023L92.0791 198.022C91.9805 197.371 92.5929 196.722 93.4071 196.883Z" fill="#10CBB4" stroke="#10CBB4" stroke-width="1.61622"/>
<g clip-path="url(#clip1_721_24802)">
<path fill-rule="evenodd" clip-rule="evenodd" d="M341.697 211.246C341.098 212.616 339.975 213.708 338.571 214.292C336.778 215.037 334.217 216.103 332.175 216.952C330.926 217.471 330.928 219.193 332.175 219.712L338.571 222.372C339.978 222.956 341.098 224.047 341.697 225.418C342.462 227.164 343.556 229.66 344.427 231.65C344.96 232.866 346.727 232.866 347.26 231.65C348.132 229.66 349.226 227.164 349.99 225.418C350.59 224.047 351.712 222.956 353.117 222.372C354.909 221.627 357.47 220.561 359.513 219.712C360.761 219.193 360.761 217.471 359.513 216.952C357.47 216.103 354.909 215.037 353.117 214.292C351.71 213.708 350.59 212.614 349.99 211.246C349.226 209.499 348.132 207.004 347.26 205.014C346.727 203.797 344.96 203.797 344.427 205.014C343.556 207.004 342.462 209.499 341.697 211.246Z" fill="#BD77C7"/>
<path fill-rule="evenodd" clip-rule="evenodd" d="M375.57 238.97C375.346 239.482 374.926 239.89 374.401 240.108C373.731 240.387 372.774 240.785 372.011 241.102C371.544 241.297 371.545 241.94 372.011 242.134L374.401 243.128C374.927 243.347 375.346 243.754 375.57 244.267C375.855 244.919 376.264 245.852 376.59 246.596C376.789 247.05 377.45 247.05 377.649 246.596C377.975 245.852 378.384 244.919 378.669 244.267C378.893 243.754 379.313 243.347 379.838 243.128C380.508 242.85 381.465 242.451 382.228 242.134C382.695 241.94 382.695 241.297 382.228 241.102C381.465 240.785 380.508 240.387 379.838 240.108C379.312 239.89 378.893 239.481 378.669 238.97C378.384 238.317 377.975 237.385 377.649 236.641C377.45 236.186 376.789 236.186 376.59 236.641C376.264 237.385 375.855 238.317 375.57 238.97Z" fill="#BD77C7"/>
</g>
<g clip-path="url(#clip2_721_24802)">
<path fill-rule="evenodd" clip-rule="evenodd" d="M72.2314 335.606C72.4794 336.182 72.9434 336.64 73.5243 336.885C74.2655 337.198 75.3246 337.646 76.1694 338.003C76.6857 338.221 76.6848 338.944 76.1694 339.162L73.5243 340.279C72.9425 340.525 72.4794 340.983 72.2314 341.559C71.9153 342.292 71.4628 343.34 71.1024 344.176C70.8819 344.687 70.1513 344.687 69.9308 344.176C69.5704 343.34 69.1179 342.292 68.8018 341.559C68.5538 340.983 68.0898 340.525 67.5089 340.279C66.7677 339.967 65.7086 339.519 64.8638 339.162C64.3475 338.944 64.3475 338.221 64.8638 338.003C65.7086 337.646 66.7677 337.198 67.5089 336.885C68.0907 336.64 68.5538 336.181 68.8018 335.606C69.1179 334.873 69.5704 333.825 69.9308 332.989C70.1513 332.478 70.8819 332.478 71.1024 332.989C71.4628 333.825 71.9153 334.873 72.2314 335.606Z" fill="#BD77C7"/>
</g>
<path d="M388.19 369.258L386.948 365.914C386.223 366.515 385.332 366.854 384.386 366.891L385.622 370.223C385.704 370.444 385.947 370.555 386.166 370.473L387.942 369.805C388.161 369.723 388.271 369.478 388.19 369.258Z" fill="#F5F5F5"/>
<path d="M383.943 358.5C381.312 358.502 380 358.321 380 362.476C380.002 364.465 380.068 365.457 380.596 365.953L381.787 362.536C381.869 362.301 382.037 362.113 382.261 362.005C382.484 361.896 382.736 361.882 382.97 361.965L384.836 362.624C385.069 362.707 385.257 362.876 385.364 363.101C385.472 363.325 385.485 363.579 385.403 363.813L384.501 366.4C386.419 366.128 387.895 364.473 387.894 362.467C387.891 360.274 386.122 358.498 383.943 358.5Z" fill="#F5F5F5"/>
<path d="M384.655 363.143L382.789 362.484C382.59 362.413 382.372 362.519 382.302 362.719L380.022 369.26C379.952 369.46 380.057 369.679 380.256 369.75L382.122 370.409C382.321 370.48 382.538 370.374 382.608 370.173L384.889 363.632C384.958 363.432 384.854 363.213 384.655 363.143Z" fill="#F5F5F5"/>
<path d="M393.62 368.25V360.614H396.19C396.786 360.614 397.274 360.722 397.653 360.938C398.034 361.152 398.316 361.441 398.5 361.807C398.683 362.172 398.774 362.58 398.774 363.03C398.774 363.48 398.683 363.889 398.5 364.257C398.319 364.624 398.039 364.918 397.66 365.137C397.282 365.353 396.796 365.461 396.205 365.461H394.363V364.641H396.175C396.583 364.641 396.911 364.57 397.159 364.428C397.407 364.286 397.586 364.095 397.698 363.854C397.811 363.61 397.868 363.336 397.868 363.03C397.868 362.724 397.811 362.451 397.698 362.21C397.586 361.968 397.405 361.779 397.155 361.643C396.905 361.504 396.573 361.434 396.16 361.434H394.541V368.25H393.62ZM402.395 368.369C401.88 368.369 401.429 368.246 401.04 368C400.654 367.754 400.352 367.41 400.134 366.967C399.918 366.525 399.811 366.008 399.811 365.416C399.811 364.82 399.918 364.299 400.134 363.854C400.352 363.409 400.654 363.063 401.04 362.817C401.429 362.571 401.88 362.448 402.395 362.448C402.91 362.448 403.361 362.571 403.747 362.817C404.136 363.063 404.438 363.409 404.653 363.854C404.871 364.299 404.98 364.82 404.98 365.416C404.98 366.008 404.871 366.525 404.653 366.967C404.438 367.41 404.136 367.754 403.747 368C403.361 368.246 402.91 368.369 402.395 368.369ZM402.395 367.579C402.787 367.579 403.108 367.478 403.361 367.277C403.613 367.075 403.8 366.811 403.922 366.483C404.043 366.155 404.104 365.799 404.104 365.416C404.104 365.033 404.043 364.677 403.922 364.346C403.8 364.015 403.613 363.748 403.361 363.544C403.108 363.341 402.787 363.239 402.395 363.239C402.004 363.239 401.682 363.341 401.43 363.544C401.177 363.748 400.99 364.015 400.869 364.346C400.748 364.677 400.687 365.033 400.687 365.416C400.687 365.799 400.748 366.155 400.869 366.483C400.99 366.811 401.177 367.075 401.43 367.277C401.682 367.478 402.004 367.579 402.395 367.579ZM407.416 368.25L405.678 362.523H406.599L407.832 366.908H407.892L409.11 362.523H410.046L411.249 366.893H411.308L412.541 362.523H413.462L411.724 368.25H410.863L409.615 363.85H409.526L408.278 368.25H407.416ZM416.818 368.369C416.269 368.369 415.795 368.248 415.396 368.004C415 367.758 414.694 367.415 414.479 366.975C414.266 366.532 414.16 366.018 414.16 365.431C414.16 364.844 414.266 364.327 414.479 363.88C414.694 363.43 414.994 363.08 415.378 362.828C415.764 362.575 416.214 362.448 416.729 362.448C417.026 362.448 417.32 362.498 417.61 362.597C417.899 362.697 418.163 362.858 418.401 363.082C418.638 363.303 418.828 363.597 418.969 363.962C419.11 364.327 419.18 364.777 419.18 365.312V365.685H414.783V364.924H418.289C418.289 364.601 418.225 364.312 418.096 364.059C417.97 363.805 417.789 363.605 417.554 363.459C417.321 363.312 417.046 363.239 416.729 363.239C416.38 363.239 416.078 363.326 415.823 363.5C415.571 363.671 415.376 363.895 415.24 364.171C415.104 364.447 415.036 364.743 415.036 365.058V365.565C415.036 365.998 415.11 366.364 415.259 366.665C415.41 366.964 415.619 367.191 415.886 367.348C416.154 367.502 416.464 367.579 416.818 367.579C417.049 367.579 417.257 367.546 417.442 367.482C417.631 367.415 417.793 367.315 417.929 367.184C418.065 367.049 418.17 366.883 418.245 366.684L419.091 366.923C419.002 367.211 418.852 367.465 418.642 367.683C418.432 367.9 418.172 368.068 417.862 368.19C417.553 368.31 417.205 368.369 416.818 368.369ZM420.514 368.25V362.523H421.36V363.388H421.42C421.524 363.104 421.712 362.874 421.984 362.698C422.257 362.521 422.564 362.433 422.905 362.433C422.97 362.433 423.05 362.434 423.147 362.437C423.243 362.439 423.316 362.443 423.366 362.448V363.343C423.336 363.336 423.268 363.324 423.162 363.309C423.058 363.292 422.947 363.283 422.831 363.283C422.554 363.283 422.306 363.342 422.088 363.459C421.873 363.573 421.702 363.732 421.576 363.936C421.452 364.137 421.39 364.367 421.39 364.626V368.25H420.514ZM426.623 368.369C426.073 368.369 425.599 368.248 425.2 368.004C424.804 367.758 424.498 367.415 424.283 366.975C424.07 366.532 423.964 366.018 423.964 365.431C423.964 364.844 424.07 364.327 424.283 363.88C424.498 363.43 424.798 363.08 425.182 362.828C425.568 362.575 426.019 362.448 426.534 362.448C426.831 362.448 427.124 362.498 427.414 362.597C427.703 362.697 427.967 362.858 428.205 363.082C428.442 363.303 428.632 363.597 428.773 363.962C428.914 364.327 428.985 364.777 428.985 365.312V365.685H424.588V364.924H428.093C428.093 364.601 428.029 364.312 427.9 364.059C427.774 363.805 427.593 363.605 427.358 363.459C427.125 363.312 426.851 363.239 426.534 363.239C426.185 363.239 425.882 363.326 425.627 363.5C425.375 363.671 425.181 363.895 425.044 364.171C424.908 364.447 424.84 364.743 424.84 365.058V365.565C424.84 365.998 424.914 366.364 425.063 366.665C425.214 366.964 425.423 367.191 425.691 367.348C425.958 367.502 426.269 367.579 426.623 367.579C426.853 367.579 427.061 367.546 427.247 367.482C427.435 367.415 427.597 367.315 427.733 367.184C427.869 367.049 427.975 366.883 428.049 366.684L428.896 366.923C428.806 367.211 428.657 367.465 428.446 367.683C428.236 367.9 427.976 368.068 427.666 368.19C427.357 368.31 427.009 368.369 426.623 368.369ZM432.472 368.369C431.996 368.369 431.577 368.249 431.213 368.008C430.849 367.764 430.564 367.421 430.359 366.979C430.153 366.534 430.05 366.008 430.05 365.401C430.05 364.8 430.153 364.278 430.359 363.835C430.564 363.393 430.85 363.051 431.217 362.81C431.583 362.569 432.006 362.448 432.487 362.448C432.858 362.448 433.151 362.51 433.367 362.635C433.585 362.756 433.751 362.896 433.864 363.052C433.981 363.206 434.071 363.333 434.136 363.433H434.21V360.614H435.086V368.25H434.24V367.37H434.136C434.071 367.474 433.98 367.606 433.861 367.765C433.742 367.922 433.572 368.062 433.352 368.187C433.132 368.308 432.838 368.369 432.472 368.369ZM432.591 367.579C432.942 367.579 433.239 367.487 433.482 367.303C433.725 367.116 433.909 366.859 434.035 366.531C434.162 366.2 434.225 365.819 434.225 365.386C434.225 364.959 434.163 364.585 434.039 364.264C433.915 363.941 433.732 363.69 433.489 363.511C433.247 363.329 432.947 363.239 432.591 363.239C432.219 363.239 431.91 363.334 431.662 363.526C431.417 363.715 431.233 363.972 431.109 364.298C430.988 364.621 430.927 364.984 430.927 365.386C430.927 365.794 430.989 366.164 431.113 366.498C431.239 366.828 431.425 367.092 431.67 367.288C431.917 367.482 432.224 367.579 432.591 367.579ZM439.873 368.25V360.614H440.75V363.433H440.824C440.888 363.333 440.977 363.206 441.091 363.052C441.208 362.896 441.374 362.756 441.589 362.635C441.807 362.51 442.101 362.448 442.473 362.448C442.953 362.448 443.377 362.569 443.743 362.81C444.109 363.051 444.395 363.393 444.601 363.835C444.806 364.278 444.909 364.8 444.909 365.401C444.909 366.008 444.806 366.534 444.601 366.979C444.395 367.421 444.111 367.764 443.747 368.008C443.383 368.249 442.963 368.369 442.488 368.369C442.121 368.369 441.828 368.308 441.608 368.187C441.387 368.062 441.218 367.922 441.099 367.765C440.98 367.606 440.888 367.474 440.824 367.37H440.72V368.25H439.873ZM440.735 365.386C440.735 365.819 440.798 366.2 440.924 366.531C441.051 366.859 441.235 367.116 441.478 367.303C441.72 367.487 442.017 367.579 442.369 367.579C442.735 367.579 443.041 367.482 443.286 367.288C443.534 367.092 443.719 366.828 443.843 366.498C443.969 366.164 444.033 365.794 444.033 365.386C444.033 364.984 443.971 364.621 443.847 364.298C443.726 363.972 443.541 363.715 443.294 363.526C443.049 363.334 442.74 363.239 442.369 363.239C442.012 363.239 441.713 363.329 441.47 363.511C441.228 363.69 441.044 363.941 440.921 364.264C440.797 364.585 440.735 364.959 440.735 365.386ZM446.61 370.398C446.461 370.398 446.329 370.385 446.213 370.36C446.096 370.338 446.016 370.316 445.971 370.293L446.194 369.518C446.407 369.572 446.595 369.592 446.758 369.577C446.922 369.562 447.067 369.489 447.193 369.357C447.322 369.228 447.439 369.018 447.546 368.727L447.709 368.28L445.6 362.523H446.551L448.125 367.087H448.185L449.759 362.523H450.71L448.289 369.085C448.18 369.381 448.045 369.626 447.884 369.82C447.723 370.016 447.536 370.162 447.323 370.256C447.113 370.351 446.875 370.398 446.61 370.398ZM456.62 364.432C456.62 364.024 456.719 363.653 456.917 363.317C457.115 362.981 457.381 362.714 457.716 362.515C458.05 362.316 458.42 362.217 458.826 362.217C459.178 362.217 459.502 362.293 459.799 362.444C460.099 362.596 460.346 362.804 460.542 363.067C460.737 363.328 460.859 363.624 460.906 363.955H460.007C459.958 363.699 459.82 363.49 459.595 363.328C459.37 363.164 459.114 363.082 458.826 363.082C458.579 363.082 458.353 363.143 458.151 363.265C457.947 363.387 457.785 363.549 457.664 363.753C457.543 363.957 457.482 364.183 457.482 364.432C457.482 364.68 457.543 364.907 457.664 365.11C457.785 365.314 457.947 365.477 458.151 365.599C458.353 365.721 458.579 365.782 458.826 365.782C459.114 365.782 459.356 365.701 459.554 365.539C459.754 365.375 459.881 365.165 459.933 364.909H460.832C460.785 365.24 460.67 365.537 460.486 365.8C460.303 366.061 460.068 366.268 459.781 366.419C459.496 366.571 459.178 366.647 458.826 366.647C458.42 366.647 458.05 366.547 457.716 366.348C457.381 366.149 457.115 365.882 456.917 365.547C456.719 365.211 456.62 364.84 456.62 364.432ZM458.789 368.369C458.249 368.369 457.742 368.267 457.266 368.064C456.793 367.86 456.377 367.578 456.015 367.217C455.656 366.854 455.373 366.435 455.168 365.961C454.966 365.486 454.865 364.976 454.868 364.432C454.87 363.887 454.973 363.378 455.175 362.903C455.381 362.428 455.663 362.011 456.022 361.65C456.381 361.287 456.797 361.004 457.27 360.8C457.743 360.596 458.249 360.494 458.789 360.494C459.332 360.494 459.839 360.596 460.312 360.8C460.787 361.004 461.203 361.287 461.559 361.65C461.918 362.011 462.199 362.428 462.403 362.903C462.606 363.378 462.708 363.887 462.711 364.432C462.713 364.976 462.613 365.486 462.41 365.961C462.207 366.435 461.926 366.854 461.567 367.217C461.208 367.578 460.791 367.86 460.315 368.064C459.84 368.267 459.332 368.369 458.789 368.369ZM458.789 367.504C459.212 367.504 459.61 367.425 459.982 367.266C460.353 367.107 460.678 366.887 460.958 366.606C461.238 366.325 461.457 365.999 461.615 365.629C461.774 365.256 461.852 364.858 461.849 364.436C461.847 364.01 461.766 363.612 461.608 363.239C461.449 362.866 461.23 362.539 460.95 362.258C460.671 361.977 460.346 361.757 459.978 361.598C459.609 361.439 459.212 361.359 458.789 361.359C458.368 361.359 457.974 361.439 457.605 361.598C457.236 361.757 456.911 361.978 456.631 362.262C456.352 362.543 456.132 362.869 455.97 363.242C455.812 363.613 455.731 364.01 455.729 364.436C455.727 364.856 455.804 365.252 455.963 365.625C456.121 365.995 456.341 366.321 456.62 366.602C456.902 366.883 457.228 367.104 457.597 367.266C457.968 367.425 458.366 367.504 458.789 367.504ZM464.496 368.25V360.614H467.066C467.661 360.614 468.148 360.716 468.529 360.919C468.91 361.121 469.193 361.398 469.376 361.751C469.559 362.104 469.651 362.505 469.651 362.955C469.651 363.405 469.559 363.804 469.376 364.152C469.193 364.5 468.912 364.774 468.533 364.972C468.154 365.169 467.67 365.267 467.081 365.267H465.001V364.432H467.051C467.457 364.432 467.784 364.372 468.032 364.253C468.281 364.134 468.462 363.964 468.574 363.746C468.688 363.525 468.744 363.261 468.744 362.955C468.744 362.65 468.688 362.382 468.574 362.154C468.46 361.925 468.278 361.748 468.028 361.624C467.778 361.497 467.448 361.434 467.036 361.434H465.417V368.25H464.496ZM468.076 364.82L469.948 368.25H468.878L467.036 364.82H468.076ZM473.397 368.369C472.848 368.369 472.373 368.248 471.974 368.004C471.579 367.758 471.273 367.415 471.057 366.975C470.844 366.532 470.738 366.018 470.738 365.431C470.738 364.844 470.844 364.327 471.057 363.88C471.273 363.43 471.573 363.08 471.956 362.828C472.342 362.575 472.793 362.448 473.308 362.448C473.605 362.448 473.899 362.498 474.188 362.597C474.478 362.697 474.741 362.858 474.979 363.082C475.217 363.303 475.406 363.597 475.547 363.962C475.688 364.327 475.759 364.777 475.759 365.312V365.685H471.362V364.924H474.868C474.868 364.601 474.803 364.312 474.675 364.059C474.549 363.805 474.368 363.605 474.132 363.459C473.899 363.312 473.625 363.239 473.308 363.239C472.959 363.239 472.656 363.326 472.402 363.5C472.149 363.671 471.955 363.895 471.819 364.171C471.682 364.447 471.614 364.743 471.614 365.058V365.565C471.614 365.998 471.688 366.364 471.837 366.665C471.989 366.964 472.198 367.191 472.465 367.348C472.733 367.502 473.043 367.579 473.397 367.579C473.628 367.579 473.835 367.546 474.021 367.482C474.209 367.415 474.371 367.315 474.507 367.184C474.643 367.049 474.749 366.883 474.823 366.684L475.67 366.923C475.581 367.211 475.431 367.465 475.22 367.683C475.01 367.9 474.75 368.068 474.44 368.19C474.131 368.31 473.783 368.369 473.397 368.369ZM477.092 368.25V362.523H477.939V363.418H478.013C478.132 363.112 478.324 362.874 478.589 362.705C478.853 362.534 479.172 362.448 479.543 362.448C479.919 362.448 480.232 362.534 480.483 362.705C480.735 362.874 480.932 363.112 481.073 363.418H481.132C481.279 363.122 481.498 362.887 481.79 362.713C482.082 362.536 482.432 362.448 482.841 362.448C483.351 362.448 483.768 362.608 484.093 362.929C484.417 363.247 484.579 363.743 484.579 364.417V368.25H483.703V364.417C483.703 363.994 483.587 363.692 483.357 363.511C483.127 363.329 482.856 363.239 482.544 363.239C482.143 363.239 481.832 363.36 481.612 363.604C481.392 363.845 481.281 364.151 481.281 364.521V368.25H480.39V364.327C480.39 364.002 480.285 363.74 480.074 363.541C479.864 363.339 479.593 363.239 479.261 363.239C479.033 363.239 478.821 363.3 478.622 363.421C478.427 363.543 478.268 363.712 478.147 363.928C478.028 364.142 477.968 364.39 477.968 364.67V368.25H477.092ZM486.181 368.25V362.523H487.058V368.25H486.181ZM486.627 361.568C486.456 361.568 486.309 361.51 486.185 361.393C486.064 361.276 486.003 361.136 486.003 360.972C486.003 360.808 486.064 360.667 486.185 360.55C486.309 360.433 486.456 360.375 486.627 360.375C486.798 360.375 486.944 360.433 487.065 360.55C487.189 360.667 487.251 360.808 487.251 360.972C487.251 361.136 487.189 361.276 487.065 361.393C486.944 361.51 486.798 361.568 486.627 361.568ZM491.144 362.523V363.268H488.188V362.523H491.144ZM489.049 361.151H489.926V366.609C489.926 366.858 489.962 367.044 490.034 367.169C490.108 367.29 490.202 367.372 490.316 367.415C490.432 367.455 490.555 367.474 490.683 367.474C490.78 367.474 490.859 367.469 490.921 367.459C490.983 367.447 491.032 367.437 491.07 367.43L491.248 368.22C491.188 368.243 491.106 368.265 490.999 368.287C490.893 368.312 490.757 368.325 490.595 368.325C490.347 368.325 490.104 368.271 489.866 368.164C489.631 368.057 489.435 367.894 489.28 367.676C489.126 367.457 489.049 367.181 489.049 366.848V361.151ZM494.793 368.369C494.243 368.369 493.769 368.248 493.37 368.004C492.974 367.758 492.668 367.415 492.453 366.975C492.24 366.532 492.133 366.018 492.133 365.431C492.133 364.844 492.24 364.327 492.453 363.88C492.668 363.43 492.968 363.08 493.352 362.828C493.738 362.575 494.188 362.448 494.704 362.448C495 362.448 495.294 362.498 495.584 362.597C495.874 362.697 496.137 362.858 496.375 363.082C496.612 363.303 496.802 363.597 496.943 363.962C497.084 364.327 497.155 364.777 497.155 365.312V365.685H492.758V364.924H496.263C496.263 364.601 496.199 364.312 496.07 364.059C495.944 363.805 495.763 363.605 495.528 363.459C495.295 363.312 495.02 363.239 494.704 363.239C494.354 363.239 494.052 363.326 493.798 363.5C493.545 363.671 493.35 363.895 493.214 364.171C493.078 364.447 493.01 364.743 493.01 365.058V365.565C493.01 365.998 493.084 366.364 493.233 366.665C493.384 366.964 493.593 367.191 493.86 367.348C494.128 367.502 494.439 367.579 494.793 367.579C495.023 367.579 495.231 367.546 495.416 367.482C495.605 367.415 495.767 367.315 495.903 367.184C496.039 367.049 496.145 366.883 496.219 366.684L497.066 366.923C496.976 367.211 496.827 367.465 496.616 367.683C496.405 367.9 496.145 368.068 495.836 368.19C495.527 368.31 495.179 368.369 494.793 368.369ZM500.879 368.369C500.33 368.369 499.856 368.248 499.457 368.004C499.061 367.758 498.755 367.415 498.54 366.975C498.327 366.532 498.221 366.018 498.221 365.431C498.221 364.844 498.327 364.327 498.54 363.88C498.755 363.43 499.055 363.08 499.438 362.828C499.825 362.575 500.276 362.448 500.79 362.448C501.088 362.448 501.381 362.498 501.67 362.597C501.96 362.697 502.224 362.858 502.461 363.082C502.7 363.303 502.889 363.597 503.03 363.962C503.171 364.327 503.241 364.777 503.241 365.312V365.685H498.844V364.924H502.35C502.35 364.601 502.286 364.312 502.157 364.059C502.031 363.805 501.85 363.605 501.615 363.459C501.382 363.312 501.107 363.239 500.79 363.239C500.441 363.239 500.139 363.326 499.884 363.5C499.632 363.671 499.437 363.895 499.301 364.171C499.165 364.447 499.097 364.743 499.097 365.058V365.565C499.097 365.998 499.171 366.364 499.319 366.665C499.471 366.964 499.68 367.191 499.948 367.348C500.215 367.502 500.525 367.579 500.879 367.579C501.11 367.579 501.318 367.546 501.504 367.482C501.692 367.415 501.854 367.315 501.99 367.184C502.126 367.049 502.231 366.883 502.306 366.684L503.152 366.923C503.063 367.211 502.913 367.465 502.703 367.683C502.493 367.9 502.233 368.068 501.923 368.19C501.613 368.31 501.265 368.369 500.879 368.369Z" fill="#F5F5F5"/>
</g>
<defs>
<filter id="filter0_f_721_24802" x="-206.75" y="-159.718" width="858.198" height="739.239" filterUnits="userSpaceOnUse" color-interpolation-filters="sRGB">
<feFlood flood-opacity="0" result="BackgroundImageFix"/>
<feBlend mode="normal" in="SourceGraphic" in2="BackgroundImageFix" result="shape"/>
<feGaussianBlur stdDeviation="100" result="effect1_foregroundBlur_721_24802"/>
</filter>
<filter id="filter1_d_721_24802" x="62.8326" y="72.606" width="394.335" height="48.6971" filterUnits="userSpaceOnUse" color-interpolation-filters="sRGB">
<feFlood flood-opacity="0" result="BackgroundImageFix"/>
<feColorMatrix in="SourceAlpha" type="matrix" values="0 0 0 0 0 0 0 0 0 0 0 0 0 0 0 0 0 0 127 0" result="hardAlpha"/>
<feOffset dy="5.22792"/>
<feGaussianBlur stdDeviation="2.61396"/>
<feComposite in2="hardAlpha" operator="out"/>
<feColorMatrix type="matrix" values="0 0 0 0 0 0 0 0 0 0 0 0 0 0 0 0 0 0 0.4 0"/>
<feBlend mode="normal" in2="BackgroundImageFix" result="effect1_dropShadow_721_24802"/>
<feBlend mode="normal" in="SourceGraphic" in2="effect1_dropShadow_721_24802" result="shape"/>
</filter>
<filter id="filter2_d_721_24802" x="-3.59613" y="109.453" width="527.192" height="51.8861" filterUnits="userSpaceOnUse" color-interpolation-filters="sRGB">
<feFlood flood-opacity="0" result="BackgroundImageFix"/>
<feColorMatrix in="SourceAlpha" type="matrix" values="0 0 0 0 0 0 0 0 0 0 0 0 0 0 0 0 0 0 127 0" result="hardAlpha"/>
<feOffset dy="3.59613"/>
<feGaussianBlur stdDeviation="1.79807"/>
<feComposite in2="hardAlpha" operator="out"/>
<feColorMatrix type="matrix" values="0 0 0 0 0 0 0 0 0 0 0 0 0 0 0 0 0 0 0.4 0"/>
<feBlend mode="normal" in2="BackgroundImageFix" result="effect1_dropShadow_721_24802"/>
<feBlend mode="normal" in="SourceGraphic" in2="effect1_dropShadow_721_24802" result="shape"/>
</filter>
<clipPath id="clip0_721_24802">
<rect width="520" height="392" rx="12" fill="white"/>
</clipPath>
<clipPath id="clip1_721_24802">
<rect width="51.3389" height="42.8348" fill="white" transform="matrix(-1 0 0 1 382.578 204.102)"/>
</clipPath>
<clipPath id="clip2_721_24802">
<rect width="12.0797" height="11.9539" fill="white" transform="translate(64.4766 332.605)"/>
</clipPath>
</defs>
</svg>
