<svg width="520" height="392" viewBox="0 0 520 392" fill="none" xmlns="http://www.w3.org/2000/svg">
<g clip-path="url(#clip0_721_27794)">
<rect width="520" height="392" rx="12" fill="#52006B"/>
<path opacity="0.5" d="M726.787 793.48C600.391 736.81 693.349 483.164 538.944 356.924C395.017 239.241 177.008 492.142 -93.5225 200.582C-364.039 -90.9724 257.804 -180.565 153.549 -424.852C49.2814 -669.144 -70.4659 -645.065 -70.4659 -645.065L-478.149 223.428L-473.752 409.206L726.78 793.493L726.787 793.48Z" fill="#920BC1"/>
<g style="mix-blend-mode:screen" opacity="0.7">
<path d="M499.337 155.927C498.011 150.182 492.87 145.805 486.582 145.348C485.288 141.191 481.26 138.16 476.491 138.16C474.118 138.16 471.929 138.911 470.168 140.177C468.311 135.031 463.2 131.334 457.184 131.334C449.601 131.334 443.453 137.209 443.453 144.456C443.453 146.691 444.038 148.796 445.07 150.638C444.372 151.208 443.745 151.857 443.206 152.57C442.39 153.302 441.736 154.196 441.299 155.198C440.94 155.424 440.596 155.668 440.266 155.928H499.337V155.927Z" fill="#660085"/>
</g>
<g style="mix-blend-mode:screen" opacity="0.7">
<path d="M465.431 209.744C465.438 209.535 465.447 209.325 465.447 209.114C465.447 199.229 457.063 191.216 446.721 191.216C446.323 191.216 445.929 191.232 445.538 191.255C441.215 184.656 433.546 180.266 424.801 180.266C416.055 180.266 408.376 184.662 404.054 191.268C403.602 191.237 403.146 191.216 402.685 191.216C396.883 191.216 391.697 193.739 388.261 197.699C387.486 197.584 386.69 197.524 385.881 197.524C378.262 197.524 371.938 202.805 370.684 209.745H465.431V209.744ZM440.103 185.424C439.697 185.106 439.276 184.816 438.781 184.476C439.233 184.779 439.674 185.094 440.103 185.424Z" fill="#660085"/>
</g>
<g style="mix-blend-mode:screen" opacity="0.7">
<path d="M93.7439 212.538C93.7898 212.314 93.8299 212.088 93.8644 211.859C94.9795 204.45 89.578 197.584 81.801 196.522C77.7891 195.974 73.9312 197.08 70.9809 199.294C69.4163 191.943 63.157 185.979 54.9172 184.853C44.4423 183.423 34.7335 190.352 33.232 200.33C33.1536 200.851 33.1 201.369 33.0694 201.886C33.0465 201.882 33.0235 201.877 32.9996 201.875C25.8567 200.899 19.2369 205.624 18.2126 212.427C18.2069 212.464 18.204 212.501 18.1992 212.538H93.7439Z" fill="#660085"/>
</g>
<g style="mix-blend-mode:screen" opacity="0.7" filter="url(#filter0_f_721_27794)">
<ellipse cx="209.704" cy="282.247" rx="206.136" ry="136.07" transform="rotate(21.0304 209.704 282.247)" fill="#9E26C8"/>
</g>
<g style="mix-blend-mode:multiply" opacity="0.15">
<path d="M382.635 366.647C382.49 378.758 332.933 377.441 271.208 379.77C209.483 382.098 159.294 379.998 159.109 375.079C158.923 370.16 213.232 372.034 274.957 369.705C337.84 363.214 375.322 343.798 382.635 366.647Z" fill="#221F23"/>
</g>
<path d="M26.9062 45.1106C26.6761 44.9942 26.4132 44.9323 26.1187 44.9272C25.9127 44.9209 25.7029 44.9462 25.488 44.9968C25.2731 45.0486 25.0747 45.1295 24.8927 45.2382C24.7094 45.3469 24.5603 45.4872 24.4414 45.6579C24.3226 45.8285 24.2581 46.0307 24.2443 46.2658L25.3465 46.2582C25.3692 46.1495 25.4109 46.0547 25.4716 45.9751C25.5322 45.8955 25.6081 45.8335 25.7003 45.7918C25.7926 45.7488 25.8975 45.7286 26.0151 45.7311C26.1453 45.7374 26.2464 45.7691 26.3184 45.8272C26.3905 45.8853 26.4372 45.9637 26.4612 46.0635C26.484 46.1634 26.4904 46.2696 26.4764 46.3847L26.4334 46.6601L25.8988 46.6564C25.6649 46.6564 25.4286 46.6791 25.1897 46.7246C24.9521 46.7701 24.7322 46.846 24.5299 46.9534C24.3277 47.0596 24.1633 47.205 24.0357 47.3895C23.908 47.5728 23.8385 47.8028 23.8284 48.0783C23.8183 48.3223 23.8689 48.5372 23.9826 48.7204C24.0951 48.9037 24.2493 49.0491 24.4427 49.154C24.6361 49.2589 24.8497 49.3145 25.081 49.3196C25.2478 49.3221 25.4046 49.2994 25.55 49.2513C25.6953 49.2033 25.8293 49.1351 25.9519 49.044C26.0214 48.9922 26.0858 48.9353 26.1465 48.8734C26.1554 48.9973 26.1769 49.1173 26.2122 49.2349L27.2904 49.2311L27.298 49.1616C27.2386 49.0137 27.2146 48.8557 27.2285 48.6914C27.2424 48.5258 27.2601 48.3678 27.2841 48.2161L27.5774 46.4035C27.609 46.0939 27.5622 45.8297 27.4383 45.6123C27.3144 45.3949 27.1375 45.2268 26.9062 45.1106ZM26.0858 48.1807C25.9923 48.2806 25.8811 48.3564 25.7534 48.4095C25.6258 48.4626 25.4956 48.4879 25.3629 48.4854C25.2694 48.4828 25.1897 48.4601 25.1227 48.4184C25.057 48.3766 25.0077 48.3197 24.9761 48.2478C24.9445 48.1757 24.9357 48.0948 24.9483 48.0038C24.9647 47.8761 25.0026 47.7674 25.0633 47.6789C25.1253 47.5905 25.2024 47.5184 25.2959 47.4616C25.3894 47.4059 25.4918 47.3642 25.6018 47.3364C25.7117 47.3086 25.8242 47.2934 25.9355 47.2909L26.3323 47.2934L26.2262 47.9735C26.1895 48.048 26.144 48.1175 26.0846 48.1795L26.0858 48.1807Z" fill="white"/>
<path d="M27.9912 49.2333H29.0884L30.1312 43.2319H29.029L27.9912 49.2333Z" fill="white"/>
<path d="M34.612 48.3046C34.4363 48.3918 34.2442 48.4323 34.0356 48.4272C33.8725 48.4221 33.7347 48.3855 33.6274 48.3185C33.5199 48.2515 33.4339 48.163 33.3733 48.053C33.3126 47.9431 33.2709 47.8204 33.2507 47.6839C33.2393 47.6119 33.2343 47.5399 33.233 47.4666H35.833L35.8949 46.9976C35.9227 46.7284 35.9138 46.4718 35.8671 46.2253C35.8203 45.9789 35.7331 45.7602 35.6054 45.5668C35.4778 45.3747 35.3097 45.2205 35.1011 45.1067C34.8926 44.9929 34.641 44.9323 34.3466 44.9272C34.0306 44.9184 33.7449 44.9727 33.4883 45.089C33.2317 45.2053 33.0105 45.3646 32.8222 45.5694C32.6351 45.7741 32.4847 46.0092 32.3735 46.2746C32.261 46.5413 32.1902 46.8206 32.1586 47.1152L32.1434 47.2757C32.1232 47.5563 32.1485 47.8204 32.2218 48.0657C32.2951 48.3096 32.4088 48.5258 32.5643 48.7103C32.7185 48.8961 32.912 49.0402 33.1445 49.1464C33.3771 49.2513 33.6375 49.3069 33.9256 49.312H33.9269C34.1317 49.3145 34.339 49.2892 34.5475 49.2361C34.7561 49.1831 34.9507 49.0996 35.1315 48.9859C35.3122 48.8721 35.4613 48.7267 35.5789 48.5498L35.0859 47.9557C34.9444 48.1023 34.7877 48.2187 34.6107 48.3058L34.612 48.3046ZM33.525 46.2367C33.6021 46.104 33.7032 45.9978 33.8258 45.9156C33.9484 45.8348 34.1001 45.7968 34.2783 45.8019C34.435 45.807 34.5602 45.8474 34.6537 45.9232C34.7472 45.9978 34.8117 46.099 34.8445 46.2215C34.8774 46.3454 34.885 46.4781 34.8635 46.6222L34.8445 46.7195L33.3341 46.717C33.3379 46.7006 33.3417 46.6841 33.3455 46.6677C33.3859 46.5135 33.4466 46.3694 33.525 46.2367Z" fill="white"/>
<path d="M39.0554 45.0052L38.1568 46.283L37.6878 45.0052V45.0039H36.5629L37.3832 47.0212L35.7969 49.2319H37.0229L37.9697 47.8807L38.4968 49.2319H39.6141L38.7584 47.1223L40.2776 45.0052H39.0554Z" fill="white"/>
<path d="M42.2916 43.9624H41.1932L41.0175 45.0052H40.4208L40.2793 45.8015H40.8835L40.5018 48.0716C40.479 48.3131 40.5018 48.5267 40.57 48.7099C40.6396 48.8932 40.7533 49.0373 40.9138 49.1409C41.0744 49.2459 41.2791 49.3002 41.5294 49.3053C41.6394 49.3053 41.7468 49.2977 41.8517 49.2837C41.9579 49.2699 42.0615 49.2471 42.1664 49.2155L42.2448 48.3762C42.1879 48.3851 42.1323 48.3914 42.0767 48.3977C42.021 48.404 41.9679 48.4066 41.9124 48.404C41.8125 48.399 41.7405 48.38 41.6937 48.3459C41.6469 48.3118 41.6178 48.2638 41.6065 48.1993C41.5951 48.1348 41.5951 48.0577 41.6052 47.9667L41.9768 45.8028H42.6758L42.8174 45.0065H42.1146L42.2941 43.9637L42.2916 43.9624Z" fill="white"/>
<path d="M46.3496 45.5668C46.222 45.3747 46.0538 45.2205 45.8453 45.1067C45.6367 44.9929 45.3852 44.9323 45.0907 44.9272C44.7747 44.9184 44.489 44.9727 44.2325 45.089C43.9759 45.2053 43.7546 45.3646 43.5663 45.5694C43.3792 45.7741 43.2289 46.0092 43.1176 46.2746C43.0051 46.5413 42.9343 46.8206 42.9027 47.1152L42.8876 47.2757C42.8673 47.5563 42.8926 47.8204 42.966 48.0657C43.0393 48.3096 43.153 48.5258 43.3085 48.7103C43.4627 48.8961 43.6561 49.0402 43.8887 49.1464C44.1212 49.2513 44.3816 49.3069 44.6698 49.312H44.671C44.8758 49.3145 45.0831 49.2892 45.2917 49.2361C45.5002 49.1831 45.6948 49.0996 45.8756 48.9859C46.0564 48.8721 46.2056 48.7267 46.3231 48.5498L45.8301 47.9557C45.6886 48.1023 45.5318 48.2187 45.3549 48.3058C45.1792 48.393 44.987 48.4335 44.7785 48.4284C44.6155 48.4234 44.4777 48.3867 44.3702 48.3198C44.2628 48.2528 44.1768 48.1643 44.1162 48.0543C44.0555 47.9444 44.0138 47.8217 43.9935 47.6852C43.9822 47.6132 43.9771 47.5411 43.9759 47.4678H46.5758L46.6378 46.9989C46.6656 46.7297 46.6568 46.4731 46.61 46.2266C46.5633 45.9801 46.476 45.7614 46.3484 45.5681L46.3496 45.5668ZM45.6064 46.6235L45.5874 46.7208L44.077 46.7183C44.0808 46.7018 44.0846 46.6854 44.0883 46.669C44.1288 46.5148 44.1895 46.3707 44.2678 46.2379C44.3449 46.1053 44.4461 45.999 44.5687 45.9169C44.6913 45.836 44.8417 45.7981 45.0212 45.8031C45.1779 45.8082 45.303 45.8487 45.3966 45.9245C45.4901 45.999 45.5546 46.1002 45.5874 46.2228C45.6203 46.3467 45.6279 46.4794 45.6064 46.6235Z" fill="white"/>
<path d="M49.9065 44.97C49.8408 44.9548 49.7776 44.9422 49.7169 44.9308C49.6562 44.9194 49.5931 44.9156 49.5273 44.9156C49.2771 44.9131 49.0647 44.9725 48.8928 45.0938C48.7803 45.1735 48.6817 45.2696 48.5945 45.3795L48.635 45.0066H47.6035L46.8691 49.2334H47.9663L48.4403 46.4969C48.4997 46.3882 48.5717 46.2946 48.6577 46.2188C48.7474 46.1392 48.8536 46.0785 48.9762 46.0368C49.0988 45.9951 49.2353 45.9761 49.387 45.9787C49.4527 45.9811 49.5172 45.9863 49.5804 45.9938C49.6436 46.0027 49.7068 46.0115 49.77 46.0216L49.9065 44.9712V44.97Z" fill="white"/>
<path d="M49.7598 49.2321H50.8568L51.5912 45.0054H50.4941L49.7598 49.2321Z" fill="white"/>
<path d="M51.2276 43.3346C51.0557 43.3371 50.9091 43.3927 50.7877 43.4989C50.6664 43.6063 50.6095 43.7478 50.6146 43.9249C50.6171 44.0968 50.679 44.232 50.8004 44.3318C50.9217 44.4304 51.0646 44.4785 51.2289 44.4759C51.3982 44.4722 51.5436 44.4178 51.6662 44.3116C51.7888 44.2055 51.8469 44.0626 51.8419 43.8856C51.8419 43.7175 51.7812 43.5823 51.6586 43.4812C51.536 43.38 51.3932 43.332 51.2289 43.3346H51.2276Z" fill="white"/>
<path d="M55.4879 45.583C55.3463 45.3846 55.1644 45.2278 54.9432 45.1103C54.7207 44.994 54.4577 44.9321 54.1532 44.927C53.8321 44.9194 53.5439 44.9725 53.2873 45.0863C53.0307 45.2001 52.8083 45.3567 52.6199 45.559C52.4316 45.7612 52.2799 45.9938 52.1662 46.258C52.0524 46.5221 51.9804 46.8053 51.9488 47.1049L51.9374 47.187V47.1844C51.9134 47.4663 51.9298 47.733 51.9879 47.9859C52.0461 48.2386 52.1434 48.4636 52.285 48.6595C52.4253 48.8567 52.6073 49.0122 52.8311 49.1285C53.0548 49.2447 53.3164 49.3054 53.616 49.3105C53.932 49.3194 54.2176 49.2663 54.4754 49.155C54.7333 49.0425 54.9558 48.8883 55.1454 48.6886C55.335 48.4889 55.4867 48.2576 55.6029 47.9972C55.7193 47.7356 55.7938 47.4563 55.8279 47.1591L55.8355 47.0732C55.8621 46.7901 55.8456 46.5196 55.7875 46.2643C55.7294 46.009 55.6282 45.7815 55.4867 45.5843L55.4879 45.583ZM54.7346 47.072L54.727 47.1541C54.7119 47.3008 54.6802 47.4487 54.6335 47.6016C54.5867 47.7545 54.5235 47.8948 54.4426 48.0237C54.3617 48.1527 54.2594 48.2563 54.1342 48.3321C54.0104 48.4092 53.8599 48.4447 53.6855 48.4396C53.5225 48.4345 53.3922 48.3903 53.2987 48.3081C53.2052 48.226 53.1382 48.1211 53.0977 47.9934C53.0573 47.8658 53.0346 47.7305 53.0295 47.5889C53.0244 47.4474 53.0283 47.3134 53.0408 47.1883L53.0484 47.1023C53.0648 46.9557 53.094 46.8066 53.1407 46.6524C53.1862 46.4981 53.2494 46.3565 53.3303 46.2264C53.4112 46.0962 53.5136 45.9913 53.6387 45.9116C53.7639 45.832 53.913 45.7954 54.0875 45.8004C54.2505 45.8068 54.3806 45.851 54.4742 45.9357C54.5678 46.0204 54.6348 46.1278 54.6765 46.2567C54.7182 46.3856 54.7422 46.5234 54.7447 46.6675C54.7485 46.8116 54.7447 46.9468 54.7346 47.072Z" fill="white"/>
<path d="M59.1578 44.97C59.092 44.9548 59.0289 44.9422 58.9682 44.9308C58.9075 44.9194 58.8443 44.9156 58.7786 44.9156C58.5283 44.9131 58.3159 44.9725 58.1428 45.0938C58.0303 45.1735 57.9317 45.2696 57.8445 45.3795L57.885 45.0066H56.8535L56.1191 49.2334H57.2163L57.6903 46.4969C57.7497 46.3882 57.8217 46.2946 57.9077 46.2188C57.9974 46.1392 58.1036 46.0785 58.2263 46.0368C58.3488 45.9951 58.4853 45.9761 58.637 45.9787C58.7015 45.9811 58.7672 45.9863 58.8304 45.9938C58.8936 46.0014 58.9568 46.0115 59.02 46.0216L59.1565 44.9712L59.1578 44.97Z" fill="white"/>
<path d="M34.4487 39.027C34.4057 39.2001 34.3766 39.324 34.3614 39.3745C34.0858 40.641 34.1516 41.1403 35.1362 41.024C36.2005 40.8938 36.3307 40.344 36.677 39.027C36.6985 38.9321 36.7276 38.8235 36.7643 38.6933C40.3464 38.2079 43.864 37.9045 48.7051 37.5064C48.901 37.49 49.0716 37.4723 49.2194 37.4507C49.2839 37.4444 49.3471 37.4394 49.4142 37.4331C50.8437 37.3004 50.8298 37.0501 50.9613 36.1628C51.1129 35.1528 49.9905 35.1541 49.6531 35.1642H49.4925C47.3197 35.2211 45.7891 35.2325 43.4393 35.4878C41.4334 35.6559 39.4009 35.8783 37.4518 36.1236C37.879 34.5967 38.2987 33.0989 38.2987 33.0989C38.2987 33.0989 38.7323 34.0329 39.9558 33.9381C41.6925 33.8004 43.8059 32.1143 44.8335 29.0162C45.9193 25.7236 45.8245 21.9898 43.6036 21.67C41.8088 21.416 40.9543 23.0022 40.8317 23.3195C40.8317 23.3195 41.216 21.8786 40.0708 22.1326C38.9788 22.3715 38.7829 22.8556 38.5073 23.7316C38.4567 23.8832 37.5378 27.3073 36.5759 30.911C36.562 30.9324 36.5468 30.9615 36.5405 30.9905C36.3016 31.8084 35.8314 32.0763 35.4914 32.0978C34.3918 32.1698 36.7579 24.9121 36.9387 24.3534C37.1776 23.6305 37.3153 23.0793 36.5114 22.776C35.9692 22.5737 35.2297 22.6458 35.0137 23.2247C34.9189 23.4712 34.8543 23.6443 34.8543 23.6443C34.8543 23.6443 34.2388 22.7254 32.8712 22.848C31.5035 22.9707 29.7745 24.6353 28.6369 27.5589C27.4943 30.4762 27.0013 34.6662 29.7075 35.0846C31.0827 35.2944 32.2404 34.5133 32.8409 33.2177C32.8409 33.2177 32.7322 34.086 33.6448 34.5133C33.9999 34.6789 34.8822 34.6144 35.7215 34.1442C35.504 34.9696 35.2943 35.7431 35.1135 36.4383C29.2663 37.2485 24.6554 38.1535 24.6554 38.1535C24.6554 38.1535 27.8621 27.3049 28.5851 24.9247C29.193 22.9277 28.0492 23.3612 27.2099 23.6077C26.3124 23.8681 25.8852 24.6214 25.4364 25.9966C23.4748 31.9967 21.9264 33.8636 20.8052 33.4579C19.7777 33.0888 23.0122 26.7209 22.2386 25.8816C21.5662 25.151 20.1834 25.194 19.9154 25.6212C19.6551 26.0485 20.0456 26.4466 19.8724 27.0546C19.7069 27.6625 18.4101 30.9552 18.2735 31.6933C18.1358 32.4315 17.0146 36.5205 19.9888 36.3397C21.7469 36.2386 22.949 34.9064 23.0791 34.5373C22.5294 36.1223 21.7469 38.692 21.7469 38.692C21.7469 38.692 18.1496 39.5894 15.2842 42.5927C13.004 44.974 11.3975 50.1045 14.7988 50.9222C20.081 52.1963 22.5862 44.1258 23.8666 41.0872C28.1515 40.1317 31.4214 39.5022 34.4474 39.0244L34.4487 39.027ZM39.7245 28.2364V28.2288C40.4475 25.8626 41.1136 24.921 41.7367 24.653C43.227 24.0159 43.5101 25.8828 42.3586 28.7268C41.0264 32.0119 39.4704 31.9398 38.8776 31.2889C38.8776 31.2889 38.9572 30.7251 39.7245 28.2351V28.2364ZM33.0659 29.6546C32.4288 31.1953 31.8284 32.2811 31.003 32.2887C29.8237 32.2963 29.8516 30.5229 30.6921 28.287C31.4012 26.4124 32.6892 25.2256 33.3843 25.0954C34.0796 24.9652 34.8897 25.2547 33.0659 29.6546ZM17.4469 47.6081C14.6383 50.1196 15.3474 46.6828 16.3902 45.199C18.3734 42.3841 20.8268 41.6674 20.8268 41.6674C19.5817 45.3076 18.0258 47.0949 17.4469 47.6081Z" fill="white"/>
<path d="M48.4085 33.1936C50.1313 33.1215 51.6216 31.8766 52.1651 30.95C52.4254 30.5014 52.5342 29.7998 52.4836 29.4877C52.3534 28.6117 51.8175 28.4815 50.9061 29.6318C50.6812 29.8845 48.8876 31.4847 48.0041 30.5368C47.367 29.8491 47.903 28.503 47.932 28.503C49.0822 28.4158 51.0944 27.9532 52.6934 26.1078H52.6871C53.7513 24.8779 54.2355 22.2589 52.4558 21.2958C50.2994 20.1304 47.4909 21.9114 46.3267 25.7462C45.2915 29.154 44.9086 33.3529 48.411 33.1924L48.4085 33.1936ZM50.1086 23.1198V23.1273C51.078 22.2223 51.997 23.3081 50.8834 24.8577C49.7546 26.4288 48.43 26.3846 48.4237 26.4352C48.5615 25.8196 49.0531 24.112 50.1098 23.1198H50.1086Z" fill="white"/>
<mask id="mask0_721_27794" style="mask-type:luminance" maskUnits="userSpaceOnUse" x="186" y="135" width="12" height="9">
<path fill-rule="evenodd" clip-rule="evenodd" d="M189.247 135.624C193.29 136.577 197.173 140.192 197.227 140.341C197.279 140.492 193.867 143.554 193.867 143.554C192.239 140.944 186.465 138.535 186.465 138.535L189.247 135.624Z" fill="white"/>
</mask>
<g mask="url(#mask0_721_27794)">
<path fill-rule="evenodd" clip-rule="evenodd" d="M181.98 147.96H201.712V131.218H181.98V147.96Z" fill="#10CBB4"/>
</g>
<mask id="mask1_721_27794" style="mask-type:luminance" maskUnits="userSpaceOnUse" x="374" y="264" width="8" height="12">
<path fill-rule="evenodd" clip-rule="evenodd" d="M376.692 264.398L380.859 265.822C381.622 270.247 379.604 275.728 379.473 275.848C379.342 275.969 374.752 273.992 374.752 273.992C376.652 271.288 376.692 264.833 376.692 264.419L376.692 264.398Z" fill="white"/>
</mask>
<g mask="url(#mask1_721_27794)">
<path fill-rule="evenodd" clip-rule="evenodd" d="M370.269 280.259H385.515V259.993H370.269V280.259Z" fill="#00E3F5"/>
</g>
<mask id="mask2_721_27794" style="mask-type:luminance" maskUnits="userSpaceOnUse" x="127" y="200" width="15" height="13">
<path fill-rule="evenodd" clip-rule="evenodd" d="M131.247 200.888C136.637 202.265 141.816 207.485 141.885 207.703C141.952 207.907 137.968 211.795 137.46 212.291L137.406 212.343C135.237 208.572 127.537 205.092 127.537 205.092L131.247 200.888Z" fill="white"/>
</mask>
<g mask="url(#mask2_721_27794)">
<path fill-rule="evenodd" clip-rule="evenodd" d="M123.054 216.749H146.372V196.482H123.054V216.749Z" fill="#FE2145"/>
</g>
<mask id="mask3_721_27794" style="mask-type:luminance" maskUnits="userSpaceOnUse" x="446" y="314" width="15" height="13">
<path fill-rule="evenodd" clip-rule="evenodd" d="M450.179 314.755C455.568 316.132 460.748 321.352 460.817 321.57C460.883 321.773 456.9 325.662 456.391 326.158L456.338 326.209C454.169 322.439 446.469 318.959 446.469 318.959L450.179 314.755Z" fill="white"/>
</mask>
<g mask="url(#mask3_721_27794)">
<path fill-rule="evenodd" clip-rule="evenodd" d="M441.984 330.615H465.303V310.349H441.984V330.615Z" fill="#FE2145"/>
</g>
<mask id="mask4_721_27794" style="mask-type:luminance" maskUnits="userSpaceOnUse" x="381" y="191" width="8" height="6">
<path fill-rule="evenodd" clip-rule="evenodd" d="M388.343 191.17L388.356 191.171C388.469 191.206 388.843 194.044 388.892 194.422L388.898 194.463C386.488 194.247 382.333 196.457 382.333 196.457L381.723 193.622C384.162 191.755 388.236 191.137 388.356 191.171L388.343 191.17Z" fill="white"/>
</mask>
<g mask="url(#mask4_721_27794)">
<path fill-rule="evenodd" clip-rule="evenodd" d="M377.239 200.862H393.382V186.764H377.239V200.862Z" fill="#F4C12A"/>
</g>
<mask id="mask5_721_27794" style="mask-type:luminance" maskUnits="userSpaceOnUse" x="496" y="170" width="8" height="6">
<path fill-rule="evenodd" clip-rule="evenodd" d="M503.297 170.615L503.309 170.617C503.423 170.65 503.796 173.489 503.846 173.867L503.851 173.909C501.441 173.691 497.286 175.902 497.286 175.902L496.676 173.067C499.115 171.201 503.189 170.581 503.309 170.617L503.297 170.615Z" fill="white"/>
</mask>
<g mask="url(#mask5_721_27794)">
<path fill-rule="evenodd" clip-rule="evenodd" d="M492.192 180.307H508.336V166.209H492.192V180.307Z" fill="#10CBB4"/>
</g>
<mask id="mask6_721_27794" style="mask-type:luminance" maskUnits="userSpaceOnUse" x="459" y="212" width="13" height="18">
<path fill-rule="evenodd" clip-rule="evenodd" d="M465.23 212.038C465.462 211.908 471.511 216.353 471.511 216.353C467.705 219.751 465.466 229.659 465.466 229.659L459.852 226.164C460.215 219.46 464.998 212.169 465.23 212.038Z" fill="white"/>
</mask>
<g mask="url(#mask6_721_27794)">
<path fill-rule="evenodd" clip-rule="evenodd" d="M455.367 234.064H475.995V207.63H455.367V234.064Z" fill="#F4C12A"/>
</g>
<mask id="mask7_721_27794" style="mask-type:luminance" maskUnits="userSpaceOnUse" x="71" y="171" width="10" height="12">
<path fill-rule="evenodd" clip-rule="evenodd" d="M74.523 171.469C74.523 171.469 77.3821 177.099 80.3376 178.628C80.3376 178.628 77.0361 182.089 76.8669 182.042C76.697 181.994 72.5556 178.267 71.3691 174.304L74.523 171.469Z" fill="white"/>
</mask>
<g mask="url(#mask7_721_27794)">
<path fill-rule="evenodd" clip-rule="evenodd" d="M66.8848 186.448H84.8217V167.063H66.8848V186.448Z" fill="#F4C12A"/>
</g>
<mask id="mask8_721_27794" style="mask-type:luminance" maskUnits="userSpaceOnUse" x="467" y="82" width="10" height="12">
<path fill-rule="evenodd" clip-rule="evenodd" d="M470.567 82.6411C470.567 82.6411 473.426 88.2706 476.381 89.8008C476.381 89.8008 473.08 93.2611 472.911 93.2141C472.741 93.1664 468.599 89.4397 467.412 85.476L470.567 82.6411Z" fill="white"/>
</mask>
<g mask="url(#mask8_721_27794)">
<path fill-rule="evenodd" clip-rule="evenodd" d="M462.928 97.6201H480.865V78.2354H462.928V97.6201Z" fill="#00E3F5"/>
</g>
<mask id="mask9_721_27794" style="mask-type:luminance" maskUnits="userSpaceOnUse" x="62" y="293" width="10" height="11">
<path fill-rule="evenodd" clip-rule="evenodd" d="M65.9807 293.141C65.9807 293.141 68.8398 298.77 71.7953 300.3C71.7953 300.3 68.4938 303.761 68.3246 303.714C68.1547 303.666 64.0127 299.939 62.8262 295.975L65.9807 293.141Z" fill="white"/>
</mask>
<g mask="url(#mask9_721_27794)">
<path fill-rule="evenodd" clip-rule="evenodd" d="M58.3418 308.12H76.2787V288.735H58.3418V308.12Z" fill="#F4C02A"/>
</g>
<mask id="mask10_721_27794" style="mask-type:luminance" maskUnits="userSpaceOnUse" x="17" y="83" width="10" height="11">
<path fill-rule="evenodd" clip-rule="evenodd" d="M20.8745 83.188C20.8745 83.188 23.7344 88.8182 26.6892 90.347C26.6892 90.347 23.3876 93.8086 23.2184 93.7609C23.0485 93.7132 18.9072 89.9859 17.7207 86.0228L20.8745 83.188Z" fill="white"/>
</mask>
<g mask="url(#mask10_721_27794)">
<path fill-rule="evenodd" clip-rule="evenodd" d="M13.2373 98.167H31.1749V78.7822H13.2373V98.167Z" fill="#00E3F5"/>
</g>
<mask id="mask11_721_27794" style="mask-type:luminance" maskUnits="userSpaceOnUse" x="433" y="130" width="8" height="6">
<path fill-rule="evenodd" clip-rule="evenodd" d="M440.278 130.401L440.29 130.402C440.403 130.436 440.777 133.274 440.826 133.653L440.832 133.694C438.423 133.478 434.266 135.688 434.266 135.688L433.657 132.852C436.095 130.986 440.17 130.367 440.29 130.402L440.278 130.401Z" fill="white"/>
</mask>
<g mask="url(#mask11_721_27794)">
<path fill-rule="evenodd" clip-rule="evenodd" d="M429.174 140.093H445.317V125.995H429.174V140.093Z" fill="#10CBB4"/>
</g>
<mask id="mask12_721_27794" style="mask-type:luminance" maskUnits="userSpaceOnUse" x="113" y="252" width="8" height="6">
<path fill-rule="evenodd" clip-rule="evenodd" d="M120.271 252.677L120.283 252.678C120.396 252.712 120.77 255.55 120.819 255.929L120.825 255.97C118.414 255.754 114.258 257.964 114.258 257.964L113.649 255.128C116.088 253.262 120.163 252.643 120.283 252.678L120.271 252.677Z" fill="white"/>
</mask>
<g mask="url(#mask12_721_27794)">
<path fill-rule="evenodd" clip-rule="evenodd" d="M109.165 262.369H125.309V248.271H109.165V262.369Z" fill="#10CBB4"/>
</g>
<mask id="mask13_721_27794" style="mask-type:luminance" maskUnits="userSpaceOnUse" x="17" y="211" width="7" height="10">
<path fill-rule="evenodd" clip-rule="evenodd" d="M17.0125 211.921C17.0748 211.789 20.8792 211.808 21.5128 211.812L21.6018 211.813C20.9561 214.628 23.0441 219.779 23.2618 220.304L23.28 220.348L19.3037 220.62C17.1415 217.256 16.9453 212.065 17.0125 211.921Z" fill="white"/>
</mask>
<g mask="url(#mask13_721_27794)">
<path fill-rule="evenodd" clip-rule="evenodd" d="M12.5176 225.026H27.7639V207.403H12.5176V225.026Z" fill="#10CBB4"/>
</g>
<mask id="mask14_721_27794" style="mask-type:luminance" maskUnits="userSpaceOnUse" x="58" y="117" width="9" height="7">
<path fill-rule="evenodd" clip-rule="evenodd" d="M65.5511 117.892L65.5633 117.893C65.6759 117.928 66.0501 120.766 66.0995 121.144L66.1049 121.185C63.6951 120.969 59.5385 123.179 59.5385 123.179L58.9297 120.344C61.3679 118.478 65.4433 117.859 65.5633 117.893L65.5511 117.892Z" fill="white"/>
</mask>
<g mask="url(#mask14_721_27794)">
<path fill-rule="evenodd" clip-rule="evenodd" d="M54.4463 131.584H70.59V117.486H54.4463V131.584Z" fill="#FE2145"/>
</g>
<g filter="url(#filter1_d_721_27794)">
<path d="M52.1314 80.607L50.995 98.3334H42.995L45.2114 80.607H52.1314ZM49.247 73.1977C50.687 73.1977 51.6761 73.4633 52.2143 73.9944C52.755 74.499 52.9757 75.2957 52.8764 76.3845C52.7771 77.4733 52.4099 78.2833 51.7748 78.8144C51.1688 79.319 50.1325 79.5713 48.6658 79.5713C47.1991 79.5713 46.2088 79.319 45.6948 78.8144C45.1832 78.2833 44.9771 77.4733 45.0764 76.3845C45.1757 75.2957 45.5283 74.499 46.1343 73.9944C46.7694 73.4633 47.807 73.1977 49.247 73.1977ZM77.3968 85.6261C76.9561 90.4594 73.7224 92.8761 67.6957 92.8761H56.3757L58.6314 68.1387H69.7914C72.778 68.1387 74.9296 68.6698 76.2461 69.7321C77.5892 70.7943 78.1603 72.4276 77.9593 74.6317C77.7583 76.8359 76.67 78.5355 74.6944 79.7306L74.6799 79.8899C76.7503 80.8725 77.6559 82.7846 77.3968 85.6261ZM66.5061 87.9365C67.2261 87.9365 67.7195 87.7905 67.9861 87.4984C68.2552 87.1797 68.4345 86.5291 68.5241 85.5465C68.6137 84.5639 68.5433 83.8734 68.313 83.4751C68.1117 83.0502 67.6644 82.8377 66.9711 82.8377H65.8111L65.3461 87.9365H66.5061ZM67.4106 78.4559C67.8906 78.4559 68.2518 78.2965 68.4942 77.9779C68.7633 77.6592 68.9329 77.1148 69.0031 76.3446C69.0758 75.5479 69.0078 74.977 68.7993 74.6317C68.6175 74.2865 68.2732 74.1139 67.7665 74.1139H66.6065L66.2106 78.4559H67.4106ZM87.5948 92.8761H79.1548L81.4104 68.1387H89.8504L87.5948 92.8761ZM106.864 92.8761H91.0242L93.2798 68.1387H109.68L108.52 74.7114H101.24L100.968 77.699H107.328L106.805 83.4352H100.445L100.136 86.8212H107.976L106.864 92.8761ZM130.542 92.8761H122.382L118.232 83.1165H117.952L117.062 92.8761H109.462L111.717 68.1387H120.157L123.958 78.2169H124.198L125.117 68.1387H132.797L130.542 92.8761ZM156.974 68.1387L149.919 92.8761H137.639L134.814 68.1387H144.054L144.59 83.3157H145.07L148.174 68.1387H156.974ZM172.567 92.8761H156.727L158.983 68.1387H175.383L174.224 74.7114H166.944L166.671 77.699H173.031L172.508 83.4352H166.148L165.839 86.8212H173.679L172.567 92.8761ZM196.245 92.8761H188.085L183.935 83.1165H183.655L182.765 92.8761H175.165L177.42 68.1387H185.86L189.661 78.2169H189.901L190.82 68.1387H198.5L196.245 92.8761ZM208.142 92.8761H199.702L201.957 68.1387H210.397L208.142 92.8761ZM234.228 79.9696C233.443 88.5739 229.104 92.8761 221.211 92.8761H211.571L213.827 68.1387H223.667C227.907 68.1387 230.813 69.1611 232.387 71.206C233.963 73.2242 234.577 76.1455 234.228 79.9696ZM221.658 86.6618C223.018 86.6618 223.94 86.1971 224.425 85.2676C224.91 84.3381 225.25 82.7979 225.446 80.6468C225.645 78.4692 225.559 76.9289 225.188 76.026C224.846 75.0965 223.981 74.6317 222.595 74.6317H221.755L220.658 86.6618H221.658ZM235.857 80.3679C236.261 75.933 237.434 72.7197 239.376 70.7279C241.344 68.7362 244.355 67.7403 248.408 67.7403C252.488 67.7403 255.305 68.7229 256.86 70.6881C258.44 72.6533 259.029 75.8533 258.624 80.2883C258.222 84.6967 257.018 87.9631 255.011 90.0876C253.03 92.2121 250.027 93.2744 246 93.2744C242 93.2744 239.202 92.2254 237.607 90.1275C236.038 88.0295 235.455 84.7763 235.857 80.3679ZM249.929 75.6276C249.645 74.9371 248.93 74.5919 247.784 74.5919C246.637 74.5919 245.873 74.9239 245.493 75.5878C245.112 76.2517 244.823 77.6725 244.624 79.8501L244.464 81.6028C244.261 83.8336 244.302 85.2809 244.588 85.9448C244.875 86.6087 245.604 86.9407 246.778 86.9407C247.951 86.9407 248.713 86.622 249.065 85.9846C249.416 85.3473 249.692 83.9265 249.893 81.7223L250.06 79.8899C250.259 77.7123 250.215 76.2915 249.929 75.6276ZM288.429 92.8761H280.029L279.577 89.0519H275.137L273.949 92.8761H265.909L273.324 68.1387H285.524L288.429 92.8761ZM279.446 83.9132L278.681 75.6276H278.521L276.206 83.9132H279.446ZM312.585 92.8761H297.665L299.92 68.1387H308.48L306.81 86.4627H313.73L312.585 92.8761ZM335.108 92.8761H326.708L326.257 89.0519H321.817L320.628 92.8761H312.588L320.004 68.1387H332.204L335.108 92.8761ZM326.126 83.9132L325.361 75.6276H325.201L322.886 83.9132H326.126ZM361.841 74.7114H354.561L354.252 78.0974H359.772L359.249 83.8336H353.729L352.904 92.8761H344.344L346.6 68.1387H363L361.841 74.7114ZM382.882 92.8761H374.482L374.03 89.0519H369.59L368.402 92.8761H360.362L367.777 68.1387H379.977L382.882 92.8761ZM373.899 83.9132L373.134 75.6276H372.974L370.659 83.9132H373.899ZM411.541 92.8761H403.981L405.056 81.085H404.856L401.421 92.8761H394.421L393.176 81.085H392.976L391.901 92.8761H384.421L387.636 68.1387H398.276L399.136 79.3322H399.496L402.356 68.1387H412.876L411.541 92.8761ZM423.337 92.8761H414.897L417.153 68.1387H425.593L423.337 92.8761ZM441.686 92.8761H426.766L429.022 68.1387H437.582L435.911 86.4627H442.831L441.686 92.8761ZM451.97 92.8761H443.53L445.785 68.1387H454.225L451.97 92.8761ZM476.319 92.8761H467.919L467.468 89.0519H463.028L461.839 92.8761H453.799L461.215 68.1387H473.415L476.319 92.8761ZM467.336 83.9132L466.572 75.6276H466.412L464.096 83.9132H467.336Z" fill="#F4C12A"/>
</g>
<g filter="url(#filter2_d_721_27794)">
<path d="M102.548 116.817C101.764 125.421 97.4247 129.723 89.5314 129.723H79.8914L82.147 104.986H91.987C96.227 104.986 99.1338 106.008 100.707 108.053C102.283 110.071 102.897 112.993 102.548 116.817ZM89.978 123.509C91.338 123.509 92.2604 123.044 92.7451 122.115C93.2299 121.185 93.5703 119.645 93.7665 117.494C93.965 115.316 93.8788 113.776 93.5078 112.873C93.1659 111.944 92.3016 111.479 90.9149 111.479H90.0749L88.978 123.509H89.978ZM119.677 129.723H103.837L106.092 104.986H122.492L121.333 111.559H114.053L113.781 114.546H120.141L119.618 120.282H113.258L112.949 123.668H120.789L119.677 129.723ZM151.987 104.986L143.887 121.876L143.171 129.723H134.651L135.371 121.836L130.547 104.986H139.547L140.479 114.068H140.719L143.227 104.986H151.987ZM172.257 129.723H163.857L163.405 125.899H158.965L157.777 129.723H149.737L157.152 104.986H169.352L172.257 129.723ZM163.274 120.76L162.509 112.475H162.349L160.034 120.76H163.274ZM184.7 121.995H182.98L182.276 129.723H173.876L176.131 104.986H185.811C189.091 104.986 191.418 105.65 192.79 106.978C194.162 108.305 194.709 110.496 194.43 113.55C194.152 116.604 193.233 118.782 191.675 120.083C190.119 121.358 187.794 121.995 184.7 121.995ZM185.627 116.219C185.906 115.794 186.091 115.077 186.183 114.068C186.275 113.059 186.207 112.342 185.979 111.917C185.778 111.492 185.331 111.28 184.637 111.28H183.797L183.289 116.857H184.329C184.942 116.857 185.375 116.644 185.627 116.219ZM210.731 129.723H194.891L197.147 104.986H213.547L212.388 111.559H205.108L204.835 114.546H211.195L210.672 120.282H204.312L204.003 123.668H211.843L210.731 129.723ZM241.866 129.723H233.466L233.015 125.899H228.575L227.386 129.723H219.346L226.762 104.986H238.962L241.866 129.723ZM232.883 120.76L232.119 112.475H231.959L229.643 120.76H232.883ZM258.405 129.723H243.485L245.741 104.986H254.301L252.63 123.31H259.55L258.405 129.723ZM283.466 129.723H267.626L269.881 104.986H286.281L285.122 111.559H277.842L277.57 114.546H283.93L283.407 120.282H277.047L276.738 123.668H284.578L283.466 129.723ZM307.383 129.723H298.223L296.597 122.991H296.237L293.223 129.723H284.463L290.411 117.135L287.199 104.986H296.519L297.727 111.917H298.047L300.719 104.986H309.039L303.927 117.175L307.383 129.723ZM327.995 111.718H322.715L321.073 129.723H312.553L314.195 111.718H308.635L309.609 104.986H329.089L327.995 111.718ZM343.856 129.723H328.016L330.272 104.986H346.672L345.513 111.559H338.233L337.96 114.546H344.32L343.797 120.282H337.437L337.128 123.668H344.968L343.856 129.723ZM367.623 112.953C367.478 114.546 367.095 115.821 366.474 116.777C365.883 117.706 365.008 118.53 363.849 119.247L366.614 129.723H357.774L356.071 121.199H355.431L354.654 129.723H346.454L348.71 104.986H359.31C362.403 104.986 364.624 105.636 365.972 106.938C367.322 108.212 367.872 110.217 367.623 112.953ZM356.714 116.339C357.328 116.339 357.77 116.166 358.042 115.821C358.342 115.449 358.534 114.812 358.616 113.909C358.698 113.006 358.622 112.382 358.387 112.037C358.151 111.691 357.754 111.519 357.194 111.519H356.154L355.714 116.339H356.714ZM377.673 129.723H369.233L371.489 104.986H379.929L377.673 129.723ZM381.443 117.215C381.847 112.78 383.02 109.567 384.962 107.575C386.93 105.583 389.941 104.588 393.994 104.588C398.074 104.588 400.891 105.57 402.445 107.535C404.026 109.5 404.614 112.701 404.21 117.135C403.808 121.544 402.604 124.81 400.597 126.935C398.616 129.059 395.613 130.122 391.586 130.122C387.586 130.122 384.788 129.073 383.193 126.975C381.624 124.877 381.041 121.623 381.443 117.215ZM395.515 112.475C395.231 111.784 394.516 111.439 393.37 111.439C392.223 111.439 391.459 111.771 391.079 112.435C390.698 113.099 390.409 114.52 390.21 116.697L390.05 118.45C389.847 120.681 389.888 122.128 390.174 122.792C390.46 123.456 391.19 123.788 392.364 123.788C393.537 123.788 394.299 123.469 394.651 122.832C395.002 122.194 395.278 120.774 395.479 118.569L395.646 116.737C395.845 114.559 395.801 113.139 395.515 112.475ZM426.646 112.953C426.501 114.546 426.118 115.821 425.498 116.777C424.906 117.706 424.031 118.53 422.873 119.247L425.637 129.723H416.797L415.095 121.199H414.455L413.677 129.723H405.477L407.733 104.986H418.333C421.426 104.986 423.647 105.636 424.995 106.938C426.345 108.212 426.896 110.217 426.646 112.953ZM415.738 116.339C416.351 116.339 416.793 116.166 417.065 115.821C417.366 115.449 417.557 114.812 417.639 113.909C417.722 113.006 417.645 112.382 417.41 112.037C417.175 111.691 416.777 111.519 416.217 111.519H415.177L414.738 116.339H415.738ZM430.816 122.712L431.952 104.986H439.952L437.736 122.712H430.816ZM433.7 130.122C432.26 130.122 431.27 129.869 430.729 129.365C430.191 128.834 429.971 128.024 430.071 126.935C430.17 125.846 430.523 125.049 431.129 124.545C431.764 124.014 432.815 123.748 434.281 123.748C435.748 123.748 436.737 124.014 437.249 124.545C437.763 125.049 437.97 125.846 437.871 126.935C437.771 128.024 437.404 128.834 436.769 129.365C436.163 129.869 435.14 130.122 433.7 130.122Z" fill="white"/>
</g>
<path d="M316.956 179.659C318.672 188.614 314.574 216.737 320.267 226.74C325.131 235.278 334.848 245.081 336.292 256.478L261.516 248.592C263.008 242.064 270.829 232.514 272.093 218.071L316.96 179.663L316.956 179.659Z" fill="#2C2044"/>
<path d="M301.328 242.899L303.399 210.739L274.056 208.851L271.985 241.011C269.787 240.999 267.614 241.003 265.493 241.04C267.911 250.178 275.912 256.991 285.649 257.619C295.387 258.247 304.198 252.51 307.766 243.759C305.666 243.45 303.509 243.164 301.332 242.895L301.328 242.899Z" fill="#FCDABA"/>
<path d="M273.029 224.835L272.364 235.132C277.404 235.89 285.568 236.412 292.39 233.541C297.825 231.258 299.66 227.967 300.276 226.597L273.033 224.835H273.029Z" fill="#DCAC82"/>
<path d="M250.129 427.172C264.456 427.172 276.071 415.558 276.071 401.23C276.071 386.903 264.456 375.288 250.129 375.288C235.801 375.288 224.187 386.903 224.187 401.23C224.187 415.558 235.801 427.172 250.129 427.172Z" fill="#2C2044"/>
<path d="M309.943 427.172C324.27 427.172 335.885 415.558 335.885 401.23C335.885 386.903 324.27 375.288 309.943 375.288C295.616 375.288 284.001 386.903 284.001 401.23C284.001 415.558 295.616 427.172 309.943 427.172Z" fill="#2C2044"/>
<path d="M276.063 401.386L224.183 401.231C222.793 370.102 232.591 350.093 238.186 342.602H321.884C327.479 350.093 337.277 370.102 335.887 401.231L284.007 401.386H276.068H276.063Z" fill="#2C2044"/>
<path d="M229.167 358.788C233.856 343.224 238.549 327.659 243.239 312.095C240.58 310.146 233.301 304.258 230.357 293.819C225.729 277.39 235.887 264.003 237.065 262.506C236.894 256.712 236.718 250.914 236.547 245.119C239.63 244.618 242.749 244.128 245.901 243.659C252.552 242.668 259.084 241.804 265.49 241.042C267.904 250.163 275.88 256.969 285.589 257.617C285.61 257.617 285.63 257.617 285.65 257.617C285.671 257.617 285.691 257.617 285.712 257.621C295.425 258.221 304.204 252.496 307.772 243.757C314.027 245.331 320.396 247.032 326.863 248.862C329.93 249.731 332.959 250.616 335.952 251.509C335.039 257.234 334.122 262.959 333.208 268.684C334.778 274.307 336.348 279.926 337.918 285.549C332.348 295.853 326.782 306.158 321.212 316.462C321.701 322.872 322.696 330.293 324.592 338.408C326.721 347.513 329.481 355.367 332.209 361.826C320.2 366.124 299.302 371.804 273.238 369.704C254.444 368.191 239.369 363.143 229.171 358.78L229.167 358.788Z" fill="#DE4A65"/>
<path d="M282.644 335.693C278.974 335.489 276.731 333.45 277.75 327.945L296.303 331.004L330.352 360.567L330.963 362.402L321.177 365.256C312.886 364.576 299.076 363.584 294.672 363.421C290.268 363.258 289.847 359.275 289.983 358.12C289.847 357.508 290.024 355.551 291.818 352.615C289.534 351.637 289.643 349.489 289.983 348.538C290.391 347.858 291.655 346.05 293.449 344.256C291.002 343.848 289.983 342.013 290.391 339.771C290.717 337.976 291.614 336.712 292.022 336.305C290.119 336.169 285.579 335.856 282.644 335.693Z" fill="#DE4A65"/>
<path d="M327.335 362.488C317.895 362.488 310.217 354.867 310.159 345.415C310.102 335.931 317.744 328.195 327.233 328.138C334.491 328.093 341.737 327.339 348.828 325.887C342.279 309.091 333.137 293.539 321.61 279.606C315.562 272.299 316.586 261.468 323.897 255.425C331.204 249.378 342.035 250.402 348.078 257.713C363.092 275.863 374.746 296.292 382.713 318.437C385.629 326.536 384.972 335.535 380.915 343.119C376.874 350.671 369.795 356.184 361.489 358.239C350.373 360.992 338.915 362.423 327.437 362.492C327.404 362.492 327.367 362.492 327.331 362.492L327.335 362.488Z" fill="#FCDABA"/>
<path d="M235.441 279.432C244.926 279.432 252.616 271.742 252.616 262.257C252.616 252.771 244.926 245.082 235.441 245.082C225.955 245.082 218.266 252.771 218.266 262.257C218.266 271.742 225.955 279.432 235.441 279.432Z" fill="#DE4A65"/>
<path d="M334.854 285.833C344.339 285.833 352.029 278.144 352.029 268.658C352.029 259.172 344.339 251.483 334.854 251.483C325.368 251.483 317.679 259.172 317.679 268.658C317.679 278.144 325.368 285.833 334.854 285.833Z" fill="#85D46E"/>
<path d="M314.344 199.861L310.364 199.045L307.375 213.643L311.355 214.459C314.287 215.058 317.149 213.17 317.749 210.239L318.564 206.259C319.164 203.327 317.276 200.464 314.344 199.861Z" fill="#FCDABA"/>
<path d="M314.556 205.206C314.487 205.031 314.291 204.945 314.12 205.015L310.556 206.401C310.45 206.442 310.369 206.536 310.348 206.65C310.324 206.764 310.361 206.878 310.442 206.96L313.178 209.635C313.231 209.688 313.301 209.72 313.37 209.729C313.472 209.741 313.578 209.708 313.655 209.631C313.786 209.496 313.786 209.284 313.651 209.154L311.29 206.846L314.365 205.651C314.54 205.582 314.626 205.386 314.556 205.21V205.206Z" fill="#DCAC82"/>
<path d="M268.835 190.541C265.903 189.941 263.041 191.829 262.437 194.761L261.622 198.741C261.022 201.673 262.91 204.535 265.842 205.139L269.822 205.954L272.811 191.356L268.831 190.541H268.835Z" fill="#DCAC82"/>
<path d="M296.775 164.104L293.456 163.423C282.462 161.172 271.722 168.259 269.471 179.256L263.354 209.121C261.478 218.284 267.387 227.234 276.55 229.11L283.184 230.468C294.177 232.719 304.918 225.632 307.169 214.634L312.604 188.089C314.855 177.095 307.768 166.355 296.771 164.104H296.775Z" fill="#FCDABA"/>
<path d="M293.275 198.432C292.394 198.253 291.485 199.056 291.244 200.231C291.004 201.405 291.526 202.502 292.406 202.681C293.287 202.861 294.196 202.057 294.437 200.883C294.678 199.709 294.156 198.612 293.275 198.432Z" fill="#2C2044"/>
<path d="M273.824 194.411C272.943 194.232 272.034 195.035 271.793 196.21C271.552 197.384 272.074 198.481 272.955 198.66C273.836 198.84 274.745 198.036 274.986 196.862C275.226 195.688 274.704 194.591 273.824 194.411Z" fill="#2C2044"/>
<path d="M299.064 193.816C298.318 193.151 297.054 192.299 295.272 191.989C293.694 191.716 292.373 191.993 291.537 192.275C291.362 192.336 291.264 192.527 291.325 192.703C291.386 192.882 291.578 192.976 291.753 192.915C292.516 192.662 293.714 192.409 295.158 192.654C296.781 192.935 297.935 193.714 298.612 194.317C298.665 194.362 298.726 194.391 298.791 194.399C298.897 194.411 299.011 194.375 299.089 194.289C299.211 194.15 299.199 193.934 299.06 193.812L299.064 193.816Z" fill="#2C2044"/>
<path d="M277.331 189.347C276.83 188.784 275.969 188.051 274.738 187.745C273.331 187.398 272.12 187.757 271.345 188.12C271.178 188.197 271.105 188.401 271.182 188.568C271.26 188.74 271.464 188.813 271.631 188.731C272.304 188.418 273.364 188.099 274.571 188.401C275.639 188.666 276.385 189.306 276.822 189.796C276.879 189.857 276.952 189.898 277.03 189.906C277.123 189.918 277.221 189.89 277.299 189.824C277.437 189.698 277.45 189.486 277.327 189.347H277.331Z" fill="#2C2044"/>
<path d="M296.558 205.21C295.278 204.949 294.124 205.312 293.981 206.025C293.834 206.735 294.756 207.526 296.032 207.787C297.313 208.048 298.467 207.685 298.609 206.971C298.756 206.262 297.835 205.471 296.558 205.21Z" fill="#FBCCA1"/>
<path d="M267.774 199.316C266.494 199.055 265.34 199.417 265.197 200.131C265.05 200.841 265.972 201.632 267.248 201.893C268.524 202.154 269.682 201.791 269.825 201.077C269.972 200.368 269.05 199.576 267.774 199.316Z" fill="#FBCCA1"/>
<path d="M309.564 212.137C308.443 211.909 307.346 212.63 307.113 213.756C306.885 214.877 307.607 215.974 308.728 216.206C309.85 216.435 310.946 215.713 311.179 214.588C311.411 213.462 310.685 212.369 309.56 212.137H309.564Z" fill="#10CBB4"/>
<path d="M301.42 165.053L293.432 163.418C282.822 161.244 272.285 167.752 269.671 178.26C269.451 179.141 269.272 180.038 269.125 180.939C275.971 179.72 280.701 176.919 283.181 175.19C287.744 182.509 295.214 188.177 304.56 190.905C304.552 193.022 304.389 195.268 304.189 197.78L315.007 199.994L317.25 189.038C319.5 178.044 312.413 167.304 301.416 165.053H301.42Z" fill="#2C2044"/>
<path d="M279.608 211.35C280.493 211.529 281.386 211.652 282.279 211.705C285.619 211.909 286.863 213.067 286.178 215.048C285.456 217.144 283.629 219.497 278.165 218.384C272.701 217.258 271.951 214.38 272.11 212.165C272.261 210.074 273.863 209.499 277.011 210.624C277.855 210.926 278.724 211.166 279.608 211.35Z" fill="#6B222F"/>
<path d="M273.272 215.974C274.161 216.993 275.678 217.87 278.17 218.388C280.665 218.894 282.402 218.682 283.617 218.094C282.745 216.622 281.02 215.419 278.871 214.979C276.722 214.539 274.655 214.967 273.272 215.978V215.974Z" fill="#DE4A65"/>
<path d="M274.283 210.061L274.593 211.284C274.707 211.737 275.046 212.088 275.478 212.238C277.301 212.854 279.539 213.507 282.141 214.037C283.621 214.338 285.007 214.563 286.28 214.726C286.724 212.936 285.436 211.892 282.288 211.704C281.395 211.647 280.498 211.533 279.617 211.35C278.728 211.166 277.859 210.921 277.019 210.624C275.922 210.232 275.013 210.049 274.287 210.057L274.283 210.061Z" fill="white"/>
<path d="M219.711 352.481C241.086 354.679 260.194 339.131 262.388 317.756C264.585 296.381 249.037 277.273 227.662 275.079C206.287 272.881 187.179 288.429 184.985 309.805C182.788 331.18 198.336 350.288 219.711 352.481Z" fill="#FCDABA"/>
<path d="M230.821 261.933L250.585 285.669L196.785 341.883L157.068 342.76L155.331 263.592L230.825 261.937L230.821 261.933Z" fill="#FCDABA"/>
<path d="M262.583 312.92C262.559 306.596 262.041 296.924 259.329 285.555C255.749 270.566 251.015 264.021 247.137 252.098C244.698 244.607 242.305 234.099 242.256 220.419C242.24 214.669 237.599 210.021 231.854 210.102C226.541 210.18 222.124 214.302 221.774 219.603C221.117 229.614 221.427 239.869 222.826 250.267C219.556 253.619 212.803 261.517 210.666 273.493C206.752 295.472 221.839 311.828 223.686 313.764L262.591 312.912L262.579 312.92H262.583Z" fill="#FCDABA"/>
<path d="M251.493 340.985C246.229 342.367 231.766 345.454 223.859 337.735C221.156 335.097 219.932 331.896 218.901 307.764C217.779 281.553 218.864 276.786 220.364 272.619C223.786 263.167 229.437 256.675 233.242 252.969C231.162 251.272 228.275 248.031 225.139 244.275C225.139 244.275 221.861 239.451 221.559 235.545V235.488C221.702 238.448 221.922 241.527 222.22 244.687C222.403 246.587 222.603 248.443 222.827 250.261C218.297 253.25 185.044 275.812 184.762 309.302C184.718 314.966 184.612 326.991 193.085 337.756C202.855 350.164 216.931 352.137 218.888 352.378C237.299 354.629 249.907 342.543 251.493 340.969V340.989V340.985Z" fill="#DCAC82"/>
<mask id="mask15_721_27794" style="mask-type:luminance" maskUnits="userSpaceOnUse" x="134" y="174" width="92" height="189">
<path d="M222.981 174.401L134.688 175.588L137.205 362.899L225.499 361.712L222.981 174.401Z" fill="white"/>
</mask>
<g mask="url(#mask15_721_27794)">
<path d="M225.4 354.874L223.137 186.532C223.084 182.752 219.973 179.726 216.181 179.779L141.612 180.782C137.824 180.831 134.79 183.938 134.843 187.718L137.107 356.06C137.155 359.84 140.271 362.866 144.059 362.813L218.627 361.81C222.415 361.761 225.449 358.654 225.396 354.874H225.4Z" fill="#403556"/>
<path d="M225.332 349.597L223.069 181.255C223.016 177.475 219.904 174.45 216.112 174.503L141.544 175.506C137.756 175.555 134.722 178.662 134.775 182.442L137.038 350.784C137.087 354.564 140.202 357.59 143.991 357.537L218.559 356.534C222.347 356.481 225.381 353.377 225.328 349.597H225.332Z" fill="#2C2044"/>
<path d="M220.948 342.124L218.888 188.844C218.864 186.969 217.318 185.468 215.439 185.492L142.51 186.471C140.63 186.496 139.125 188.037 139.15 189.913L141.209 343.192C141.233 345.068 142.779 346.568 144.659 346.544L217.588 345.565C219.467 345.541 220.972 343.999 220.948 342.124Z" fill="#742384"/>
<path d="M170.629 271.883C170.38 271.757 170.097 271.691 169.779 271.685C169.556 271.678 169.33 271.706 169.098 271.76C168.866 271.816 168.652 271.903 168.456 272.021C168.258 272.138 168.097 272.289 167.969 272.474C167.84 272.658 167.771 272.876 167.756 273.13L168.945 273.122C168.97 273.004 169.015 272.902 169.08 272.816C169.146 272.73 169.228 272.663 169.327 272.618C169.427 272.572 169.54 272.55 169.667 272.553C169.807 272.559 169.917 272.594 169.994 272.656C170.072 272.719 170.122 272.804 170.148 272.911C170.173 273.019 170.18 273.134 170.165 273.258L170.118 273.555L169.541 273.551C169.289 273.551 169.034 273.576 168.776 273.625C168.52 273.674 168.282 273.756 168.064 273.872C167.846 273.986 167.668 274.143 167.531 274.342C167.393 274.54 167.318 274.788 167.307 275.086C167.296 275.349 167.351 275.581 167.473 275.779C167.595 275.977 167.761 276.133 167.97 276.247C168.179 276.36 168.409 276.42 168.659 276.425C168.839 276.428 169.008 276.403 169.165 276.352C169.322 276.3 169.466 276.226 169.599 276.128C169.674 276.072 169.743 276.011 169.809 275.944C169.818 276.078 169.841 276.207 169.88 276.334L171.043 276.33L171.051 276.255C170.987 276.095 170.961 275.925 170.976 275.747C170.991 275.569 171.01 275.398 171.036 275.234L171.353 273.278C171.387 272.944 171.336 272.659 171.203 272.424C171.069 272.19 170.878 272.008 170.629 271.883ZM169.743 275.196C169.642 275.304 169.522 275.386 169.384 275.443C169.247 275.5 169.106 275.528 168.963 275.525C168.862 275.522 168.776 275.498 168.704 275.453C168.633 275.408 168.58 275.346 168.546 275.269C168.511 275.191 168.502 275.104 168.516 275.005C168.533 274.868 168.574 274.75 168.64 274.655C168.707 274.559 168.79 274.481 168.891 274.42C168.992 274.36 169.102 274.315 169.221 274.285C169.339 274.255 169.461 274.239 169.581 274.236L170.009 274.239L169.895 274.973C169.855 275.053 169.806 275.128 169.742 275.195L169.743 275.196Z" fill="white"/>
<path d="M171.802 276.333H172.986L174.111 269.856H172.922L171.802 276.333Z" fill="white"/>
<path d="M178.943 275.33C178.753 275.424 178.546 275.468 178.321 275.462C178.145 275.457 177.996 275.417 177.88 275.345C177.764 275.273 177.671 275.177 177.606 275.058C177.54 274.94 177.495 274.807 177.474 274.66C177.461 274.582 177.456 274.505 177.455 274.426H180.26L180.327 273.92C180.357 273.629 180.348 273.352 180.297 273.086C180.247 272.82 180.153 272.584 180.015 272.375C179.877 272.168 179.696 272.002 179.471 271.879C179.246 271.756 178.974 271.691 178.656 271.685C178.315 271.676 178.007 271.734 177.73 271.86C177.453 271.985 177.214 272.157 177.011 272.378C176.809 272.599 176.647 272.853 176.527 273.139C176.406 273.427 176.329 273.728 176.295 274.046L176.279 274.22C176.257 274.522 176.284 274.807 176.363 275.072C176.442 275.335 176.565 275.569 176.733 275.768C176.899 275.968 177.108 276.124 177.359 276.238C177.61 276.352 177.891 276.412 178.202 276.417H178.203C178.424 276.42 178.648 276.393 178.873 276.335C179.098 276.278 179.308 276.188 179.503 276.065C179.698 275.942 179.859 275.786 179.986 275.595L179.454 274.953C179.302 275.112 179.132 275.237 178.941 275.331L178.943 275.33ZM177.77 273.098C177.853 272.955 177.962 272.841 178.094 272.752C178.227 272.665 178.39 272.624 178.583 272.629C178.752 272.635 178.887 272.678 178.988 272.76C179.089 272.841 179.158 272.95 179.194 273.082C179.229 273.216 179.237 273.359 179.214 273.514L179.194 273.619L177.564 273.617C177.568 273.599 177.572 273.581 177.576 273.563C177.62 273.397 177.685 273.242 177.77 273.098Z" fill="white"/>
<path d="M183.739 271.771L182.769 273.15L182.263 271.771V271.77H181.049L181.935 273.947L180.223 276.332H181.546L182.568 274.874L183.136 276.332H184.342L183.419 274.056L185.058 271.771H183.739Z" fill="white"/>
<path d="M187.231 270.645H186.046L185.856 271.77H185.212L185.06 272.629H185.712L185.3 275.079C185.275 275.34 185.3 275.57 185.373 275.768C185.448 275.966 185.571 276.121 185.744 276.233C185.918 276.346 186.139 276.405 186.409 276.411C186.527 276.411 186.643 276.402 186.756 276.387C186.871 276.372 186.983 276.348 187.096 276.314L187.181 275.408C187.119 275.417 187.059 275.424 186.999 275.431C186.939 275.438 186.882 275.441 186.822 275.438C186.714 275.432 186.636 275.412 186.586 275.375C186.535 275.338 186.504 275.287 186.492 275.217C186.48 275.147 186.48 275.064 186.49 274.966L186.892 272.631H187.646L187.799 271.771H187.04L187.234 270.646L187.231 270.645Z" fill="white"/>
<path d="M191.61 272.375C191.472 272.168 191.29 272.002 191.065 271.879C190.84 271.756 190.569 271.691 190.251 271.685C189.91 271.676 189.602 271.734 189.325 271.86C189.048 271.985 188.809 272.157 188.606 272.378C188.404 272.599 188.242 272.853 188.122 273.139C188 273.427 187.924 273.728 187.89 274.046L187.873 274.22C187.852 274.522 187.879 274.807 187.958 275.072C188.037 275.335 188.16 275.569 188.328 275.768C188.494 275.968 188.703 276.124 188.954 276.238C189.205 276.352 189.486 276.412 189.797 276.417H189.798C190.019 276.42 190.243 276.393 190.468 276.335C190.693 276.278 190.903 276.188 191.098 276.065C191.293 275.942 191.454 275.786 191.581 275.595L191.049 274.953C190.896 275.112 190.727 275.237 190.536 275.331C190.347 275.425 190.139 275.469 189.914 275.464C189.738 275.458 189.589 275.419 189.474 275.346C189.358 275.274 189.265 275.179 189.199 275.06C189.134 274.941 189.089 274.809 189.067 274.662C189.055 274.584 189.049 274.506 189.048 274.427H191.854L191.921 273.921C191.951 273.63 191.941 273.353 191.891 273.087C191.84 272.821 191.746 272.585 191.608 272.377L191.61 272.375ZM190.808 273.516L190.787 273.621L189.157 273.618C189.161 273.6 189.165 273.583 189.169 273.565C189.213 273.398 189.278 273.243 189.363 273.1C189.446 272.956 189.555 272.842 189.688 272.753C189.82 272.666 189.982 272.625 190.176 272.63C190.345 272.636 190.48 272.68 190.581 272.761C190.682 272.842 190.752 272.951 190.787 273.083C190.823 273.217 190.831 273.36 190.808 273.516Z" fill="white"/>
<path d="M195.451 271.73C195.38 271.713 195.312 271.7 195.246 271.687C195.181 271.675 195.112 271.671 195.042 271.671C194.771 271.668 194.542 271.732 194.357 271.863C194.235 271.949 194.129 272.053 194.035 272.172L194.079 271.769H192.965L192.173 276.331H193.357L193.868 273.377C193.933 273.26 194.01 273.159 194.103 273.077C194.2 272.991 194.314 272.926 194.447 272.881C194.579 272.836 194.726 272.815 194.89 272.818C194.961 272.821 195.031 272.826 195.099 272.835C195.167 272.844 195.235 272.854 195.303 272.865L195.451 271.731V271.73Z" fill="white"/>
<path d="M195.294 276.333H196.478L197.27 271.771H196.086L195.294 276.333Z" fill="white"/>
<path d="M196.873 269.966C196.687 269.969 196.529 270.029 196.398 270.144C196.267 270.26 196.206 270.412 196.211 270.603C196.214 270.789 196.281 270.935 196.412 271.043C196.543 271.149 196.697 271.201 196.874 271.198C197.057 271.194 197.214 271.135 197.346 271.021C197.479 270.906 197.541 270.752 197.536 270.561C197.536 270.38 197.47 270.234 197.338 270.125C197.206 270.015 197.052 269.964 196.874 269.966H196.873Z" fill="white"/>
<path d="M201.467 272.393C201.314 272.179 201.118 272.01 200.879 271.883C200.639 271.757 200.355 271.69 200.027 271.685C199.68 271.677 199.369 271.734 199.092 271.857C198.815 271.98 198.575 272.149 198.372 272.367C198.169 272.585 198.005 272.836 197.882 273.121C197.76 273.406 197.682 273.712 197.648 274.035L197.636 274.124V274.121C197.61 274.425 197.627 274.713 197.69 274.986C197.753 275.259 197.858 275.502 198.011 275.713C198.162 275.926 198.358 276.094 198.6 276.219C198.841 276.345 199.124 276.41 199.447 276.415C199.788 276.425 200.096 276.368 200.375 276.248C200.653 276.126 200.893 275.96 201.098 275.744C201.302 275.529 201.466 275.279 201.591 274.998C201.717 274.716 201.797 274.414 201.834 274.094L201.842 274.001C201.871 273.695 201.853 273.404 201.79 273.128C201.728 272.853 201.619 272.607 201.466 272.394L201.467 272.393ZM200.654 274L200.646 274.088C200.63 274.247 200.596 274.406 200.545 274.571C200.495 274.736 200.426 274.888 200.339 275.027C200.252 275.166 200.141 275.278 200.006 275.36C199.873 275.443 199.71 275.481 199.522 275.476C199.346 275.47 199.206 275.422 199.105 275.334C199.004 275.245 198.931 275.132 198.888 274.994C198.844 274.856 198.82 274.71 198.814 274.558C198.809 274.405 198.813 274.26 198.826 274.125L198.835 274.032C198.852 273.874 198.884 273.713 198.934 273.547C198.983 273.38 199.051 273.228 199.139 273.087C199.226 272.947 199.337 272.833 199.472 272.747C199.607 272.662 199.768 272.622 199.956 272.627C200.132 272.634 200.272 272.682 200.373 272.773C200.474 272.865 200.546 272.981 200.592 273.12C200.637 273.259 200.662 273.408 200.665 273.563C200.669 273.719 200.665 273.865 200.654 274Z" fill="white"/>
<path d="M205.434 271.73C205.363 271.713 205.294 271.7 205.229 271.687C205.163 271.675 205.095 271.671 205.024 271.671C204.754 271.668 204.525 271.732 204.338 271.863C204.217 271.949 204.11 272.053 204.016 272.172L204.06 271.769H202.947L202.154 276.331H203.338L203.85 273.377C203.914 273.26 203.992 273.159 204.085 273.077C204.181 272.991 204.296 272.926 204.428 272.881C204.561 272.836 204.708 272.815 204.872 272.818C204.941 272.821 205.012 272.826 205.08 272.835C205.148 272.843 205.217 272.854 205.285 272.865L205.432 271.731L205.434 271.73Z" fill="white"/>
<path d="M178.767 265.316C178.721 265.503 178.69 265.637 178.673 265.691C178.376 267.058 178.447 267.597 179.509 267.472C180.658 267.331 180.798 266.738 181.172 265.316C181.195 265.214 181.227 265.097 181.266 264.956C185.132 264.432 188.928 264.105 194.153 263.675C194.364 263.658 194.548 263.639 194.708 263.615C194.777 263.608 194.846 263.603 194.918 263.596C196.461 263.453 196.446 263.183 196.588 262.225C196.751 261.135 195.54 261.137 195.176 261.148H195.002C192.658 261.209 191.006 261.221 188.47 261.497C186.305 261.678 184.112 261.918 182.008 262.183C182.469 260.535 182.922 258.919 182.922 258.919C182.922 258.919 183.39 259.927 184.71 259.825C186.585 259.676 188.866 257.856 189.974 254.513C191.146 250.959 191.044 246.93 188.647 246.585C186.71 246.311 185.788 248.022 185.656 248.365C185.656 248.365 186.071 246.81 184.835 247.084C183.656 247.342 183.445 247.864 183.147 248.81C183.093 248.973 182.101 252.669 181.063 256.558C181.048 256.581 181.032 256.612 181.025 256.643C180.767 257.526 180.26 257.815 179.893 257.838C178.706 257.916 181.259 250.084 181.454 249.481C181.712 248.7 181.861 248.106 180.993 247.778C180.408 247.56 179.61 247.638 179.377 248.263C179.275 248.529 179.205 248.715 179.205 248.715C179.205 248.715 178.541 247.724 177.065 247.856C175.589 247.988 173.723 249.785 172.495 252.94C171.262 256.088 170.73 260.61 173.651 261.062C175.135 261.288 176.384 260.445 177.032 259.047C177.032 259.047 176.915 259.984 177.9 260.445C178.283 260.624 179.235 260.554 180.141 260.047C179.906 260.938 179.68 261.772 179.485 262.523C173.175 263.397 168.198 264.374 168.198 264.374C168.198 264.374 171.659 252.666 172.439 250.097C173.095 247.942 171.861 248.41 170.955 248.676C169.987 248.957 169.526 249.77 169.041 251.254C166.924 257.729 165.253 259.744 164.043 259.306C162.934 258.908 166.425 252.036 165.59 251.13C164.865 250.341 163.372 250.388 163.083 250.849C162.802 251.31 163.224 251.74 163.037 252.396C162.858 253.052 161.458 256.605 161.311 257.402C161.162 258.199 159.952 262.611 163.162 262.416C165.06 262.307 166.357 260.869 166.497 260.471C165.904 262.182 165.06 264.955 165.06 264.955C165.06 264.955 161.177 265.923 158.085 269.164C155.624 271.734 153.891 277.271 157.561 278.154C163.262 279.529 165.965 270.819 167.347 267.54C171.971 266.509 175.5 265.829 178.766 265.314L178.767 265.316ZM184.461 253.671V253.663C185.241 251.109 185.96 250.093 186.632 249.804C188.241 249.117 188.546 251.131 187.304 254.2C185.866 257.746 184.187 257.668 183.547 256.965C183.547 256.965 183.633 256.357 184.461 253.67V253.671ZM177.275 255.202C176.587 256.864 175.94 258.036 175.049 258.044C173.776 258.053 173.806 256.139 174.713 253.726C175.478 251.703 176.868 250.422 177.619 250.281C178.369 250.141 179.243 250.453 177.275 255.202ZM160.419 274.577C157.388 277.287 158.153 273.578 159.279 271.977C161.419 268.939 164.067 268.166 164.067 268.166C162.723 272.094 161.044 274.023 160.419 274.577Z" fill="white"/>
<path d="M193.832 259.023C195.691 258.945 197.299 257.601 197.886 256.601C198.167 256.117 198.284 255.36 198.23 255.023C198.089 254.078 197.511 253.937 196.527 255.179C196.284 255.452 194.349 257.178 193.395 256.155C192.708 255.413 193.286 253.961 193.318 253.961C194.559 253.867 196.73 253.367 198.456 251.376H198.449C199.598 250.048 200.12 247.222 198.2 246.183C195.872 244.925 192.841 246.847 191.585 250.986C190.468 254.663 190.055 259.195 193.834 259.021L193.832 259.023ZM195.666 248.151V248.159C196.713 247.182 197.704 248.354 196.503 250.027C195.284 251.722 193.855 251.674 193.848 251.729C193.997 251.065 194.527 249.222 195.668 248.151H195.666Z" fill="white"/>
<path d="M170.03 182.602L187.813 182.361C188.844 182.349 189.672 181.501 189.656 180.469V180.241C189.64 179.209 188.791 178.385 187.76 178.402L169.977 178.642C168.945 178.654 168.118 179.503 168.134 180.534V180.763C168.15 181.794 168.998 182.618 170.03 182.602Z" fill="#544A69"/>
</g>
<path d="M148.249 252.627V252.619C150.059 247.184 147.115 241.312 141.675 239.505L131.93 236.268C126.494 234.461 120.622 237.405 118.816 242.841V242.849C117.006 248.285 119.95 254.156 125.389 255.963L135.135 259.2C140.57 261.007 146.442 258.063 148.249 252.627Z" fill="#FCDABA"/>
<path d="M149.24 278.961V278.953C150.153 273.297 146.308 267.972 140.652 267.058L128.534 265.101C122.878 264.188 117.553 268.033 116.639 273.689V273.697C115.726 279.352 119.571 284.678 125.227 285.591L137.345 287.549C143.001 288.462 148.327 284.617 149.24 278.961Z" fill="#FCDABA"/>
<path d="M148.054 305.297V305.289C148.458 299.572 144.152 294.613 138.435 294.21L126.565 293.374C120.848 292.97 115.89 297.28 115.49 302.993V303.001C115.086 308.718 119.392 313.677 125.109 314.076L136.979 314.912C142.696 315.316 147.655 311.006 148.054 305.293V305.297Z" fill="#FCDABA"/>
<path d="M150.616 333.442V333.434C151.02 327.717 146.714 322.759 140.997 322.355L130.705 321.633C124.988 321.229 120.029 325.54 119.63 331.252V331.26C119.226 336.973 123.532 341.936 129.249 342.335L139.541 343.057C145.258 343.461 150.216 339.155 150.616 333.438V333.442Z" fill="#FCDABA"/>
<path d="M337.324 307.746C342.266 306.078 349.316 303.065 356.615 297.523C363.066 292.626 367.507 287.419 370.386 283.464C366.479 277.889 361.778 271.936 356.134 265.922C353.626 263.251 351.131 260.78 348.684 258.496C339.456 265.273 330.229 272.05 321.001 278.823C326.441 288.463 331.884 298.102 337.324 307.742V307.746Z" fill="#DE4A65"/>
<path d="M334.846 285.837C344.332 285.837 352.021 278.147 352.021 268.662C352.021 259.176 344.332 251.487 334.846 251.487C325.36 251.487 317.671 259.176 317.671 268.662C317.671 278.147 325.36 285.837 334.846 285.837Z" fill="#DE4A65"/>
<path d="M348.828 325.887C350.231 325.675 351.862 325.524 353.676 325.528C355.972 325.528 357.987 325.781 359.646 326.095C358.284 324.647 357.155 323.599 353.676 322.029C351.193 320.908 348.335 320.814 346.663 320.602C347.597 322.853 347.894 323.636 348.828 325.887Z" fill="#DCAC82"/>
<path d="M331.37 297.156L322.603 282.068C325.936 295.544 325.503 301.351 323.826 311.02L331.37 297.156Z" fill="#DE4A65"/>
<path d="M327.003 362.628C336.646 362.628 344.463 354.81 344.463 345.167C344.463 335.524 336.646 327.707 327.003 327.707C317.359 327.707 309.542 335.524 309.542 345.167C309.542 354.81 317.359 362.628 327.003 362.628Z" fill="#FCDABA"/>
<path d="M299.382 360.525L325.648 362.574L328.365 327.75L302.099 325.702L299.382 360.525Z" fill="#FCDABA"/>
<path d="M312.782 326.54L282.684 324.192C280.279 324.004 278.179 325.802 277.991 328.204C277.803 330.606 279.602 332.71 282.003 332.897L312.101 335.246L312.778 326.54H312.782Z" fill="#FCDABA"/>
<path d="M312.111 335.245L294.969 333.907C292.563 333.72 290.463 335.518 290.275 337.92C290.088 340.326 291.886 342.426 294.288 342.613L311.43 343.951L312.107 335.245H312.111Z" fill="#FCDABA"/>
<path d="M311.422 343.953L294.279 342.615C291.873 342.428 289.773 344.226 289.586 346.628C289.398 349.034 291.196 351.134 293.598 351.321L310.741 352.659L311.417 343.953H311.422Z" fill="#FCDABA"/>
<path d="M310.748 352.658L293.605 351.32C291.199 351.133 289.099 352.931 288.912 355.333C288.724 357.738 290.523 359.838 292.924 360.026L310.067 361.363L310.744 352.658H310.748Z" fill="#FCDABA"/>
<path d="M302.974 329.362L309.715 320.163C311.603 317.586 315.264 317.113 317.744 319.127L328.366 327.751L324.455 334.149L302.701 332.869L302.974 329.362Z" fill="#FCDABA"/>
<path d="M388.223 369.258L386.976 365.914C386.248 366.515 385.353 366.854 384.403 366.891L385.645 370.223C385.727 370.444 385.971 370.555 386.191 370.473L387.974 369.805C388.194 369.723 388.304 369.478 388.223 369.258Z" fill="#F5F5F5"/>
<path d="M383.959 358.5C381.317 358.502 380 358.321 380 362.476C380.002 364.465 380.068 365.457 380.599 365.953L381.795 362.536C381.877 362.301 382.046 362.113 382.27 362.005C382.494 361.896 382.747 361.882 382.982 361.965L384.855 362.624C385.089 362.707 385.279 362.876 385.386 363.101C385.494 363.325 385.507 363.579 385.425 363.813L384.519 366.4C386.445 366.128 387.927 364.473 387.925 362.467C387.923 360.274 386.147 358.498 383.959 358.5Z" fill="#F5F5F5"/>
<path d="M384.673 363.143L382.8 362.484C382.6 362.413 382.382 362.519 382.311 362.719L380.022 369.26C379.951 369.46 380.057 369.679 380.257 369.75L382.13 370.409C382.33 370.48 382.548 370.374 382.619 370.173L384.908 363.632C384.978 363.432 384.873 363.213 384.673 363.143Z" fill="#F5F5F5"/>
<path d="M393.675 368.25V360.614H396.255C396.854 360.614 397.344 360.722 397.724 360.938C398.107 361.152 398.39 361.441 398.574 361.807C398.758 362.172 398.85 362.58 398.85 363.03C398.85 363.48 398.758 363.889 398.574 364.257C398.393 364.624 398.112 364.918 397.732 365.137C397.351 365.353 396.864 365.461 396.27 365.461H394.421V364.641H396.24C396.65 364.641 396.98 364.57 397.228 364.428C397.477 364.286 397.657 364.095 397.769 363.854C397.883 363.61 397.94 363.336 397.94 363.03C397.94 362.724 397.883 362.451 397.769 362.21C397.657 361.968 397.476 361.779 397.224 361.643C396.973 361.504 396.64 361.434 396.225 361.434H394.599V368.25H393.675ZM402.486 368.369C401.969 368.369 401.515 368.246 401.125 368C400.737 367.754 400.434 367.41 400.215 366.967C399.999 366.525 399.891 366.008 399.891 365.416C399.891 364.82 399.999 364.299 400.215 363.854C400.434 363.409 400.737 363.063 401.125 362.817C401.515 362.571 401.969 362.448 402.486 362.448C403.003 362.448 403.455 362.571 403.843 362.817C404.233 363.063 404.536 363.409 404.753 363.854C404.971 364.299 405.081 364.82 405.081 365.416C405.081 366.008 404.971 366.525 404.753 366.967C404.536 367.41 404.233 367.754 403.843 368C403.455 368.246 403.003 368.369 402.486 368.369ZM402.486 367.579C402.878 367.579 403.202 367.478 403.455 367.277C403.709 367.075 403.896 366.811 404.018 366.483C404.14 366.155 404.201 365.799 404.201 365.416C404.201 365.033 404.14 364.677 404.018 364.346C403.896 364.015 403.709 363.748 403.455 363.544C403.202 363.341 402.878 363.239 402.486 363.239C402.093 363.239 401.77 363.341 401.516 363.544C401.263 363.748 401.075 364.015 400.953 364.346C400.831 364.677 400.77 365.033 400.77 365.416C400.77 365.799 400.831 366.155 400.953 366.483C401.075 366.811 401.263 367.075 401.516 367.277C401.77 367.478 402.093 367.579 402.486 367.579ZM407.527 368.25L405.782 362.523H406.707L407.944 366.908H408.004L409.227 362.523H410.167L411.375 366.893H411.435L412.672 362.523H413.597L411.852 368.25H410.987L409.734 363.85H409.645L408.392 368.25H407.527ZM416.967 368.369C416.415 368.369 415.939 368.248 415.539 368.004C415.141 367.758 414.834 367.415 414.618 366.975C414.404 366.532 414.297 366.018 414.297 365.431C414.297 364.844 414.404 364.327 414.618 363.88C414.834 363.43 415.135 363.08 415.52 362.828C415.908 362.575 416.36 362.448 416.877 362.448C417.176 362.448 417.47 362.498 417.761 362.597C418.052 362.697 418.317 362.858 418.555 363.082C418.794 363.303 418.984 363.597 419.126 363.962C419.268 364.327 419.338 364.777 419.338 365.312V365.685H414.924V364.924H418.444C418.444 364.601 418.379 364.312 418.25 364.059C418.123 363.805 417.941 363.605 417.705 363.459C417.472 363.312 417.196 363.239 416.877 363.239C416.527 363.239 416.224 363.326 415.968 363.5C415.714 363.671 415.519 363.895 415.382 364.171C415.246 364.447 415.177 364.743 415.177 365.058V365.565C415.177 365.998 415.252 366.364 415.401 366.665C415.553 366.964 415.763 367.191 416.031 367.348C416.3 367.502 416.612 367.579 416.967 367.579C417.198 367.579 417.407 367.546 417.593 367.482C417.782 367.415 417.945 367.315 418.082 367.184C418.219 367.049 418.324 366.883 418.399 366.684L419.249 366.923C419.159 367.211 419.009 367.465 418.798 367.683C418.587 367.9 418.326 368.068 418.015 368.19C417.704 368.31 417.355 368.369 416.967 368.369ZM420.677 368.25V362.523H421.527V363.388H421.587C421.691 363.104 421.88 362.874 422.154 362.698C422.427 362.521 422.735 362.433 423.078 362.433C423.143 362.433 423.224 362.434 423.321 362.437C423.418 362.439 423.491 362.443 423.541 362.448V363.343C423.511 363.336 423.442 363.324 423.336 363.309C423.231 363.292 423.121 363.283 423.004 363.283C422.725 363.283 422.477 363.342 422.258 363.459C422.042 363.573 421.87 363.732 421.743 363.936C421.619 364.137 421.557 364.367 421.557 364.626V368.25H420.677ZM426.811 368.369C426.259 368.369 425.783 368.248 425.383 368.004C424.985 367.758 424.678 367.415 424.462 366.975C424.248 366.532 424.141 366.018 424.141 365.431C424.141 364.844 424.248 364.327 424.462 363.88C424.678 363.43 424.979 363.08 425.364 362.828C425.752 362.575 426.204 362.448 426.721 362.448C427.02 362.448 427.314 362.498 427.605 362.597C427.896 362.697 428.161 362.858 428.399 363.082C428.638 363.303 428.828 363.597 428.97 363.962C429.111 364.327 429.182 364.777 429.182 365.312V365.685H424.767V364.924H428.287C428.287 364.601 428.223 364.312 428.093 364.059C427.967 363.805 427.785 363.605 427.549 363.459C427.315 363.312 427.039 363.239 426.721 363.239C426.371 363.239 426.067 363.326 425.811 363.5C425.558 363.671 425.363 363.895 425.226 364.171C425.089 364.447 425.021 364.743 425.021 365.058V365.565C425.021 365.998 425.096 366.364 425.245 366.665C425.396 366.964 425.606 367.191 425.875 367.348C426.143 367.502 426.455 367.579 426.811 367.579C427.042 367.579 427.251 367.546 427.437 367.482C427.626 367.415 427.789 367.315 427.926 367.184C428.062 367.049 428.168 366.883 428.243 366.684L429.093 366.923C429.003 367.211 428.853 367.465 428.642 367.683C428.43 367.9 428.169 368.068 427.859 368.19C427.548 368.31 427.199 368.369 426.811 368.369ZM432.683 368.369C432.206 368.369 431.785 368.249 431.419 368.008C431.054 367.764 430.768 367.421 430.562 366.979C430.356 366.534 430.252 366.008 430.252 365.401C430.252 364.8 430.356 364.278 430.562 363.835C430.768 363.393 431.055 363.051 431.423 362.81C431.791 362.569 432.216 362.448 432.698 362.448C433.071 362.448 433.366 362.51 433.582 362.635C433.801 362.756 433.967 362.896 434.082 363.052C434.199 363.206 434.289 363.333 434.354 363.433H434.428V360.614H435.308V368.25H434.458V367.37H434.354C434.289 367.474 434.197 367.606 434.078 367.765C433.959 367.922 433.788 368.062 433.567 368.187C433.346 368.308 433.051 368.369 432.683 368.369ZM432.803 367.579C433.156 367.579 433.454 367.487 433.698 367.303C433.941 367.116 434.126 366.859 434.253 366.531C434.38 366.2 434.443 365.819 434.443 365.386C434.443 364.959 434.381 364.585 434.257 364.264C434.133 363.941 433.949 363.69 433.705 363.511C433.461 363.329 433.161 363.239 432.803 363.239C432.43 363.239 432.119 363.334 431.871 363.526C431.625 363.715 431.439 363.972 431.315 364.298C431.193 364.621 431.132 364.984 431.132 365.386C431.132 365.794 431.194 366.164 431.319 366.498C431.445 366.828 431.632 367.092 431.878 367.288C432.127 367.482 432.435 367.579 432.803 367.579ZM440.115 368.25V360.614H440.995V363.433H441.069C441.134 363.333 441.223 363.206 441.338 363.052C441.455 362.896 441.621 362.756 441.837 362.635C442.056 362.51 442.352 362.448 442.725 362.448C443.207 362.448 443.632 362.569 444 362.81C444.368 363.051 444.655 363.393 444.861 363.835C445.068 364.278 445.171 364.8 445.171 365.401C445.171 366.008 445.068 366.534 444.861 366.979C444.655 367.421 444.369 367.764 444.004 368.008C443.638 368.249 443.217 368.369 442.74 368.369C442.372 368.369 442.077 368.308 441.856 368.187C441.635 368.062 441.465 367.922 441.345 367.765C441.226 367.606 441.134 367.474 441.069 367.37H440.965V368.25H440.115ZM440.98 365.386C440.98 365.819 441.043 366.2 441.17 366.531C441.297 366.859 441.482 367.116 441.726 367.303C441.969 367.487 442.267 367.579 442.62 367.579C442.988 367.579 443.295 367.482 443.541 367.288C443.79 367.092 443.976 366.828 444.101 366.498C444.227 366.164 444.291 365.794 444.291 365.386C444.291 364.984 444.229 364.621 444.104 364.298C443.983 363.972 443.797 363.715 443.549 363.526C443.303 363.334 442.993 363.239 442.62 363.239C442.262 363.239 441.962 363.329 441.718 363.511C441.474 363.69 441.291 363.941 441.166 364.264C441.042 364.585 440.98 364.959 440.98 365.386ZM446.879 370.398C446.729 370.398 446.596 370.385 446.48 370.36C446.363 370.338 446.282 370.316 446.237 370.293L446.461 369.518C446.675 369.572 446.864 369.592 447.028 369.577C447.192 369.562 447.337 369.489 447.464 369.357C447.593 369.228 447.711 369.018 447.818 368.727L447.982 368.28L445.864 362.523H446.819L448.4 367.087H448.46L450.041 362.523H450.995L448.564 369.085C448.455 369.381 448.319 369.626 448.158 369.82C447.996 370.016 447.808 370.162 447.594 370.256C447.383 370.351 447.145 370.398 446.879 370.398ZM456.929 364.432C456.929 364.024 457.029 363.653 457.228 363.317C457.426 362.981 457.693 362.714 458.029 362.515C458.365 362.316 458.737 362.217 459.144 362.217C459.497 362.217 459.823 362.293 460.121 362.444C460.422 362.596 460.67 362.804 460.867 363.067C461.063 363.328 461.185 363.624 461.232 363.955H460.33C460.28 363.699 460.142 363.49 459.916 363.328C459.69 363.164 459.433 363.082 459.144 363.082C458.896 363.082 458.669 363.143 458.466 363.265C458.262 363.387 458.099 363.549 457.977 363.753C457.855 363.957 457.795 364.183 457.795 364.432C457.795 364.68 457.855 364.907 457.977 365.11C458.099 365.314 458.262 365.477 458.466 365.599C458.669 365.721 458.896 365.782 459.144 365.782C459.433 365.782 459.676 365.701 459.875 365.539C460.076 365.375 460.203 365.165 460.255 364.909H461.158C461.11 365.24 460.995 365.537 460.811 365.8C460.627 366.061 460.391 366.268 460.102 366.419C459.817 366.571 459.497 366.647 459.144 366.647C458.737 366.647 458.365 366.547 458.029 366.348C457.693 366.149 457.426 365.882 457.228 365.547C457.029 365.211 456.929 364.84 456.929 364.432ZM459.107 368.369C458.565 368.369 458.056 368.267 457.578 368.064C457.103 367.86 456.685 367.578 456.322 367.217C455.961 366.854 455.677 366.435 455.471 365.961C455.268 365.486 455.167 364.976 455.17 364.432C455.172 363.887 455.275 363.378 455.479 362.903C455.685 362.428 455.968 362.011 456.329 361.65C456.689 361.287 457.107 361.004 457.582 360.8C458.056 360.596 458.565 360.494 459.107 360.494C459.652 360.494 460.161 360.596 460.636 360.8C461.113 361.004 461.53 361.287 461.888 361.65C462.249 362.011 462.531 362.428 462.735 362.903C462.939 363.378 463.042 363.887 463.045 364.432C463.047 364.976 462.946 365.486 462.742 365.961C462.538 366.435 462.256 366.854 461.896 367.217C461.536 367.578 461.116 367.86 460.639 368.064C460.162 368.267 459.652 368.369 459.107 368.369ZM459.107 367.504C459.532 367.504 459.931 367.425 460.304 367.266C460.677 367.107 461.004 366.887 461.284 366.606C461.566 366.325 461.785 365.999 461.944 365.629C462.103 365.256 462.182 364.858 462.179 364.436C462.177 364.01 462.096 363.612 461.937 363.239C461.778 362.866 461.558 362.539 461.277 362.258C460.996 361.977 460.67 361.757 460.3 361.598C459.93 361.439 459.532 361.359 459.107 361.359C458.684 361.359 458.288 361.439 457.918 361.598C457.547 361.757 457.222 361.978 456.94 362.262C456.66 362.543 456.439 362.869 456.277 363.242C456.118 363.613 456.037 364.01 456.034 364.436C456.032 364.856 456.11 365.252 456.269 365.625C456.428 365.995 456.649 366.321 456.929 366.602C457.213 366.883 457.54 367.104 457.91 367.266C458.283 367.425 458.682 367.504 459.107 367.504ZM464.837 368.25V360.614H467.417C468.014 360.614 468.503 360.716 468.886 360.919C469.269 361.121 469.552 361.398 469.736 361.751C469.921 362.104 470.012 362.505 470.012 362.955C470.012 363.405 469.921 363.804 469.736 364.152C469.552 364.5 469.27 364.774 468.89 364.972C468.51 365.169 468.024 365.267 467.432 365.267H465.344V364.432H467.402C467.81 364.432 468.138 364.372 468.387 364.253C468.637 364.134 468.819 363.964 468.931 363.746C469.045 363.525 469.102 363.261 469.102 362.955C469.102 362.65 469.045 362.382 468.931 362.154C468.817 361.925 468.634 361.748 468.383 361.624C468.132 361.497 467.8 361.434 467.387 361.434H465.762V368.25H464.837ZM468.431 364.82L470.311 368.25H469.237L467.387 364.82H468.431ZM473.773 368.369C473.222 368.369 472.746 368.248 472.345 368.004C471.948 367.758 471.641 367.415 471.424 366.975C471.211 366.532 471.104 366.018 471.104 365.431C471.104 364.844 471.211 364.327 471.424 363.88C471.641 363.43 471.942 363.08 472.327 362.828C472.714 362.575 473.167 362.448 473.684 362.448C473.983 362.448 474.277 362.498 474.568 362.597C474.859 362.697 475.123 362.858 475.362 363.082C475.601 363.303 475.791 363.597 475.933 363.962C476.074 364.327 476.145 364.777 476.145 365.312V365.685H471.73V364.924H475.25C475.25 364.601 475.186 364.312 475.057 364.059C474.93 363.805 474.748 363.605 474.512 363.459C474.278 363.312 474.002 363.239 473.684 363.239C473.334 363.239 473.03 363.326 472.774 363.5C472.521 363.671 472.326 363.895 472.189 364.171C472.052 364.447 471.984 364.743 471.984 365.058V365.565C471.984 365.998 472.058 366.364 472.207 366.665C472.36 366.964 472.57 367.191 472.838 367.348C473.107 367.502 473.418 367.579 473.773 367.579C474.005 367.579 474.214 367.546 474.4 367.482C474.589 367.415 474.752 367.315 474.889 367.184C475.025 367.049 475.131 366.883 475.206 366.684L476.056 366.923C475.966 367.211 475.816 367.465 475.604 367.683C475.393 367.9 475.132 368.068 474.821 368.19C474.511 368.31 474.161 368.369 473.773 368.369ZM477.484 368.25V362.523H478.334V363.418H478.408C478.528 363.112 478.72 362.874 478.987 362.705C479.252 362.534 479.572 362.448 479.944 362.448C480.322 362.448 480.637 362.534 480.888 362.705C481.141 362.874 481.339 363.112 481.481 363.418H481.54C481.687 363.122 481.907 362.887 482.2 362.713C482.494 362.536 482.845 362.448 483.256 362.448C483.768 362.448 484.186 362.608 484.513 362.929C484.838 363.247 485.001 363.743 485.001 364.417V368.25H484.121V364.417C484.121 363.994 484.005 363.692 483.774 363.511C483.543 363.329 483.271 363.239 482.957 363.239C482.555 363.239 482.243 363.36 482.022 363.604C481.801 363.845 481.69 364.151 481.69 364.521V368.25H480.795V364.327C480.795 364.002 480.689 363.74 480.478 363.541C480.267 363.339 479.995 363.239 479.662 363.239C479.433 363.239 479.219 363.3 479.02 363.421C478.824 363.543 478.664 363.712 478.543 363.928C478.423 364.142 478.363 364.39 478.363 364.67V368.25H477.484ZM486.61 368.25V362.523H487.489V368.25H486.61ZM487.057 361.568C486.886 361.568 486.738 361.51 486.613 361.393C486.492 361.276 486.43 361.136 486.43 360.972C486.43 360.808 486.492 360.667 486.613 360.55C486.738 360.433 486.886 360.375 487.057 360.375C487.228 360.375 487.375 360.433 487.497 360.55C487.621 360.667 487.684 360.808 487.684 360.972C487.684 361.136 487.621 361.276 487.497 361.393C487.375 361.51 487.228 361.568 487.057 361.568ZM491.592 362.523V363.268H488.624V362.523H491.592ZM489.489 361.151H490.369V366.609C490.369 366.858 490.405 367.044 490.477 367.169C490.552 367.29 490.646 367.372 490.761 367.415C490.878 367.455 491.001 367.474 491.13 367.474C491.227 367.474 491.306 367.469 491.368 367.459C491.431 367.447 491.48 367.437 491.518 367.43L491.697 368.22C491.637 368.243 491.554 368.265 491.447 368.287C491.34 368.312 491.204 368.325 491.041 368.325C490.792 368.325 490.548 368.271 490.309 368.164C490.073 368.057 489.877 367.894 489.721 367.676C489.566 367.457 489.489 367.181 489.489 366.848V361.151ZM495.256 368.369C494.704 368.369 494.228 368.248 493.828 368.004C493.43 367.758 493.123 367.415 492.907 366.975C492.693 366.532 492.586 366.018 492.586 365.431C492.586 364.844 492.693 364.327 492.907 363.88C493.123 363.43 493.423 363.08 493.809 362.828C494.197 362.575 494.649 362.448 495.166 362.448C495.464 362.448 495.759 362.498 496.05 362.597C496.341 362.697 496.606 362.858 496.844 363.082C497.083 363.303 497.273 363.597 497.415 363.962C497.556 364.327 497.627 364.777 497.627 365.312V365.685H493.213V364.924H496.732C496.732 364.601 496.668 364.312 496.538 364.059C496.411 363.805 496.23 363.605 495.994 363.459C495.76 363.312 495.484 363.239 495.166 363.239C494.815 363.239 494.512 363.326 494.257 363.5C494.003 363.671 493.807 363.895 493.671 364.171C493.534 364.447 493.466 364.743 493.466 365.058V365.565C493.466 365.998 493.54 366.364 493.69 366.665C493.841 366.964 494.051 367.191 494.32 367.348C494.588 367.502 494.9 367.579 495.256 367.579C495.487 367.579 495.696 367.546 495.882 367.482C496.071 367.415 496.234 367.315 496.371 367.184C496.507 367.049 496.613 366.883 496.687 366.684L497.538 366.923C497.448 367.211 497.298 367.465 497.086 367.683C496.875 367.9 496.614 368.068 496.303 368.19C495.993 368.31 495.643 368.369 495.256 368.369ZM501.367 368.369C500.815 368.369 500.339 368.248 499.939 368.004C499.541 367.758 499.234 367.415 499.018 366.975C498.804 366.532 498.697 366.018 498.697 365.431C498.697 364.844 498.804 364.327 499.018 363.88C499.234 363.43 499.535 363.08 499.92 362.828C500.308 362.575 500.761 362.448 501.277 362.448C501.576 362.448 501.871 362.498 502.161 362.597C502.452 362.697 502.717 362.858 502.955 363.082C503.194 363.303 503.384 363.597 503.526 363.962C503.668 364.327 503.738 364.777 503.738 365.312V365.685H499.324V364.924H502.843C502.843 364.601 502.779 364.312 502.65 364.059C502.523 363.805 502.342 363.605 502.105 363.459C501.871 363.312 501.595 363.239 501.277 363.239C500.927 363.239 500.623 363.326 500.368 363.5C500.114 363.671 499.919 363.895 499.783 364.171C499.645 364.447 499.577 364.743 499.577 365.058V365.565C499.577 365.998 499.652 366.364 499.801 366.665C499.953 366.964 500.163 367.191 500.431 367.348C500.7 367.502 501.011 367.579 501.367 367.579C501.598 367.579 501.807 367.546 501.994 367.482C502.183 367.415 502.345 367.315 502.482 367.184C502.618 367.049 502.724 366.883 502.799 366.684L503.649 366.923C503.56 367.211 503.409 367.465 503.197 367.683C502.987 367.9 502.726 368.068 502.414 368.19C502.104 368.31 501.754 368.369 501.367 368.369Z" fill="#F5F5F5"/>
</g>
<defs>
<filter id="filter0_f_721_27794" x="-162.182" y="-38.0897" width="743.771" height="640.673" filterUnits="userSpaceOnUse" color-interpolation-filters="sRGB">
<feFlood flood-opacity="0" result="BackgroundImageFix"/>
<feBlend mode="normal" in="SourceGraphic" in2="BackgroundImageFix" result="shape"/>
<feGaussianBlur stdDeviation="86.6667" result="effect1_foregroundBlur_721_27794"/>
</filter>
<filter id="filter1_d_721_27794" x="33.0935" y="63" width="453.813" height="45.1933" filterUnits="userSpaceOnUse" color-interpolation-filters="sRGB">
<feFlood flood-opacity="0" result="BackgroundImageFix"/>
<feColorMatrix in="SourceAlpha" type="matrix" values="0 0 0 0 0 0 0 0 0 0 0 0 0 0 0 0 0 0 127 0" result="hardAlpha"/>
<feOffset dy="4.17308"/>
<feGaussianBlur stdDeviation="2.08654"/>
<feComposite in2="hardAlpha" operator="out"/>
<feColorMatrix type="matrix" values="0 0 0 0 0 0 0 0 0 0 0 0 0 0 0 0 0 0 0.4 0"/>
<feBlend mode="normal" in2="BackgroundImageFix" result="effect1_dropShadow_721_27794"/>
<feBlend mode="normal" in="SourceGraphic" in2="effect1_dropShadow_721_27794" result="shape"/>
</filter>
<filter id="filter2_d_721_27794" x="33.1066" y="99.8472" width="453.787" height="45.1672" filterUnits="userSpaceOnUse" color-interpolation-filters="sRGB">
<feFlood flood-opacity="0" result="BackgroundImageFix"/>
<feColorMatrix in="SourceAlpha" type="matrix" values="0 0 0 0 0 0 0 0 0 0 0 0 0 0 0 0 0 0 127 0" result="hardAlpha"/>
<feOffset dy="4.16"/>
<feGaussianBlur stdDeviation="2.08"/>
<feComposite in2="hardAlpha" operator="out"/>
<feColorMatrix type="matrix" values="0 0 0 0 0 0 0 0 0 0 0 0 0 0 0 0 0 0 0.4 0"/>
<feBlend mode="normal" in2="BackgroundImageFix" result="effect1_dropShadow_721_27794"/>
<feBlend mode="normal" in="SourceGraphic" in2="effect1_dropShadow_721_27794" result="shape"/>
</filter>
<clipPath id="clip0_721_27794">
<rect width="520" height="392" rx="12" fill="white"/>
</clipPath>
</defs>
</svg>
