<svg width="520" height="392" viewBox="0 0 520 392" fill="none" xmlns="http://www.w3.org/2000/svg">
<g clip-path="url(#clip0_721_25439)">
<rect width="520" height="392" rx="12" fill="white"/>
<rect width="520" height="578.933" transform="translate(0 -69)" fill="url(#paint0_radial_721_25439)"/>
<g opacity="0.5">
<path fill-rule="evenodd" clip-rule="evenodd" d="M80.8882 60.9998H50.6947V59.0739H82.8141V84.5924H28.4067V82.6665H80.8882V60.9998Z" fill="#3F0D4A"/>
<path fill-rule="evenodd" clip-rule="evenodd" d="M305.741 155.37H275.547V153.444H307.667V178.962H253.259V177.037H305.741V155.37Z" fill="#3F0D4A"/>
<path fill-rule="evenodd" clip-rule="evenodd" d="M467.518 -9.77744H437.325V-11.7034H469.444V13.8151H415.037V11.8892H467.518V-9.77744Z" fill="#3F0D4A"/>
<path fill-rule="evenodd" clip-rule="evenodd" d="M103.037 84.5927H72.8439V82.6667H104.963V108.185H50.5559V106.259H103.037V84.5927Z" fill="#3F0D4A"/>
<path fill-rule="evenodd" clip-rule="evenodd" d="M327.888 131.778H297.695V129.852H329.814V155.37H275.407V153.445H327.888V131.778Z" fill="#3F0D4A"/>
<path fill-rule="evenodd" clip-rule="evenodd" d="M327.888 178.963H297.695V177.037H329.814V202.556H275.407V200.63H327.888V178.963Z" fill="#3F0D4A"/>
<path fill-rule="evenodd" clip-rule="evenodd" d="M104.962 106.259L135.156 106.259L135.156 108.185L103.036 108.185L103.036 82.6667L157.444 82.6667L157.444 84.5926L104.962 84.5926L104.962 106.259Z" fill="#3F0D4A"/>
<path fill-rule="evenodd" clip-rule="evenodd" d="M329.815 153.444L360.008 153.444L360.008 155.37L327.889 155.37L327.889 129.852L382.296 129.852L382.296 131.778L329.815 131.778L329.815 153.444Z" fill="#3F0D4A"/>
<path fill-rule="evenodd" clip-rule="evenodd" d="M329.815 200.629L360.008 200.629L360.008 202.555L327.889 202.555L327.889 177.037L382.296 177.037L382.296 178.963L329.815 178.963L329.815 200.629Z" fill="#3F0D4A"/>
<path fill-rule="evenodd" clip-rule="evenodd" d="M131.444 59.0739H80.888V84.5924H131.444V59.0739ZM129.518 60.9998V82.6665H82.814V60.9998H129.518Z" fill="#3F0D4A"/>
<path fill-rule="evenodd" clip-rule="evenodd" d="M356.296 153.444H305.741V178.962H356.296V153.444ZM354.37 155.37V177.037H307.667V155.37H354.37Z" fill="#3F0D4A"/>
</g>
<rect x="-40.5" y="308" width="600" height="115.354" fill="#3F0D4A"/>
<g style="mix-blend-mode:screen" opacity="0.9" filter="url(#filter0_f_721_25439)">
<ellipse cx="251.575" cy="261.851" rx="185.49" ry="122.442" transform="rotate(21.0304 251.575 261.851)" fill="#9E26C8"/>
</g>
<g clip-path="url(#clip1_721_25439)">
<path d="M323.419 279.378L188.129 276.072C177.141 275.803 168.016 284.493 167.747 295.481C167.479 306.469 176.168 315.594 187.156 315.863L322.446 319.169C333.434 319.438 342.56 310.748 342.828 299.76C343.097 288.772 334.407 279.647 323.419 279.378Z" fill="#918AA0"/>
<path d="M272.974 270.768L273.889 233.441L239.826 232.605L238.911 269.932C236.363 270.02 233.848 270.123 231.396 270.267C234.612 280.735 244.196 288.258 255.5 288.536C266.805 288.815 276.739 281.77 280.465 271.469C278.021 271.206 275.513 270.975 272.974 270.768Z" fill="#DCAC82"/>
<path d="M273.443 251.623L273.149 263.58C267.258 263.938 257.777 263.699 250.198 259.679C244.164 256.479 242.381 252.499 241.816 250.851L273.443 251.623Z" fill="#9F7554"/>
<path d="M260.193 178.35L256.214 178.253C243.028 177.93 232.078 188.358 231.755 201.544L230.977 233.377C230.655 246.562 241.083 257.513 254.269 257.835L258.248 257.932C271.433 258.254 282.384 247.827 282.706 234.641L283.484 202.808C283.806 189.622 273.378 178.672 260.193 178.35Z" fill="#DCAC82"/>
<path d="M246.864 220.939C246.898 219.532 246.067 218.371 245.008 218.345C243.949 218.32 243.062 219.439 243.028 220.845C242.994 222.252 243.825 223.413 244.884 223.439C245.943 223.465 246.83 222.345 246.864 220.939Z" fill="#2C2044"/>
<path d="M271.263 221.534C271.297 220.127 270.466 218.966 269.407 218.94C268.348 218.915 267.461 220.034 267.427 221.44C267.392 222.847 268.223 224.008 269.282 224.034C270.342 224.06 271.228 222.94 271.263 221.534Z" fill="#2C2044"/>
<path d="M226.667 214.564L231.442 214.681L231.014 232.189L226.239 232.072C222.721 231.986 219.942 229.068 220.028 225.55L220.145 220.775C220.231 217.258 223.149 214.478 226.667 214.564Z" fill="#DCAC82"/>
<path d="M287.499 233.588L282.724 233.471L283.152 215.963L287.927 216.079C291.444 216.165 294.224 219.084 294.138 222.602L294.021 227.377C293.935 230.894 291.016 233.674 287.499 233.588Z" fill="#DCAC82"/>
<path d="M225.21 226.133C225.083 226.133 224.955 226.061 224.876 225.942C224.764 225.751 224.82 225.512 225.011 225.392L228.323 223.37L225.115 221.189C224.932 221.062 224.884 220.815 225.011 220.64C225.139 220.457 225.385 220.409 225.56 220.536L229.278 223.068C229.389 223.147 229.453 223.275 229.453 223.41C229.453 223.545 229.382 223.673 229.262 223.737L225.425 226.077C225.353 226.117 225.282 226.141 225.21 226.133Z" fill="#9F7554"/>
<path d="M243.182 214.097C241.678 214.057 240.412 213.667 239.528 213.285C239.329 213.197 239.234 212.966 239.321 212.76C239.409 212.553 239.648 212.465 239.847 212.553C240.969 213.038 242.752 213.548 244.878 213.173C246.056 212.966 247.171 212.529 248.19 211.852C248.373 211.733 248.619 211.78 248.739 211.963C248.858 212.147 248.81 212.393 248.627 212.513C247.521 213.245 246.303 213.731 245.013 213.954C244.368 214.065 243.755 214.105 243.174 214.089L243.182 214.097Z" fill="#2C2044"/>
<path d="M271.454 214.79C270.873 214.774 270.268 214.71 269.623 214.567C268.349 214.28 267.155 213.739 266.08 212.951C265.905 212.823 265.865 212.569 265.993 212.393C266.12 212.218 266.375 212.178 266.55 212.306C267.529 213.022 268.62 213.524 269.79 213.787C271.892 214.256 273.699 213.842 274.845 213.412C275.052 213.333 275.283 213.436 275.355 213.643C275.434 213.85 275.331 214.081 275.124 214.153C274.224 214.495 272.942 214.821 271.438 214.79H271.454Z" fill="#2C2044"/>
<path d="M288.812 227.686C288.74 227.686 288.661 227.662 288.597 227.614L284.879 225.082C284.768 225.003 284.704 224.875 284.704 224.74C284.704 224.605 284.776 224.477 284.895 224.414L288.732 222.073C288.923 221.962 289.162 222.018 289.281 222.209C289.393 222.4 289.337 222.639 289.146 222.758L285.835 224.78L289.043 226.961C289.226 227.089 289.273 227.335 289.146 227.51C289.067 227.63 288.939 227.686 288.804 227.686H288.812Z" fill="#9F7554"/>
<path d="M242.196 226.849C242.216 225.997 240.99 225.275 239.456 225.238C237.922 225.2 236.662 225.861 236.641 226.714C236.62 227.566 237.847 228.288 239.38 228.325C240.914 228.363 242.175 227.702 242.196 226.849Z" fill="#BE906A"/>
<path d="M277.351 227.709C277.372 226.856 276.145 226.135 274.611 226.097C273.078 226.06 271.817 226.72 271.796 227.573C271.775 228.426 273.002 229.147 274.536 229.185C276.07 229.222 277.33 228.562 277.351 227.709Z" fill="#BE906A"/>
<path d="M256.45 245.288C259.172 245.275 261.364 242.523 261.347 239.142C261.33 235.761 259.109 233.031 256.388 233.045C253.666 233.059 251.473 235.811 251.491 239.192C251.508 242.573 253.728 245.302 256.45 245.288Z" fill="#6B222F"/>
<path d="M260.961 241.55C260.232 243.735 258.49 245.277 256.453 245.287C254.416 245.298 252.659 243.784 251.897 241.607C252.102 241.359 253.738 239.395 256.506 239.423C259.171 239.45 260.744 241.284 260.961 241.55Z" fill="#DE4A65"/>
<path d="M293.576 194.816C289.803 190.032 286.858 187.389 281.723 182.915C284.382 182.143 286.675 180.487 288.163 177.271C275.641 174.541 267.585 173.259 255.469 174.023C256.544 171.404 256.95 169.366 256.52 166.636C250.486 174.143 230.043 175.058 228.705 196.862C228.674 197.3 228.65 197.738 228.634 198.184L228.228 214.606L232.327 214.71C232.431 211.979 232.893 207.991 234.588 203.501C236.483 198.478 239.15 194.896 241.036 192.731C243.234 194.928 246.529 197.73 251.051 200.102C254.466 201.893 257.634 202.944 260.174 203.589C259.083 201.041 257.985 198.486 256.894 195.939C257.475 196.488 258.486 197.372 259.863 198.295C262.156 199.831 265.316 200.97 269.854 202.148C276.374 203.844 281.261 209.265 282.264 215.928L286.364 216.031L286.77 199.609C286.818 197.706 286.635 195.851 286.253 194.068C288.8 195.541 290.543 195.668 293.576 194.808V194.816Z" fill="#2C2044"/>
<path d="M190.414 445.217C191.577 420.411 192.213 399.324 192.596 383.14C193.4 348.782 193.081 332.916 192.619 323.005C192.508 320.617 192.397 318.746 192.341 317.871C191.282 299.999 189.578 285.758 188.209 276.086C194.506 274.876 201.129 273.761 208.063 272.806C216.215 271.683 224.016 270.879 231.419 270.322C234.643 280.758 244.22 288.257 255.5 288.536C266.78 288.815 276.715 281.793 280.441 271.524C287.804 272.44 295.566 273.626 303.654 275.146C310.532 276.444 317.099 277.877 323.325 279.389C321.486 288.982 319.082 303.128 317.155 320.92C317.06 321.787 316.853 323.658 316.622 326.03C315.666 335.91 314.584 351.735 313.7 386.093C313.286 402.269 312.888 423.365 312.84 448.202L190.414 445.201V445.217Z" fill="#61BDFF"/>
<path d="M333.761 304.497V359.593C329.183 359.8 323.094 359.617 316.12 358.128C309.752 356.767 304.529 354.721 300.613 352.85C301.457 347.835 302.189 342.541 302.754 336.985C303.924 325.458 304.179 314.759 303.885 305.11L333.753 304.497H333.761Z" fill="#1172C9"/>
<path d="M286.266 272.296C281.538 284.675 269.398 293.32 255.387 292.978C241.376 292.636 229.69 283.409 225.567 270.808C227.549 270.625 229.491 270.465 231.418 270.322C234.642 280.758 244.218 288.257 255.499 288.536C266.779 288.815 276.714 281.793 280.439 271.524C282.35 271.763 284.3 272.026 286.266 272.296Z" fill="#1E88E8"/>
<path d="M260.075 362.426L265.175 286.446C265.29 284.739 263.999 283.263 262.293 283.149L228.719 280.895C227.013 280.781 225.536 282.071 225.422 283.778L220.322 359.758C220.207 361.464 221.498 362.94 223.204 363.055L256.778 365.308C258.485 365.423 259.961 364.132 260.075 362.426Z" fill="#2C2044"/>
<path d="M264.631 368.349C275.622 368.349 284.533 359.438 284.533 348.447C284.533 337.456 275.622 328.546 264.631 328.546C253.64 328.546 244.729 337.456 244.729 348.447C244.729 359.438 253.64 368.349 264.631 368.349Z" fill="#DCAC82"/>
<path d="M279.367 335.074C276.294 331.786 273.54 329.462 271.685 327.997C261.718 320.14 256.074 319.049 252.206 309.282C249.785 303.168 240.694 306.241 242.446 312.498C243.25 315.364 247.047 321.446 251.195 328.284C251.059 329.366 250.566 334.405 254.028 339.03C254.442 339.58 258.343 344.611 264.879 344.889C270.913 345.144 276.74 341.244 279.375 335.082L279.367 335.074Z" fill="#DCAC82"/>
<path d="M217.783 334.748C213.858 328.117 218.013 321.032 222.941 320.785C222.758 323.492 224.804 325.832 227.51 326.015L262.434 328.355L259.767 368.071L224.684 365.715C220.449 365.348 219.255 358.574 222.336 356.074C217.751 356.958 215.044 350.367 217.01 346.283C212.576 343.759 214.431 336.213 217.783 334.748Z" fill="#DCAC82"/>
<path d="M229.788 295.872L237.938 296.419C238.758 296.474 239.467 295.854 239.523 295.033L240.07 286.884C240.125 286.064 239.504 285.354 238.684 285.299L230.535 284.752C229.714 284.697 229.005 285.317 228.95 286.138L228.403 294.287C228.348 295.107 228.968 295.817 229.788 295.872Z" fill="#544A69"/>
<path d="M232.023 289.906C233.114 289.906 233.998 289.022 233.998 287.932C233.998 286.841 233.114 285.957 232.023 285.957C230.933 285.957 230.049 286.841 230.049 287.932C230.049 289.022 230.933 289.906 232.023 289.906Z" fill="#2C2044"/>
<path d="M236.601 292.724C237.692 292.724 238.575 291.84 238.575 290.749C238.575 289.659 237.692 288.775 236.601 288.775C235.511 288.775 234.627 289.659 234.627 290.749C234.627 291.84 235.511 292.724 236.601 292.724Z" fill="#2C2044"/>
<path d="M231.69 294.913C232.781 294.913 233.665 294.029 233.665 292.938C233.665 291.848 232.781 290.964 231.69 290.964C230.6 290.964 229.716 291.848 229.716 292.938C229.716 294.029 230.6 294.913 231.69 294.913Z" fill="#2C2044"/>
<path d="M196.336 222.097C199.805 222.097 202.617 219.285 202.617 215.816C202.617 212.347 199.805 209.535 196.336 209.535C192.867 209.535 190.055 212.347 190.055 215.816C190.055 219.285 192.867 222.097 196.336 222.097Z" fill="#CE92D6"/>
<path d="M189.21 200.476C191.057 202.888 190.945 206.311 188.844 208.492C188.836 208.508 188.812 208.524 188.796 208.54C188.78 208.556 188.764 208.572 188.748 208.588C186.639 210.761 183.224 210.992 180.748 209.241L154.74 190.788C151.891 188.766 151.23 184.794 153.323 181.999C154.35 180.63 155.544 179.213 156.914 177.78C158.291 176.355 159.668 175.114 160.998 174.031C163.712 171.834 167.716 172.367 169.834 175.129L189.21 200.46V200.476Z" fill="#CE92D6"/>
<path d="M314.879 225.059C318.347 225.059 321.159 222.246 321.159 218.778C321.159 215.309 318.347 212.497 314.879 212.497C311.41 212.497 308.598 215.309 308.598 218.778C308.598 222.246 311.41 225.059 314.879 225.059Z" fill="#CE92D6"/>
<path d="M328.601 208.883C326.579 211.152 323.196 211.685 320.656 210.037C320.64 210.029 320.617 210.013 320.601 210.005C320.585 209.997 320.561 209.981 320.545 209.973C318.013 208.31 317.146 204.998 318.396 202.236L331.618 173.211C333.067 170.035 336.848 168.626 339.985 170.162C341.521 170.911 343.137 171.818 344.801 172.893C346.465 173.976 347.937 175.098 349.251 176.197C351.926 178.449 352.157 182.478 349.832 185.081L328.609 208.883H328.601Z" fill="#CE92D6"/>
<path d="M211.151 206.319C213.644 206.319 215.665 204.298 215.665 201.805C215.665 199.312 213.644 197.292 211.151 197.292C208.658 197.292 206.637 199.312 206.637 201.805C206.637 204.298 208.658 206.319 211.151 206.319Z" fill="#CE92D6"/>
<path d="M212.376 189.714C212.631 191.871 211.309 193.957 209.216 194.538C209.2 194.538 209.192 194.538 209.168 194.546C209.144 194.554 209.144 194.546 209.12 194.554C207.018 195.127 204.821 194.005 203.938 192.022L194.64 171.086C193.621 168.793 194.672 166.087 196.988 165.139C198.126 164.67 199.376 164.232 200.753 163.858C202.131 163.484 203.436 163.221 204.646 163.046C207.13 162.688 209.407 164.471 209.701 166.97L212.384 189.722L212.376 189.714Z" fill="#CE92D6"/>
<path d="M338.793 391.109C332.902 395.981 326.398 397.501 320.508 397.501C313.001 397.501 306.481 395.041 303.44 393.895C294.628 390.576 272.473 380.107 251.648 364.29C242.9 357.635 241.196 345.152 247.851 336.404C254.498 327.647 266.988 325.951 275.737 332.599C288.633 342.406 302.127 349.642 310.517 353.615C310.414 352.086 310.278 350.454 310.111 348.751C309.426 341.642 308.264 333.243 307.062 325.378C305.637 316.12 304.157 307.578 303.313 302.698C301.434 291.864 308.686 281.563 319.52 279.684C330.347 277.814 340.648 285.066 342.527 295.892C344.182 305.421 345.623 314.05 346.809 321.868C347.828 328.57 348.656 334.684 349.261 340.265C352.199 367.299 349.922 381.899 338.793 391.109Z" fill="#DCAC82"/>
<path d="M349.265 340.607C341.901 346.736 327.731 350.295 310.114 349.093C309.43 341.984 308.267 333.585 307.065 325.72L346.813 322.21C347.832 328.912 348.66 335.026 349.265 340.607Z" fill="#9F7554"/>
<path d="M307.378 341.904C313.396 342.429 322.288 342.509 332.605 340.017C341.728 337.82 348.861 334.357 353.757 331.5C352.196 323.762 349.975 315.26 346.783 306.256C345.366 302.26 343.87 298.471 342.341 294.913C329.397 297.818 316.445 300.724 303.501 303.621C304.799 316.382 306.089 329.143 307.386 341.904H307.378Z" fill="#61BDFF"/>
<path d="M322.911 319.161C333.903 319.161 342.813 310.251 342.813 299.259C342.813 288.268 333.903 279.358 322.911 279.358C311.92 279.358 303.01 288.268 303.01 299.259C303.01 310.251 311.92 319.161 322.911 319.161Z" fill="#61BDFF"/>
<path d="M161.741 477.219C151.535 477.219 142.85 469.417 141.935 459.061C136.832 400.924 139.674 351.967 169.582 287.589C174.215 277.622 186.052 273.3 196.019 277.925C205.986 282.558 210.316 294.395 205.683 304.362C179.389 360.946 176.937 402.652 181.586 455.566C182.55 466.512 174.454 476.168 163.5 477.131C162.911 477.187 162.322 477.211 161.733 477.211L161.741 477.219Z" fill="#DCAC82"/>
<path d="M193.772 340.941C187.777 340.177 179.076 338.37 169.516 333.753C161.069 329.669 154.828 324.773 150.649 320.944C153.817 313.708 157.79 305.875 162.821 297.755C165.05 294.149 167.318 290.766 169.571 287.605C181.608 293.186 193.644 298.774 205.681 304.354C201.708 316.55 197.736 328.746 193.772 340.941Z" fill="#61BDFF"/>
<path d="M187.636 315.881C198.627 315.881 207.537 306.97 207.537 295.979C207.537 284.988 198.627 276.078 187.636 276.078C176.644 276.078 167.734 284.988 167.734 295.979C167.734 306.97 176.644 315.881 187.636 315.881Z" fill="#61BDFF"/>
</g>
<g filter="url(#filter1_d_721_25439)">
<path d="M202.878 85.8708H197.598L195.956 103.876H187.436L189.078 85.8708H183.518L184.492 79.1387H203.972L202.878 85.8708ZM212.498 95.1124C212.368 96.5465 212.942 97.2635 214.222 97.2635C215.529 97.2635 216.249 96.5332 216.382 95.0726L217.835 79.1387H226.395L224.895 95.5904C224.629 98.5116 223.51 100.689 221.539 102.123C219.568 103.557 216.863 104.274 213.423 104.274C206.436 104.274 203.205 101.406 203.728 95.6701L205.235 79.1387H213.955L212.498 95.1124ZM250.888 103.876H235.048L237.303 79.1387H253.703L252.544 85.7114H245.264L244.992 88.699H251.352L250.829 94.4352H244.469L244.16 97.8212H252L250.888 103.876ZM274.565 103.876H266.405L262.255 94.1165H261.975L261.085 103.876H253.485L255.741 79.1387H264.181L267.982 89.2169H268.222L269.141 79.1387H276.821L274.565 103.876ZM300.998 79.1387L293.942 103.876H281.662L278.838 79.1387H288.078L288.614 94.3157H289.094L292.198 79.1387H300.998ZM309.471 103.876H301.031L303.287 79.1387H311.727L309.471 103.876ZM315.042 72.6058L309.312 77.5453H304.032L306.922 72.6058H315.042ZM313.201 91.3679C313.605 86.933 314.778 83.7197 316.72 81.7279C318.688 79.7362 321.699 78.7403 325.752 78.7403C329.832 78.7403 332.649 79.7229 334.204 81.6881C335.784 83.6533 336.373 86.8533 335.968 91.2883C335.566 95.6967 334.362 98.9631 332.355 101.088C330.374 103.212 327.371 104.274 323.344 104.274C319.344 104.274 316.546 103.225 314.951 101.127C313.382 99.0295 312.799 95.7763 313.201 91.3679ZM327.273 86.6276C326.989 85.9371 326.274 85.5919 325.128 85.5919C323.981 85.5919 323.217 85.9239 322.837 86.5878C322.456 87.2517 322.167 88.6725 321.968 90.8501L321.808 92.6028C321.605 94.8336 321.646 96.2809 321.932 96.9448C322.218 97.6087 322.948 97.9407 324.122 97.9407C325.295 97.9407 326.057 97.622 326.409 96.9846C326.76 96.3473 327.036 94.9265 327.237 92.7223L327.404 90.8899C327.603 88.7123 327.559 87.2915 327.273 86.6276Z" fill="white"/>
</g>
<g filter="url(#filter2_d_721_25439)">
<path d="M144.654 122.559H137.374L137.065 125.945H142.585L142.062 131.681H136.542L135.717 140.723H127.157L129.413 115.986H145.813L144.654 122.559ZM154.374 131.96C154.243 133.394 154.817 134.111 156.097 134.111C157.404 134.111 158.124 133.38 158.257 131.92L159.71 115.986H168.27L166.77 132.438C166.504 135.359 165.385 137.536 163.414 138.97C161.444 140.405 158.738 141.122 155.298 141.122C148.312 141.122 145.08 138.253 145.603 132.517L147.11 115.986H155.83L154.374 131.96ZM185.146 140.723H169.306L171.561 115.986H187.961L186.802 122.559H179.522L179.25 125.546H185.61L185.087 131.282H178.727L178.418 134.668H186.258L185.146 140.723ZM216.53 123.953C216.384 125.546 216.001 126.821 215.381 127.777C214.789 128.706 213.914 129.53 212.756 130.247L215.52 140.723H206.68L204.978 132.199H204.338L203.56 140.723H195.36L197.616 115.986H208.216C211.309 115.986 213.53 116.636 214.878 117.938C216.229 119.212 216.779 121.217 216.53 123.953ZM205.621 127.339C206.234 127.339 206.677 127.166 206.948 126.821C207.249 126.449 207.44 125.812 207.522 124.909C207.605 124.006 207.528 123.382 207.293 123.037C207.058 122.691 206.66 122.519 206.1 122.519H205.06L204.621 127.339H205.621ZM233.739 140.723H217.899L220.155 115.986H236.555L235.396 122.559H228.116L227.843 125.546H234.203L233.68 131.282H227.32L227.012 134.668H234.852L233.739 140.723ZM245.278 128.653C245.094 130.672 245.186 132.145 245.554 133.075C245.925 133.978 246.644 134.429 247.711 134.429C248.778 134.429 250.578 134.137 253.111 133.553L253.813 139.887C251.125 140.71 248.567 141.122 246.141 141.122C242.434 141.122 239.823 140.073 238.308 137.975C236.821 135.85 236.268 132.703 236.648 128.534C237.031 124.338 238.203 121.138 240.164 118.934C242.127 116.703 245.096 115.588 249.069 115.588C251.389 115.588 253.668 116.039 255.905 116.942L253.939 124.032C251.369 123.262 249.591 122.877 248.604 122.877C247.644 122.877 246.895 123.342 246.357 124.271C245.821 125.174 245.462 126.635 245.278 128.653ZM276.251 140.723H267.811L268.606 131.999H264.286L263.491 140.723H254.931L257.186 115.986H265.746L264.904 125.228H269.224L270.066 115.986H278.506L276.251 140.723ZM300.382 140.723H291.982L291.531 136.899H287.091L285.902 140.723H277.862L285.278 115.986H297.478L300.382 140.723ZM291.399 131.76L290.635 123.475H290.475L288.159 131.76H291.399ZM321.001 140.723H302.201L302.31 136.461L311.236 122.798H302.956L303.137 115.986H322.617L322.515 120.168L314.019 134.39H321.579L321.001 140.723ZM344.015 140.723H335.615L335.163 136.899H330.723L329.535 140.723H321.495L328.91 115.986H341.11L344.015 140.723ZM335.032 131.76L334.268 123.475H334.108L331.792 131.76H335.032ZM368.291 127.817C367.506 136.421 363.167 140.723 355.274 140.723H345.634L347.889 115.986H357.729C361.969 115.986 364.876 117.008 366.45 119.053C368.026 121.071 368.639 123.993 368.291 127.817ZM355.72 134.509C357.08 134.509 358.003 134.044 358.488 133.115C358.972 132.185 359.313 130.645 359.509 128.494C359.708 126.316 359.621 124.776 359.25 123.873C358.908 122.944 358.044 122.479 356.657 122.479H355.817L354.72 134.509H355.72ZM369.92 128.215C370.324 123.78 371.497 120.567 373.439 118.575C375.407 116.583 378.418 115.588 382.471 115.588C386.551 115.588 389.368 116.57 390.922 118.535C392.503 120.5 393.091 123.701 392.687 128.135C392.285 132.544 391.08 135.81 389.073 137.935C387.093 140.059 384.09 141.122 380.063 141.122C376.063 141.122 373.265 140.073 371.67 137.975C370.101 135.877 369.518 132.623 369.92 128.215ZM383.992 123.475C383.708 122.784 382.993 122.439 381.846 122.439C380.7 122.439 379.936 122.771 379.556 123.435C379.175 124.099 378.885 125.52 378.687 127.697L378.527 129.45C378.324 131.681 378.365 133.128 378.651 133.792C378.937 134.456 379.667 134.788 380.84 134.788C382.014 134.788 382.776 134.469 383.128 133.832C383.479 133.194 383.755 131.774 383.956 129.569L384.123 127.737C384.322 125.559 384.278 124.139 383.992 123.475Z" fill="#F4C12A"/>
</g>
<path d="M26.9062 45.1103C26.6761 44.994 26.4132 44.932 26.1187 44.927C25.9127 44.9207 25.7029 44.946 25.488 44.9966C25.2731 45.0484 25.0747 45.1292 24.8927 45.2379C24.7094 45.3467 24.5603 45.4869 24.4414 45.6576C24.3226 45.8282 24.2581 46.0305 24.2443 46.2655L25.3465 46.258C25.3692 46.1493 25.4109 46.0545 25.4716 45.9748C25.5322 45.8952 25.6081 45.8333 25.7003 45.7916C25.7926 45.7486 25.8975 45.7284 26.0151 45.7309C26.1453 45.7372 26.2464 45.7688 26.3184 45.8269C26.3905 45.8851 26.4372 45.9634 26.4612 46.0633C26.484 46.1632 26.4904 46.2694 26.4764 46.3844L26.4334 46.6599L25.8988 46.6561C25.6649 46.6561 25.4286 46.6789 25.1897 46.7244C24.9521 46.7699 24.7322 46.8457 24.5299 46.9532C24.3277 47.0593 24.1633 47.2047 24.0357 47.3893C23.908 47.5725 23.8385 47.8025 23.8284 48.0781C23.8183 48.322 23.8689 48.5369 23.9826 48.7202C24.0951 48.9035 24.2493 49.0488 24.4427 49.1537C24.6361 49.2587 24.8497 49.3142 25.081 49.3194C25.2478 49.3218 25.4046 49.2991 25.55 49.2511C25.6953 49.203 25.8293 49.1348 25.9519 49.0438C26.0214 48.992 26.0858 48.9351 26.1465 48.8731C26.1554 48.997 26.1769 49.1171 26.2122 49.2347L27.2904 49.2308L27.298 49.1613C27.2386 49.0135 27.2146 48.8554 27.2285 48.6911C27.2424 48.5256 27.2601 48.3675 27.2841 48.2159L27.5774 46.4033C27.609 46.0936 27.5622 45.8295 27.4383 45.6121C27.3144 45.3947 27.1375 45.2266 26.9062 45.1103ZM26.0858 48.1805C25.9923 48.2803 25.8811 48.3562 25.7534 48.4092C25.6258 48.4623 25.4956 48.4876 25.3629 48.4851C25.2694 48.4826 25.1897 48.4598 25.1227 48.4181C25.057 48.3764 25.0077 48.3195 24.9761 48.2475C24.9445 48.1755 24.9357 48.0945 24.9483 48.0036C24.9647 47.8759 25.0026 47.7671 25.0633 47.6787C25.1253 47.5902 25.2024 47.5182 25.2959 47.4613C25.3894 47.4057 25.4918 47.364 25.6018 47.3362C25.7117 47.3083 25.8242 47.2932 25.9355 47.2906L26.3323 47.2932L26.2262 47.9732C26.1895 48.0478 26.144 48.1173 26.0846 48.1792L26.0858 48.1805Z" fill="white"/>
<path d="M27.9919 49.2333H29.0891L30.1319 43.2319H29.0297L27.9919 49.2333Z" fill="white"/>
<path d="M34.6129 48.3043C34.4373 48.3915 34.2451 48.432 34.0366 48.427C33.8735 48.4219 33.7357 48.3853 33.6284 48.3182C33.5209 48.2512 33.4349 48.1628 33.3742 48.0528C33.3136 47.9428 33.2718 47.8202 33.2517 47.6837C33.2403 47.6116 33.2353 47.5397 33.234 47.4663H35.834L35.8959 46.9974C35.9237 46.7282 35.9148 46.4716 35.8681 46.2251C35.8213 45.9786 35.7341 45.76 35.6064 45.5666C35.4788 45.3744 35.3107 45.2202 35.1021 45.1064C34.8936 44.9927 34.642 44.9321 34.3475 44.9269C34.0315 44.9181 33.7459 44.9725 33.4893 45.0887C33.2327 45.2051 33.0115 45.3643 32.8232 45.5691C32.6361 45.7738 32.4856 46.009 32.3744 46.2744C32.262 46.5411 32.1912 46.8204 32.1596 47.1149L32.1444 47.2755C32.1242 47.5561 32.1495 47.8202 32.2228 48.0654C32.2961 48.3094 32.4098 48.5255 32.5653 48.7101C32.7195 48.8959 32.9129 49.04 33.1455 49.1462C33.3781 49.251 33.6384 49.3067 33.9266 49.3117H33.9279C34.1327 49.3142 34.3399 49.289 34.5485 49.2359C34.7571 49.1828 34.9517 49.0994 35.1325 48.9856C35.3132 48.8719 35.4623 48.7265 35.5799 48.5495L35.0869 47.9555C34.9454 48.1021 34.7887 48.2184 34.6117 48.3056L34.6129 48.3043ZM33.526 46.2364C33.6031 46.1038 33.7042 45.9976 33.8267 45.9154C33.9494 45.8345 34.101 45.7966 34.2793 45.8017C34.436 45.8067 34.5611 45.8472 34.6547 45.923C34.7482 45.9976 34.8127 46.0987 34.8455 46.2213C34.8784 46.3451 34.886 46.4779 34.8645 46.622L34.8455 46.7193L33.3351 46.7168C33.3389 46.7004 33.3427 46.6839 33.3465 46.6675C33.3869 46.5133 33.4476 46.3692 33.526 46.2364Z" fill="white"/>
<path d="M39.0554 45.0053L38.1568 46.2832L37.6878 45.0053V45.004H36.5629L37.3832 47.0213L35.7969 49.2321H37.0229L37.9697 47.8809L38.4968 49.2321H39.6141L38.7584 47.1224L40.2776 45.0053H39.0554Z" fill="white"/>
<path d="M42.2923 43.9625H41.1939L41.0182 45.0053H40.4216L40.28 45.8016H40.8842L40.5025 48.0717C40.4798 48.3132 40.5025 48.5268 40.5707 48.7101C40.6403 48.8933 40.754 49.0374 40.9145 49.141C41.0751 49.246 41.2798 49.3003 41.5301 49.3054C41.6401 49.3054 41.7475 49.2978 41.8524 49.2839C41.9586 49.27 42.0623 49.2473 42.1671 49.2156L42.2455 48.3764C42.1886 48.3852 42.133 48.3915 42.0774 48.3978C42.0218 48.4041 41.9687 48.4067 41.9131 48.4041C41.8133 48.3991 41.7412 48.3801 41.6944 48.346C41.6476 48.3119 41.6186 48.2639 41.6072 48.1994C41.5958 48.1349 41.5958 48.0578 41.6059 47.9669L41.9776 45.8029H42.6765L42.8181 45.0066H42.1153L42.2948 43.9638L42.2923 43.9625Z" fill="white"/>
<path d="M46.3501 45.5666C46.2225 45.3744 46.0543 45.2202 45.8458 45.1064C45.6372 44.9927 45.3857 44.9321 45.0912 44.9269C44.7752 44.9181 44.4895 44.9725 44.2329 45.0887C43.9763 45.2051 43.7551 45.3643 43.5668 45.5691C43.3797 45.7738 43.2294 46.009 43.1181 46.2744C43.0056 46.5411 42.9348 46.8204 42.9032 47.1149L42.8881 47.2755C42.8678 47.5561 42.8931 47.8202 42.9665 48.0654C43.0398 48.3094 43.1535 48.5255 43.309 48.7101C43.4632 48.8959 43.6566 49.04 43.8892 49.1462C44.1217 49.251 44.3821 49.3067 44.6703 49.3117H44.6715C44.8763 49.3142 45.0836 49.289 45.2921 49.2359C45.5007 49.1828 45.6953 49.0994 45.8761 48.9856C46.0569 48.8719 46.206 48.7265 46.3236 48.5495L45.8306 47.9555C45.6891 48.1021 45.5323 48.2184 45.3554 48.3056C45.1797 48.3928 44.9875 48.4332 44.779 48.4282C44.616 48.4231 44.4782 48.3865 44.3707 48.3195C44.2633 48.2525 44.1773 48.1641 44.1167 48.054C44.056 47.9441 44.0143 47.8215 43.994 47.685C43.9827 47.6129 43.9776 47.5409 43.9763 47.4676H46.5763L46.6383 46.9986C46.6661 46.7294 46.6573 46.4728 46.6105 46.2263C46.5638 45.9799 46.4765 45.7612 46.3489 45.5678L46.3501 45.5666ZM45.6069 46.6233L45.5879 46.7206L44.0775 46.7181C44.0813 46.7016 44.0851 46.6852 44.0888 46.6687C44.1293 46.5146 44.1899 46.3704 44.2683 46.2377C44.3454 46.105 44.4465 45.9988 44.5692 45.9167C44.6918 45.8358 44.8422 45.7978 45.0217 45.8029C45.1784 45.8079 45.3035 45.8484 45.3971 45.9243C45.4906 45.9988 45.5551 46.0999 45.5879 46.2226C45.6208 46.3464 45.6284 46.4792 45.6069 46.6233Z" fill="white"/>
<path d="M49.907 44.97C49.8413 44.9548 49.7781 44.9422 49.7174 44.9308C49.6567 44.9194 49.5935 44.9156 49.5278 44.9156C49.2775 44.9131 49.0651 44.9725 48.8933 45.0938C48.7808 45.1735 48.6822 45.2696 48.5949 45.3795L48.6355 45.0066H47.604L46.8696 49.2334H47.9668L48.4407 46.4969C48.5002 46.3882 48.5722 46.2946 48.6582 46.2188C48.7479 46.1392 48.8541 46.0785 48.9767 46.0368C49.0993 45.9951 49.2358 45.9761 49.3875 45.9787C49.4532 45.9811 49.5176 45.9863 49.5809 45.9938C49.6441 46.0027 49.7073 46.0115 49.7705 46.0216L49.907 44.9712V44.97Z" fill="white"/>
<path d="M49.76 49.2321H50.8571L51.5915 45.0054H50.4943L49.76 49.2321Z" fill="white"/>
<path d="M51.2278 43.3343C51.0559 43.3368 50.9094 43.3925 50.788 43.4986C50.6666 43.6061 50.6098 43.7476 50.6148 43.9246C50.6174 44.0965 50.6793 44.2317 50.8006 44.3316C50.9219 44.4302 51.0648 44.4782 51.2291 44.4757C51.3984 44.4719 51.5438 44.4176 51.6664 44.3114C51.7891 44.2052 51.8472 44.0624 51.8421 43.8854C51.8421 43.7173 51.7815 43.582 51.6589 43.4809C51.5362 43.3798 51.3934 43.3318 51.2291 43.3343H51.2278Z" fill="white"/>
<path d="M55.4884 45.583C55.3468 45.3846 55.1648 45.2278 54.9436 45.1103C54.7212 44.994 54.4582 44.9321 54.1537 44.927C53.8326 44.9194 53.5444 44.9725 53.2878 45.0863C53.0312 45.2001 52.8088 45.3567 52.6204 45.559C52.4321 45.7612 52.2804 45.9938 52.1666 46.258C52.0529 46.5221 51.9809 46.8053 51.9493 47.1049L51.9379 47.187V47.1844C51.9139 47.4663 51.9303 47.733 51.9884 47.9859C52.0466 48.2386 52.1439 48.4636 52.2855 48.6595C52.4258 48.8567 52.6078 49.0122 52.8316 49.1285C53.0552 49.2447 53.3169 49.3054 53.6165 49.3105C53.9325 49.3194 54.2181 49.2663 54.4759 49.155C54.7338 49.0425 54.9563 48.8883 55.1459 48.6886C55.3355 48.4889 55.4872 48.2576 55.6034 47.9972C55.7198 47.7356 55.7943 47.4563 55.8284 47.1591L55.836 47.0732C55.8626 46.7901 55.8461 46.5196 55.788 46.2643C55.7298 46.009 55.6287 45.7815 55.4872 45.5843L55.4884 45.583ZM54.7351 47.072L54.7275 47.1541C54.7123 47.3008 54.6807 47.4487 54.634 47.6016C54.5872 47.7545 54.524 47.8948 54.4431 48.0237C54.3622 48.1527 54.2598 48.2563 54.1347 48.3321C54.0109 48.4092 53.8604 48.4447 53.686 48.4396C53.523 48.4345 53.3927 48.3903 53.2992 48.3081C53.2057 48.226 53.1387 48.1211 53.0982 47.9934C53.0578 47.8658 53.0351 47.7305 53.0299 47.5889C53.0249 47.4474 53.0287 47.3134 53.0413 47.1883L53.0489 47.1023C53.0653 46.9557 53.0945 46.8066 53.1412 46.6524C53.1867 46.4981 53.2499 46.3565 53.3308 46.2264C53.4117 46.0962 53.5141 45.9913 53.6392 45.9116C53.7643 45.832 53.9135 45.7954 54.0879 45.8004C54.251 45.8068 54.3811 45.851 54.4747 45.9357C54.5682 46.0204 54.6352 46.1278 54.677 46.2567C54.7187 46.3856 54.7427 46.5234 54.7452 46.6675C54.749 46.8116 54.7452 46.9468 54.7351 47.072Z" fill="white"/>
<path d="M59.1578 44.97C59.092 44.9548 59.0289 44.9422 58.9682 44.9308C58.9075 44.9194 58.8443 44.9156 58.7786 44.9156C58.5283 44.9131 58.3159 44.9725 58.1428 45.0938C58.0303 45.1735 57.9317 45.2696 57.8445 45.3795L57.885 45.0066H56.8535L56.1191 49.2334H57.2163L57.6903 46.4969C57.7497 46.3882 57.8217 46.2946 57.9077 46.2188C57.9974 46.1392 58.1036 46.0785 58.2263 46.0368C58.3488 45.9951 58.4853 45.9761 58.637 45.9787C58.7015 45.9811 58.7672 45.9863 58.8304 45.9938C58.8936 46.0014 58.9568 46.0115 59.02 46.0216L59.1565 44.9712L59.1578 44.97Z" fill="white"/>
<path d="M34.4492 39.0269C34.4062 39.2 34.3771 39.3239 34.3619 39.3744C34.0863 40.6409 34.1521 41.1402 35.1367 41.0239C36.201 40.8937 36.3312 40.3439 36.6775 39.0269C36.699 38.932 36.7281 38.8233 36.7648 38.6932C40.3469 38.2078 43.8645 37.9044 48.7055 37.5063C48.9015 37.4899 49.0721 37.4722 49.2199 37.4506C49.2844 37.4443 49.3476 37.4393 49.4146 37.4329C50.8442 37.3003 50.8303 37.05 50.9617 36.1627C51.1134 35.1527 49.991 35.154 49.6535 35.1641H49.4929C47.3202 35.221 45.7896 35.2324 43.4398 35.4877C41.4338 35.6558 39.4014 35.8782 37.4523 36.1235C37.8795 34.5966 38.2992 33.0987 38.2992 33.0987C38.2992 33.0987 38.7327 34.0328 39.9562 33.938C41.693 33.8002 43.8064 32.1142 44.834 29.0161C45.9197 25.7234 45.8249 21.9896 43.6041 21.6699C41.8092 21.4158 40.9548 23.0021 40.8322 23.3194C40.8322 23.3194 41.2165 21.8784 40.0713 22.1325C38.9792 22.3714 38.7833 22.8555 38.5078 23.7315C38.4572 23.8831 37.5383 27.3072 36.5764 30.9108C36.5625 30.9323 36.5473 30.9614 36.541 30.9904C36.3021 31.8082 35.8319 32.0762 35.4919 32.0977C34.3922 32.1697 36.7584 24.912 36.9391 24.3533C37.178 23.6303 37.3158 23.0792 36.5119 22.7758C35.9697 22.5736 35.2302 22.6457 35.0142 23.2246C34.9194 23.4711 34.8548 23.6442 34.8548 23.6442C34.8548 23.6442 34.2393 22.7253 32.8717 22.8479C31.504 22.9705 29.775 24.6352 28.6374 27.5588C27.4947 30.476 27.0018 34.6661 29.7079 35.0845C31.0832 35.2943 32.2409 34.5132 32.8414 33.2176C32.8414 33.2176 32.7327 34.0859 33.6453 34.5132C34.0004 34.6788 34.8827 34.6143 35.722 34.1441C35.5045 34.9695 35.2948 35.743 35.114 36.4382C29.2668 37.2484 24.6559 38.1534 24.6559 38.1534C24.6559 38.1534 27.8625 27.3047 28.5856 24.9246C29.1935 22.9276 28.0496 23.3611 27.2104 23.6076C26.3129 23.868 25.8857 24.6213 25.4369 25.9965C23.4753 31.9965 21.9269 33.8635 20.8057 33.4577C19.7781 33.0887 23.0127 26.7208 22.2391 25.8815C21.5667 25.1509 20.1839 25.1938 19.9159 25.6211C19.6556 26.0483 20.0461 26.4465 19.8729 27.0545C19.7074 27.6624 18.4105 30.955 18.274 31.6932C18.1363 32.4314 17.0151 36.5204 19.9893 36.3396C21.7474 36.2385 22.9494 34.9063 23.0796 34.5372C22.5298 36.1222 21.7474 38.6919 21.7474 38.6919C21.7474 38.6919 18.1501 39.5893 15.2847 42.5925C13.0045 44.9739 11.398 50.1043 14.7993 50.9221C20.0815 52.1962 22.5867 44.1257 23.8671 41.0871C28.152 40.1315 31.4219 39.5021 34.4479 39.0243L34.4492 39.0269ZM39.7249 28.2362V28.2286C40.448 25.8625 41.1141 24.9208 41.7372 24.6529C43.2274 24.0158 43.5105 25.8827 42.3591 28.7267C41.0269 32.0118 39.4709 31.9397 38.8781 31.2887C38.8781 31.2887 38.9577 30.725 39.7249 28.235V28.2362ZM33.0663 29.6544C32.4293 31.1952 31.8289 32.281 31.0035 32.2885C29.8242 32.2961 29.8521 30.5228 30.6926 28.2868C31.4016 26.4123 32.6897 25.2255 33.3848 25.0953C34.0801 24.9651 34.8902 25.2545 33.0663 29.6544ZM17.4474 47.608C14.6388 50.1195 15.3479 46.6827 16.3907 45.1988C18.3739 42.384 20.8273 41.6673 20.8273 41.6673C19.5822 45.3075 18.0263 47.0948 17.4474 47.608Z" fill="white"/>
<path d="M48.409 33.1935C50.1318 33.1214 51.622 31.8765 52.1656 30.9499C52.4259 30.5013 52.5347 29.7997 52.4841 29.4875C52.3539 28.6116 51.818 28.4814 50.9066 29.6316C50.6816 29.8844 48.888 31.4846 48.0046 30.5366C47.3675 29.849 47.9034 28.5029 47.9325 28.5029C49.0827 28.4157 51.0949 27.9531 52.6939 26.1077H52.6876C53.7518 24.8778 54.236 22.2588 52.4563 21.2957C50.2999 20.1303 47.4914 21.9113 46.3272 25.7461C45.292 29.1538 44.9091 33.3528 48.4115 33.1923L48.409 33.1935ZM50.109 23.1196V23.1272C51.0785 22.2222 51.9974 23.3079 50.8839 24.8576C49.7551 26.4287 48.4305 26.3844 48.4242 26.435C48.5619 25.8195 49.0536 24.1118 50.1103 23.1196H50.109Z" fill="white"/>
<path d="M388.19 369.258L386.948 365.914C386.223 366.515 385.332 366.854 384.386 366.891L385.622 370.223C385.704 370.444 385.947 370.555 386.166 370.473L387.942 369.805C388.161 369.723 388.271 369.478 388.19 369.258Z" fill="#F5F5F5"/>
<path d="M383.943 358.5C381.312 358.502 380 358.321 380 362.476C380.002 364.466 380.068 365.458 380.596 365.953L381.787 362.537C381.869 362.301 382.037 362.113 382.261 362.005C382.484 361.896 382.736 361.882 382.97 361.965L384.836 362.624C385.069 362.707 385.257 362.876 385.364 363.101C385.472 363.326 385.485 363.579 385.403 363.814L384.501 366.401C386.419 366.128 387.895 364.474 387.894 362.468C387.891 360.274 386.122 358.498 383.943 358.5Z" fill="#F5F5F5"/>
<path d="M384.655 363.143L382.789 362.484C382.59 362.413 382.372 362.519 382.302 362.719L380.022 369.26C379.952 369.459 380.057 369.679 380.256 369.749L382.122 370.408C382.321 370.479 382.538 370.374 382.608 370.173L384.889 363.632C384.958 363.432 384.854 363.213 384.655 363.143Z" fill="#F5F5F5"/>
<path d="M393.62 368.25V360.614H396.19C396.786 360.614 397.274 360.722 397.653 360.938C398.034 361.152 398.316 361.441 398.5 361.807C398.683 362.172 398.774 362.58 398.774 363.03C398.774 363.48 398.683 363.889 398.5 364.257C398.319 364.624 398.039 364.918 397.66 365.137C397.282 365.353 396.796 365.461 396.205 365.461H394.363V364.641H396.175C396.583 364.641 396.911 364.57 397.159 364.428C397.407 364.286 397.586 364.095 397.698 363.854C397.811 363.61 397.868 363.336 397.868 363.03C397.868 362.724 397.811 362.451 397.698 362.21C397.586 361.968 397.405 361.779 397.155 361.643C396.905 361.504 396.573 361.434 396.16 361.434H394.541V368.25H393.62ZM402.395 368.369C401.88 368.369 401.429 368.246 401.04 368C400.654 367.754 400.352 367.41 400.134 366.967C399.918 366.525 399.811 366.008 399.811 365.416C399.811 364.82 399.918 364.299 400.134 363.854C400.352 363.409 400.654 363.063 401.04 362.817C401.429 362.571 401.88 362.448 402.395 362.448C402.91 362.448 403.361 362.571 403.747 362.817C404.136 363.063 404.438 363.409 404.653 363.854C404.871 364.299 404.98 364.82 404.98 365.416C404.98 366.008 404.871 366.525 404.653 366.967C404.438 367.41 404.136 367.754 403.747 368C403.361 368.246 402.91 368.369 402.395 368.369ZM402.395 367.579C402.787 367.579 403.108 367.478 403.361 367.277C403.613 367.075 403.8 366.811 403.922 366.483C404.043 366.155 404.104 365.799 404.104 365.416C404.104 365.033 404.043 364.677 403.922 364.346C403.8 364.015 403.613 363.748 403.361 363.544C403.108 363.341 402.787 363.239 402.395 363.239C402.004 363.239 401.682 363.341 401.43 363.544C401.177 363.748 400.99 364.015 400.869 364.346C400.748 364.677 400.687 365.033 400.687 365.416C400.687 365.799 400.748 366.155 400.869 366.483C400.99 366.811 401.177 367.075 401.43 367.277C401.682 367.478 402.004 367.579 402.395 367.579ZM407.416 368.25L405.678 362.523H406.599L407.832 366.908H407.892L409.11 362.523H410.046L411.249 366.893H411.308L412.541 362.523H413.462L411.724 368.25H410.863L409.615 363.85H409.526L408.278 368.25H407.416ZM416.818 368.369C416.269 368.369 415.795 368.248 415.396 368.004C415 367.758 414.694 367.415 414.479 366.975C414.266 366.532 414.16 366.018 414.16 365.431C414.16 364.844 414.266 364.327 414.479 363.88C414.694 363.43 414.994 363.08 415.378 362.828C415.764 362.575 416.214 362.448 416.729 362.448C417.026 362.448 417.32 362.498 417.61 362.597C417.899 362.697 418.163 362.858 418.401 363.082C418.638 363.303 418.828 363.597 418.969 363.962C419.11 364.327 419.18 364.777 419.18 365.312V365.685H414.783V364.924H418.289C418.289 364.601 418.225 364.312 418.096 364.059C417.97 363.805 417.789 363.605 417.554 363.459C417.321 363.312 417.046 363.239 416.729 363.239C416.38 363.239 416.078 363.326 415.823 363.5C415.571 363.671 415.376 363.895 415.24 364.171C415.104 364.447 415.036 364.743 415.036 365.058V365.565C415.036 365.998 415.11 366.364 415.259 366.665C415.41 366.964 415.619 367.191 415.886 367.348C416.154 367.502 416.464 367.579 416.818 367.579C417.049 367.579 417.257 367.546 417.442 367.482C417.631 367.415 417.793 367.315 417.929 367.184C418.065 367.049 418.17 366.883 418.245 366.684L419.091 366.923C419.002 367.211 418.852 367.465 418.642 367.683C418.432 367.9 418.172 368.068 417.862 368.19C417.553 368.31 417.205 368.369 416.818 368.369ZM420.514 368.25V362.523H421.36V363.388H421.42C421.524 363.104 421.712 362.874 421.984 362.698C422.257 362.521 422.564 362.433 422.905 362.433C422.97 362.433 423.05 362.434 423.147 362.437C423.243 362.439 423.316 362.443 423.366 362.448V363.343C423.336 363.336 423.268 363.324 423.162 363.309C423.058 363.292 422.947 363.283 422.831 363.283C422.554 363.283 422.306 363.342 422.088 363.459C421.873 363.573 421.702 363.732 421.576 363.936C421.452 364.137 421.39 364.367 421.39 364.626V368.25H420.514ZM426.623 368.369C426.073 368.369 425.599 368.248 425.2 368.004C424.804 367.758 424.498 367.415 424.283 366.975C424.07 366.532 423.964 366.018 423.964 365.431C423.964 364.844 424.07 364.327 424.283 363.88C424.498 363.43 424.798 363.08 425.182 362.828C425.568 362.575 426.019 362.448 426.534 362.448C426.831 362.448 427.124 362.498 427.414 362.597C427.703 362.697 427.967 362.858 428.205 363.082C428.442 363.303 428.632 363.597 428.773 363.962C428.914 364.327 428.985 364.777 428.985 365.312V365.685H424.588V364.924H428.093C428.093 364.601 428.029 364.312 427.9 364.059C427.774 363.805 427.593 363.605 427.358 363.459C427.125 363.312 426.851 363.239 426.534 363.239C426.185 363.239 425.882 363.326 425.627 363.5C425.375 363.671 425.181 363.895 425.044 364.171C424.908 364.447 424.84 364.743 424.84 365.058V365.565C424.84 365.998 424.914 366.364 425.063 366.665C425.214 366.964 425.423 367.191 425.691 367.348C425.958 367.502 426.269 367.579 426.623 367.579C426.853 367.579 427.061 367.546 427.247 367.482C427.435 367.415 427.597 367.315 427.733 367.184C427.869 367.049 427.975 366.883 428.049 366.684L428.896 366.923C428.806 367.211 428.657 367.465 428.446 367.683C428.236 367.9 427.976 368.068 427.666 368.19C427.357 368.31 427.009 368.369 426.623 368.369ZM432.472 368.369C431.996 368.369 431.577 368.249 431.213 368.008C430.849 367.764 430.564 367.421 430.359 366.979C430.153 366.534 430.05 366.008 430.05 365.401C430.05 364.8 430.153 364.278 430.359 363.835C430.564 363.393 430.85 363.051 431.217 362.81C431.583 362.569 432.006 362.448 432.487 362.448C432.858 362.448 433.151 362.51 433.367 362.635C433.585 362.756 433.751 362.896 433.864 363.052C433.981 363.206 434.071 363.333 434.136 363.433H434.21V360.614H435.086V368.25H434.24V367.37H434.136C434.071 367.474 433.98 367.606 433.861 367.765C433.742 367.922 433.572 368.062 433.352 368.187C433.132 368.308 432.838 368.369 432.472 368.369ZM432.591 367.579C432.942 367.579 433.239 367.487 433.482 367.303C433.725 367.116 433.909 366.859 434.035 366.531C434.162 366.2 434.225 365.819 434.225 365.386C434.225 364.959 434.163 364.585 434.039 364.264C433.915 363.941 433.732 363.69 433.489 363.511C433.247 363.329 432.947 363.239 432.591 363.239C432.219 363.239 431.91 363.334 431.662 363.526C431.417 363.715 431.233 363.972 431.109 364.298C430.988 364.621 430.927 364.984 430.927 365.386C430.927 365.794 430.989 366.164 431.113 366.498C431.239 366.828 431.425 367.092 431.67 367.288C431.917 367.482 432.224 367.579 432.591 367.579ZM439.873 368.25V360.614H440.75V363.433H440.824C440.888 363.333 440.977 363.206 441.091 363.052C441.208 362.896 441.374 362.756 441.589 362.635C441.807 362.51 442.101 362.448 442.473 362.448C442.953 362.448 443.377 362.569 443.743 362.81C444.109 363.051 444.395 363.393 444.601 363.835C444.806 364.278 444.909 364.8 444.909 365.401C444.909 366.008 444.806 366.534 444.601 366.979C444.395 367.421 444.111 367.764 443.747 368.008C443.383 368.249 442.963 368.369 442.488 368.369C442.121 368.369 441.828 368.308 441.608 368.187C441.387 368.062 441.218 367.922 441.099 367.765C440.98 367.606 440.888 367.474 440.824 367.37H440.72V368.25H439.873ZM440.735 365.386C440.735 365.819 440.798 366.2 440.924 366.531C441.051 366.859 441.235 367.116 441.478 367.303C441.72 367.487 442.017 367.579 442.369 367.579C442.735 367.579 443.041 367.482 443.286 367.288C443.534 367.092 443.719 366.828 443.843 366.498C443.969 366.164 444.033 365.794 444.033 365.386C444.033 364.984 443.971 364.621 443.847 364.298C443.726 363.972 443.541 363.715 443.294 363.526C443.049 363.334 442.74 363.239 442.369 363.239C442.012 363.239 441.713 363.329 441.47 363.511C441.228 363.69 441.044 363.941 440.921 364.264C440.797 364.585 440.735 364.959 440.735 365.386ZM446.61 370.398C446.461 370.398 446.329 370.385 446.213 370.36C446.096 370.338 446.016 370.316 445.971 370.293L446.194 369.518C446.407 369.572 446.595 369.592 446.758 369.577C446.922 369.562 447.067 369.489 447.193 369.357C447.322 369.228 447.439 369.018 447.546 368.727L447.709 368.28L445.6 362.523H446.551L448.125 367.087H448.185L449.759 362.523H450.71L448.289 369.085C448.18 369.381 448.045 369.626 447.884 369.82C447.723 370.016 447.536 370.162 447.323 370.256C447.113 370.351 446.875 370.398 446.61 370.398ZM456.62 364.432C456.62 364.024 456.719 363.653 456.917 363.317C457.115 362.981 457.381 362.714 457.716 362.515C458.05 362.316 458.42 362.217 458.826 362.217C459.178 362.217 459.502 362.293 459.799 362.444C460.099 362.596 460.346 362.804 460.542 363.067C460.737 363.328 460.859 363.624 460.906 363.955H460.007C459.958 363.699 459.82 363.49 459.595 363.328C459.37 363.164 459.114 363.082 458.826 363.082C458.579 363.082 458.353 363.143 458.151 363.265C457.947 363.387 457.785 363.549 457.664 363.753C457.543 363.957 457.482 364.183 457.482 364.432C457.482 364.68 457.543 364.907 457.664 365.11C457.785 365.314 457.947 365.477 458.151 365.599C458.353 365.721 458.579 365.782 458.826 365.782C459.114 365.782 459.356 365.701 459.554 365.539C459.754 365.375 459.881 365.165 459.933 364.909H460.832C460.785 365.24 460.67 365.537 460.486 365.8C460.303 366.061 460.068 366.268 459.781 366.419C459.496 366.571 459.178 366.647 458.826 366.647C458.42 366.647 458.05 366.547 457.716 366.348C457.381 366.149 457.115 365.882 456.917 365.547C456.719 365.211 456.62 364.84 456.62 364.432ZM458.789 368.369C458.249 368.369 457.742 368.267 457.266 368.064C456.793 367.86 456.377 367.578 456.015 367.217C455.656 366.854 455.373 366.435 455.168 365.961C454.966 365.486 454.865 364.976 454.868 364.432C454.87 363.887 454.973 363.378 455.175 362.903C455.381 362.428 455.663 362.011 456.022 361.65C456.381 361.287 456.797 361.004 457.27 360.8C457.743 360.596 458.249 360.494 458.789 360.494C459.332 360.494 459.839 360.596 460.312 360.8C460.787 361.004 461.203 361.287 461.559 361.65C461.918 362.011 462.199 362.428 462.403 362.903C462.606 363.378 462.708 363.887 462.711 364.432C462.713 364.976 462.613 365.486 462.41 365.961C462.207 366.435 461.926 366.854 461.567 367.217C461.208 367.578 460.791 367.86 460.315 368.064C459.84 368.267 459.332 368.369 458.789 368.369ZM458.789 367.504C459.212 367.504 459.61 367.425 459.982 367.266C460.353 367.107 460.678 366.887 460.958 366.606C461.238 366.325 461.457 365.999 461.615 365.629C461.774 365.256 461.852 364.858 461.849 364.436C461.847 364.01 461.766 363.612 461.608 363.239C461.449 362.866 461.23 362.539 460.95 362.258C460.671 361.977 460.346 361.757 459.978 361.598C459.609 361.439 459.212 361.359 458.789 361.359C458.368 361.359 457.974 361.439 457.605 361.598C457.236 361.757 456.911 361.978 456.631 362.262C456.352 362.543 456.132 362.869 455.97 363.242C455.812 363.613 455.731 364.01 455.729 364.436C455.727 364.856 455.804 365.252 455.963 365.625C456.121 365.995 456.341 366.321 456.62 366.602C456.902 366.883 457.228 367.104 457.597 367.266C457.968 367.425 458.366 367.504 458.789 367.504ZM464.496 368.25V360.614H467.066C467.661 360.614 468.148 360.716 468.529 360.919C468.91 361.121 469.193 361.398 469.376 361.751C469.559 362.104 469.651 362.505 469.651 362.955C469.651 363.405 469.559 363.804 469.376 364.152C469.193 364.5 468.912 364.774 468.533 364.972C468.154 365.169 467.67 365.267 467.081 365.267H465.001V364.432H467.051C467.457 364.432 467.784 364.372 468.032 364.253C468.281 364.134 468.462 363.964 468.574 363.746C468.688 363.525 468.744 363.261 468.744 362.955C468.744 362.65 468.688 362.382 468.574 362.154C468.46 361.925 468.278 361.748 468.028 361.624C467.778 361.497 467.448 361.434 467.036 361.434H465.417V368.25H464.496ZM468.076 364.82L469.948 368.25H468.878L467.036 364.82H468.076ZM473.397 368.369C472.848 368.369 472.373 368.248 471.974 368.004C471.579 367.758 471.273 367.415 471.057 366.975C470.844 366.532 470.738 366.018 470.738 365.431C470.738 364.844 470.844 364.327 471.057 363.88C471.273 363.43 471.573 363.08 471.956 362.828C472.342 362.575 472.793 362.448 473.308 362.448C473.605 362.448 473.899 362.498 474.188 362.597C474.478 362.697 474.741 362.858 474.979 363.082C475.217 363.303 475.406 363.597 475.547 363.962C475.688 364.327 475.759 364.777 475.759 365.312V365.685H471.362V364.924H474.868C474.868 364.601 474.803 364.312 474.675 364.059C474.549 363.805 474.368 363.605 474.132 363.459C473.899 363.312 473.625 363.239 473.308 363.239C472.959 363.239 472.656 363.326 472.402 363.5C472.149 363.671 471.955 363.895 471.819 364.171C471.682 364.447 471.614 364.743 471.614 365.058V365.565C471.614 365.998 471.688 366.364 471.837 366.665C471.989 366.964 472.198 367.191 472.465 367.348C472.733 367.502 473.043 367.579 473.397 367.579C473.628 367.579 473.835 367.546 474.021 367.482C474.209 367.415 474.371 367.315 474.507 367.184C474.643 367.049 474.749 366.883 474.823 366.684L475.67 366.923C475.581 367.211 475.431 367.465 475.22 367.683C475.01 367.9 474.75 368.068 474.44 368.19C474.131 368.31 473.783 368.369 473.397 368.369ZM477.092 368.25V362.523H477.939V363.418H478.013C478.132 363.112 478.324 362.874 478.589 362.705C478.853 362.534 479.172 362.448 479.543 362.448C479.919 362.448 480.232 362.534 480.483 362.705C480.735 362.874 480.932 363.112 481.073 363.418H481.132C481.279 363.122 481.498 362.887 481.79 362.713C482.082 362.536 482.432 362.448 482.841 362.448C483.351 362.448 483.768 362.608 484.093 362.929C484.417 363.247 484.579 363.743 484.579 364.417V368.25H483.703V364.417C483.703 363.994 483.587 363.692 483.357 363.511C483.127 363.329 482.856 363.239 482.544 363.239C482.143 363.239 481.832 363.36 481.612 363.604C481.392 363.845 481.281 364.151 481.281 364.521V368.25H480.39V364.327C480.39 364.002 480.285 363.74 480.074 363.541C479.864 363.339 479.593 363.239 479.261 363.239C479.033 363.239 478.821 363.3 478.622 363.421C478.427 363.543 478.268 363.712 478.147 363.928C478.028 364.142 477.968 364.39 477.968 364.67V368.25H477.092ZM486.181 368.25V362.523H487.058V368.25H486.181ZM486.627 361.568C486.456 361.568 486.309 361.51 486.185 361.393C486.064 361.276 486.003 361.136 486.003 360.972C486.003 360.808 486.064 360.667 486.185 360.55C486.309 360.433 486.456 360.375 486.627 360.375C486.798 360.375 486.944 360.433 487.065 360.55C487.189 360.667 487.251 360.808 487.251 360.972C487.251 361.136 487.189 361.276 487.065 361.393C486.944 361.51 486.798 361.568 486.627 361.568ZM491.144 362.523V363.268H488.188V362.523H491.144ZM489.049 361.151H489.926V366.609C489.926 366.858 489.962 367.044 490.034 367.169C490.108 367.29 490.202 367.372 490.316 367.415C490.432 367.455 490.555 367.474 490.683 367.474C490.78 367.474 490.859 367.469 490.921 367.459C490.983 367.447 491.032 367.437 491.07 367.43L491.248 368.22C491.188 368.243 491.106 368.265 490.999 368.287C490.893 368.312 490.757 368.325 490.595 368.325C490.347 368.325 490.104 368.271 489.866 368.164C489.631 368.057 489.435 367.894 489.28 367.676C489.126 367.457 489.049 367.181 489.049 366.848V361.151ZM494.793 368.369C494.243 368.369 493.769 368.248 493.37 368.004C492.974 367.758 492.668 367.415 492.453 366.975C492.24 366.532 492.133 366.018 492.133 365.431C492.133 364.844 492.24 364.327 492.453 363.88C492.668 363.43 492.968 363.08 493.352 362.828C493.738 362.575 494.188 362.448 494.704 362.448C495 362.448 495.294 362.498 495.584 362.597C495.874 362.697 496.137 362.858 496.375 363.082C496.612 363.303 496.802 363.597 496.943 363.962C497.084 364.327 497.155 364.777 497.155 365.312V365.685H492.758V364.924H496.263C496.263 364.601 496.199 364.312 496.07 364.059C495.944 363.805 495.763 363.605 495.528 363.459C495.295 363.312 495.02 363.239 494.704 363.239C494.354 363.239 494.052 363.326 493.798 363.5C493.545 363.671 493.35 363.895 493.214 364.171C493.078 364.447 493.01 364.743 493.01 365.058V365.565C493.01 365.998 493.084 366.364 493.233 366.665C493.384 366.964 493.593 367.191 493.86 367.348C494.128 367.502 494.439 367.579 494.793 367.579C495.023 367.579 495.231 367.546 495.416 367.482C495.605 367.415 495.767 367.315 495.903 367.184C496.039 367.049 496.145 366.883 496.219 366.684L497.066 366.923C496.976 367.211 496.827 367.465 496.616 367.683C496.405 367.9 496.145 368.068 495.836 368.19C495.527 368.31 495.179 368.369 494.793 368.369ZM500.879 368.369C500.33 368.369 499.856 368.248 499.457 368.004C499.061 367.758 498.755 367.415 498.54 366.975C498.327 366.532 498.221 366.018 498.221 365.431C498.221 364.844 498.327 364.327 498.54 363.88C498.755 363.43 499.055 363.08 499.438 362.828C499.825 362.575 500.276 362.448 500.79 362.448C501.088 362.448 501.381 362.498 501.67 362.597C501.96 362.697 502.224 362.858 502.461 363.082C502.7 363.303 502.889 363.597 503.03 363.962C503.171 364.327 503.241 364.777 503.241 365.312V365.685H498.844V364.924H502.35C502.35 364.601 502.286 364.312 502.157 364.059C502.031 363.805 501.85 363.605 501.615 363.459C501.382 363.312 501.107 363.239 500.79 363.239C500.441 363.239 500.139 363.326 499.884 363.5C499.632 363.671 499.437 363.895 499.301 364.171C499.165 364.447 499.097 364.743 499.097 365.058V365.565C499.097 365.998 499.171 366.364 499.319 366.665C499.471 366.964 499.68 367.191 499.948 367.348C500.215 367.502 500.525 367.579 500.879 367.579C501.11 367.579 501.318 367.546 501.504 367.482C501.692 367.415 501.854 367.315 501.99 367.184C502.126 367.049 502.231 366.883 502.306 366.684L503.152 366.923C503.063 367.211 502.913 367.465 502.703 367.683C502.493 367.9 502.233 368.068 501.923 368.19C501.613 368.31 501.265 368.369 500.879 368.369Z" fill="#F5F5F5"/>
</g>
<defs>
<filter id="filter0_f_721_25439" x="-83.0642" y="-26.401" width="669.277" height="576.505" filterUnits="userSpaceOnUse" color-interpolation-filters="sRGB">
<feFlood flood-opacity="0" result="BackgroundImageFix"/>
<feBlend mode="normal" in="SourceGraphic" in2="BackgroundImageFix" result="shape"/>
<feGaussianBlur stdDeviation="77.9863" result="effect1_foregroundBlur_721_25439"/>
</filter>
<filter id="filter1_d_721_25439" x="62.8326" y="72.6058" width="394.335" height="48.6972" filterUnits="userSpaceOnUse" color-interpolation-filters="sRGB">
<feFlood flood-opacity="0" result="BackgroundImageFix"/>
<feColorMatrix in="SourceAlpha" type="matrix" values="0 0 0 0 0 0 0 0 0 0 0 0 0 0 0 0 0 0 127 0" result="hardAlpha"/>
<feOffset dy="5.22792"/>
<feGaussianBlur stdDeviation="2.61396"/>
<feComposite in2="hardAlpha" operator="out"/>
<feColorMatrix type="matrix" values="0 0 0 0 0 0 0 0 0 0 0 0 0 0 0 0 0 0 0.4 0"/>
<feBlend mode="normal" in2="BackgroundImageFix" result="effect1_dropShadow_721_25439"/>
<feBlend mode="normal" in="SourceGraphic" in2="effect1_dropShadow_721_25439" result="shape"/>
</filter>
<filter id="filter2_d_721_25439" x="-3.59613" y="110.847" width="527.192" height="50.4918" filterUnits="userSpaceOnUse" color-interpolation-filters="sRGB">
<feFlood flood-opacity="0" result="BackgroundImageFix"/>
<feColorMatrix in="SourceAlpha" type="matrix" values="0 0 0 0 0 0 0 0 0 0 0 0 0 0 0 0 0 0 127 0" result="hardAlpha"/>
<feOffset dy="3.59613"/>
<feGaussianBlur stdDeviation="1.79807"/>
<feComposite in2="hardAlpha" operator="out"/>
<feColorMatrix type="matrix" values="0 0 0 0 0 0 0 0 0 0 0 0 0 0 0 0 0 0 0.4 0"/>
<feBlend mode="normal" in2="BackgroundImageFix" result="effect1_dropShadow_721_25439"/>
<feBlend mode="normal" in="SourceGraphic" in2="effect1_dropShadow_721_25439" result="shape"/>
</filter>
<radialGradient id="paint0_radial_721_25439" cx="0" cy="0" r="1" gradientUnits="userSpaceOnUse" gradientTransform="translate(504.833 -327.526) rotate(82.1784) scale(640.372 577.736)">
<stop stop-color="#44DFD7"/>
<stop offset="1" stop-color="#6A029D"/>
</radialGradient>
<clipPath id="clip0_721_25439">
<rect width="520" height="392" rx="12" fill="white"/>
</clipPath>
<clipPath id="clip1_721_25439">
<rect width="213.863" height="572.477" fill="white" transform="translate(139.896 163)"/>
</clipPath>
</defs>
</svg>
