<svg width="520" height="392" viewBox="0 0 520 392" fill="none" xmlns="http://www.w3.org/2000/svg">
<g clip-path="url(#clip0_721_29474)">
<rect width="520" height="392" rx="12" fill="#52006B"/>
<rect width="520" height="578.933" transform="translate(0 -58.9331)" fill="url(#paint0_radial_721_29474)"/>
<g opacity="0.5">
<path fill-rule="evenodd" clip-rule="evenodd" d="M445.371 -23.3036H415.178V-25.2295H447.297V0.289028H392.89V-1.6369H445.371V-23.3036Z" fill="#3F0D4A"/>
<path fill-rule="evenodd" clip-rule="evenodd" d="M80.8887 71.0666H50.6952V69.1406H82.8146V94.6592H28.4072V92.7332H80.8887V71.0666Z" fill="#3F0D4A"/>
<path fill-rule="evenodd" clip-rule="evenodd" d="M305.741 165.437H275.548V163.511H307.667V189.029H253.26V187.103H305.741V165.437Z" fill="#3F0D4A"/>
<path fill-rule="evenodd" clip-rule="evenodd" d="M467.519 0.289207H437.325V-1.63672H469.445V23.8818H415.037V21.9559H467.519V0.289207Z" fill="#3F0D4A"/>
<path fill-rule="evenodd" clip-rule="evenodd" d="M103.037 94.6593H72.8436V92.7334H104.963V118.252H50.5557V116.326H103.037V94.6593Z" fill="#3F0D4A"/>
<path fill-rule="evenodd" clip-rule="evenodd" d="M327.889 141.844H297.695V139.918H329.815V165.437H275.407V163.511H327.889V141.844Z" fill="#3F0D4A"/>
<path fill-rule="evenodd" clip-rule="evenodd" d="M327.889 189.029H297.695V187.104H329.815V212.622H275.407V210.696H327.889V189.029Z" fill="#3F0D4A"/>
<path fill-rule="evenodd" clip-rule="evenodd" d="M104.963 116.326L135.156 116.326L135.156 118.252L103.037 118.252L103.037 92.7334L157.444 92.7334L157.444 94.6594L104.963 94.6594L104.963 116.326Z" fill="#3F0D4A"/>
<path fill-rule="evenodd" clip-rule="evenodd" d="M329.815 163.511L360.009 163.511L360.009 165.437L327.889 165.437L327.889 139.918L382.297 139.918L382.297 141.844L329.815 141.844L329.815 163.511Z" fill="#3F0D4A"/>
<path fill-rule="evenodd" clip-rule="evenodd" d="M329.815 210.697L360.009 210.697L360.009 212.623L327.889 212.623L327.889 187.104L382.297 187.104L382.297 189.03L329.815 189.03L329.815 210.697Z" fill="#3F0D4A"/>
<path fill-rule="evenodd" clip-rule="evenodd" d="M447.296 -23.3036H494.963V-25.2295H445.37V0.289028H478.013V-1.6369H447.296V-23.3036Z" fill="#3F0D4A"/>
<path fill-rule="evenodd" clip-rule="evenodd" d="M131.444 69.1406H80.8888V94.6592H131.444V69.1406ZM129.518 71.0666V92.7332H82.8147V71.0666H129.518Z" fill="#3F0D4A"/>
<path fill-rule="evenodd" clip-rule="evenodd" d="M356.297 163.511H305.741V189.029H356.297V163.511ZM354.371 165.437V187.103H307.667V165.437H354.371Z" fill="#3F0D4A"/>
<rect y="311.134" width="520" height="208.867" fill="#3F0D4A"/>
</g>
<g style="mix-blend-mode:screen" opacity="0.9" filter="url(#filter0_f_721_29474)">
<ellipse cx="255.969" cy="318.848" rx="206.136" ry="136.07" transform="rotate(21.0304 255.969 318.848)" fill="#9E26C8"/>
</g>
<g filter="url(#filter1_d_721_29474)">
<path d="M148.253 102.876H139.853L139.401 99.0519H134.961L133.773 102.876H125.733L133.148 78.1387H145.348L148.253 102.876ZM139.27 93.9132L138.506 85.6276H138.346L136.03 93.9132H139.27ZM164.792 102.876H149.872L152.127 78.1387H160.687L159.017 96.4627H165.937L164.792 102.876ZM177.911 96.7813C178.391 96.7813 179.038 96.7017 179.853 96.5423L180.071 94.1522H178.071L178.572 88.6551H188.012L186.715 102.876H180.675L180.192 101.601H180.032C178.543 102.717 176.852 103.274 174.959 103.274C168.719 103.274 165.982 99.0785 166.747 90.6866C167.129 86.4907 168.261 83.2906 170.142 81.0865C172.052 78.8557 175.021 77.7403 179.047 77.7403C182.034 77.7403 184.823 78.152 187.415 78.9752L185.412 86.4641C182.5 85.6409 180.391 85.2293 179.084 85.2293C177.804 85.2293 176.912 85.6542 176.408 86.504C175.931 87.3538 175.599 88.8011 175.412 90.846C175.226 92.8908 175.276 94.3913 175.562 95.3473C175.875 96.3033 176.658 96.7813 177.911 96.7813ZM190.408 90.3679C190.812 85.933 191.985 82.7197 193.927 80.7279C195.895 78.7362 198.906 77.7403 202.959 77.7403C207.039 77.7403 209.856 78.7229 211.41 80.6881C212.991 82.6533 213.579 85.8533 213.175 90.2883C212.773 94.6967 211.568 97.9631 209.561 100.088C207.581 102.212 204.577 103.274 200.551 103.274C196.551 103.274 193.753 102.225 192.158 100.127C190.589 98.0295 190.006 94.7763 190.408 90.3679ZM204.48 85.6276C204.196 84.9371 203.481 84.5919 202.334 84.5919C201.188 84.5919 200.424 84.9239 200.044 85.5878C199.663 86.2517 199.373 87.6725 199.175 89.8501L199.015 91.6028C198.812 93.8336 198.853 95.2809 199.139 95.9448C199.425 96.6087 200.155 96.9407 201.328 96.9407C202.502 96.9407 203.264 96.622 203.616 95.9846C203.967 95.3473 204.243 93.9265 204.444 91.7223L204.611 89.8899C204.81 87.7123 204.766 86.2915 204.48 85.6276ZM222.392 86.0658C222.632 83.4367 223.618 81.3919 225.352 79.9312C227.085 78.4706 229.365 77.7403 232.191 77.7403C235.045 77.7403 237.954 78.0059 240.919 78.537L239.359 85.5479C236.087 84.884 233.93 84.5521 232.89 84.5521C231.85 84.5521 231.301 84.8708 231.243 85.5081C231.221 85.7471 231.285 85.9197 231.436 86.026C231.589 86.1056 231.702 86.172 231.778 86.2251C231.853 86.2782 231.993 86.3446 232.199 86.4243C232.432 86.504 232.612 86.5836 232.738 86.6633C232.893 86.7164 233.355 86.9156 234.123 87.2608C234.921 87.5795 235.51 87.8451 235.891 88.0575C236.3 88.2434 236.845 88.5621 237.523 89.0136C239.48 90.3679 240.338 92.3597 240.099 94.9888C239.859 97.6179 238.886 99.6627 237.179 101.123C235.475 102.557 233.143 103.274 230.183 103.274C227.25 103.274 224.402 102.916 221.641 102.199L222.815 95.4668C226.306 96.3697 228.678 96.8212 229.931 96.8212C230.758 96.8212 231.198 96.5291 231.251 95.9448C231.276 95.6792 231.188 95.4668 230.989 95.3075C230.817 95.1481 230.54 94.9755 230.157 94.7896C229.8 94.6037 229.262 94.3647 228.542 94.0726C227.824 93.7539 227.222 93.4883 226.735 93.2759C226.25 93.0369 225.683 92.6784 225.033 92.2003C223.033 90.7397 222.152 88.6949 222.392 86.0658ZM262.315 102.876H253.915L253.464 99.0519H249.024L247.835 102.876H239.795L247.211 78.1387H259.411L262.315 102.876ZM253.333 93.9132L252.568 85.6276H252.408L250.093 93.9132H253.333ZM278.854 102.876H263.934L266.19 78.1387H274.75L273.079 96.4627H279.999L278.854 102.876ZM289.138 102.876H280.698L282.953 78.1387H291.393L289.138 102.876ZM292.908 90.3679C293.312 85.933 294.485 82.7197 296.427 80.7279C298.395 78.7362 301.406 77.7403 305.459 77.7403C309.539 77.7403 312.356 78.7229 313.91 80.6881C315.491 82.6533 316.079 85.8533 315.675 90.2883C315.273 94.6967 314.068 97.9631 312.061 100.088C310.081 102.212 307.077 103.274 303.051 103.274C299.051 103.274 296.253 102.225 294.658 100.127C293.089 98.0295 292.506 94.7763 292.908 90.3679ZM306.98 85.6276C306.696 84.9371 305.981 84.5919 304.834 84.5919C303.688 84.5919 302.924 84.9239 302.544 85.5878C302.163 86.2517 301.873 87.6725 301.675 89.8501L301.515 91.6028C301.312 93.8336 301.353 95.2809 301.639 95.9448C301.925 96.6087 302.655 96.9407 303.828 96.9407C305.002 96.9407 305.764 96.622 306.116 95.9846C306.467 95.3473 306.743 93.9265 306.944 91.7223L307.111 89.8899C307.31 87.7123 307.266 86.2915 306.98 85.6276ZM313.378 71.6058L307.648 76.5453H302.368L305.258 71.6058H313.378ZM351.599 102.876H344.039L345.114 91.085H344.914L341.479 102.876H334.479L333.234 91.085H333.034L331.959 102.876H324.479L327.695 78.1387H338.335L339.194 89.3322H339.554L342.415 78.1387H352.935L351.599 102.876ZM375.636 102.876H367.236L366.784 99.0519H362.344L361.156 102.876H353.116L360.531 78.1387H372.731L375.636 102.876ZM366.653 93.9132L365.888 85.6276H365.728L363.413 93.9132H366.653ZM392.175 102.876H377.255L379.51 78.1387H388.07L386.399 96.4627H393.319L392.175 102.876Z" fill="white"/>
</g>
<g filter="url(#filter2_d_721_29474)">
<path d="M70.7551 131.995H69.0351L68.3304 139.723H59.9304L62.1861 114.986H71.8661C75.1461 114.986 77.4722 115.65 78.8445 116.978C80.2167 118.305 80.7636 120.496 80.4851 123.55C80.2067 126.604 79.2881 128.782 77.7294 130.083C76.1732 131.358 73.8484 131.995 70.7551 131.995ZM71.6818 126.219C71.9605 125.794 72.1459 125.077 72.2379 124.068C72.3299 123.059 72.262 122.342 72.0341 121.917C71.8328 121.492 71.3855 121.28 70.6922 121.28H69.8522L69.3437 126.857H70.3837C70.997 126.857 71.4297 126.644 71.6818 126.219ZM96.7861 139.723H80.9461L83.2017 114.986H99.6017L98.4424 121.559H91.1624L90.8899 124.546H97.2499L96.7269 130.282H90.3669L90.0582 133.668H97.8982L96.7861 139.723ZM120.553 122.953C120.407 124.546 120.025 125.821 119.404 126.777C118.813 127.706 117.938 128.53 116.779 129.247L119.544 139.723H110.704L109.001 131.199H108.361L107.584 139.723H99.3836L101.639 114.986H112.239C115.333 114.986 117.553 115.636 118.901 116.938C120.252 118.212 120.802 120.217 120.553 122.953ZM109.644 126.339C110.257 126.339 110.7 126.166 110.971 125.821C111.272 125.449 111.463 124.812 111.546 123.909C111.628 123.006 111.551 122.382 111.316 122.037C111.081 121.691 110.684 121.519 110.124 121.519H109.084L108.644 126.339H109.644ZM122.263 127.215C122.668 122.78 123.841 119.567 125.782 117.575C127.75 115.583 130.761 114.588 134.815 114.588C138.895 114.588 141.712 115.57 143.266 117.535C144.847 119.5 145.435 122.701 145.03 127.135C144.628 131.544 143.424 134.81 141.417 136.935C139.436 139.059 136.433 140.122 132.406 140.122C128.406 140.122 125.609 139.073 124.013 136.975C122.445 134.877 121.861 131.623 122.263 127.215ZM136.335 122.475C136.052 121.784 135.336 121.439 134.19 121.439C133.043 121.439 132.28 121.771 131.899 122.435C131.518 123.099 131.229 124.52 131.03 126.697L130.871 128.45C130.667 130.681 130.709 132.128 130.995 132.792C131.281 133.456 132.01 133.788 133.184 133.788C134.357 133.788 135.12 133.469 135.471 132.832C135.822 132.194 136.099 130.774 136.3 128.569L136.467 126.737C136.665 124.559 136.622 123.139 136.335 122.475ZM169.755 139.723H153.915L156.17 114.986H172.57L171.411 121.559H164.131L163.859 124.546H170.219L169.696 130.282H163.336L163.027 133.668H170.867L169.755 139.723ZM172.685 122.913C172.925 120.284 173.911 118.239 175.644 116.778C177.378 115.318 179.658 114.588 182.484 114.588C185.338 114.588 188.247 114.853 191.212 115.384L189.652 122.395C186.38 121.731 184.223 121.399 183.183 121.399C182.143 121.399 181.594 121.718 181.536 122.355C181.514 122.594 181.578 122.767 181.729 122.873C181.881 122.953 181.995 123.019 182.071 123.072C182.146 123.125 182.286 123.192 182.492 123.271C182.725 123.351 182.905 123.431 183.031 123.51C183.186 123.564 183.648 123.763 184.416 124.108C185.214 124.427 185.803 124.692 186.184 124.905C186.593 125.091 187.138 125.409 187.816 125.861C189.773 127.215 190.631 129.207 190.391 131.836C190.152 134.465 189.179 136.51 187.472 137.97C185.768 139.405 183.436 140.122 180.476 140.122C177.543 140.122 174.695 139.763 171.934 139.046L173.108 132.314C176.599 133.217 178.971 133.668 180.224 133.668C181.051 133.668 181.491 133.376 181.544 132.792C181.569 132.526 181.481 132.314 181.282 132.155C181.11 131.995 180.833 131.823 180.45 131.637C180.093 131.451 179.555 131.212 178.835 130.92C178.117 130.601 177.515 130.336 177.028 130.123C176.543 129.884 175.976 129.526 175.326 129.048C173.326 127.587 172.445 125.542 172.685 122.913ZM210.69 121.718H205.41L203.768 139.723H195.248L196.89 121.718H191.33L192.304 114.986H211.784L210.69 121.718ZM231.632 139.723H223.232L222.78 135.899H218.34L217.152 139.723H209.112L216.527 114.986H228.727L231.632 139.723ZM222.649 130.76L221.884 122.475H221.724L219.409 130.76H222.649ZM260.291 139.723H252.731L253.806 127.932H253.606L250.171 139.723H243.171L241.926 127.932H241.726L240.651 139.723H233.171L236.386 114.986H247.026L247.886 126.179H248.246L251.106 114.986H261.626L260.291 139.723ZM263.748 127.215C264.152 122.78 265.325 119.567 267.267 117.575C269.235 115.583 272.246 114.588 276.299 114.588C280.379 114.588 283.196 115.57 284.75 117.535C286.331 119.5 286.919 122.701 286.515 127.135C286.113 131.544 284.908 134.81 282.901 136.935C280.921 139.059 277.917 140.122 273.891 140.122C269.891 140.122 267.093 139.073 265.498 136.975C263.929 134.877 263.346 131.623 263.748 127.215ZM277.82 122.475C277.536 121.784 276.821 121.439 275.674 121.439C274.528 121.439 273.764 121.771 273.383 122.435C273.003 123.099 272.713 124.52 272.515 126.697L272.355 128.45C272.152 130.681 272.193 132.128 272.479 132.792C272.765 133.456 273.495 133.788 274.668 133.788C275.842 133.788 276.604 133.469 276.955 132.832C277.307 132.194 277.583 130.774 277.784 128.569L277.951 126.737C278.15 124.559 278.106 123.139 277.82 122.475ZM288.115 122.913C288.355 120.284 289.341 118.239 291.074 116.778C292.807 115.318 295.087 114.588 297.914 114.588C300.767 114.588 303.676 114.853 306.641 115.384L305.082 122.395C301.809 121.731 299.653 121.399 298.613 121.399C297.573 121.399 297.024 121.718 296.966 122.355C296.944 122.594 297.008 122.767 297.158 122.873C297.311 122.953 297.425 123.019 297.5 123.072C297.575 123.125 297.716 123.192 297.922 123.271C298.155 123.351 298.334 123.431 298.46 123.51C298.615 123.564 299.077 123.763 299.846 124.108C300.643 124.427 301.233 124.692 301.613 124.905C302.023 125.091 302.567 125.409 303.246 125.861C305.203 127.215 306.061 129.207 305.821 131.836C305.581 134.465 304.608 136.51 302.902 137.97C301.198 139.405 298.866 140.122 295.906 140.122C292.972 140.122 290.125 139.763 287.364 139.046L288.538 132.314C292.029 133.217 294.401 133.668 295.654 133.668C296.481 133.668 296.921 133.376 296.974 132.792C296.998 132.526 296.911 132.314 296.712 132.155C296.54 131.995 296.262 131.823 295.879 131.637C295.523 131.451 294.985 131.212 294.265 130.92C293.547 130.601 292.945 130.336 292.457 130.123C291.972 129.884 291.405 129.526 290.755 129.048C288.755 127.587 287.875 125.542 288.115 122.913ZM323.676 127.653C323.492 129.672 323.584 131.145 323.953 132.075C324.324 132.978 325.042 133.429 326.109 133.429C327.176 133.429 328.976 133.137 331.509 132.553L332.211 138.887C329.523 139.71 326.965 140.122 324.539 140.122C320.832 140.122 318.221 139.073 316.706 136.975C315.219 134.85 314.666 131.703 315.047 127.534C315.429 123.338 316.601 120.138 318.562 117.934C320.525 115.703 323.494 114.588 327.467 114.588C329.787 114.588 332.066 115.039 334.304 115.942L332.337 123.032C329.767 122.262 327.989 121.877 327.002 121.877C326.042 121.877 325.293 122.342 324.755 123.271C324.22 124.174 323.86 125.635 323.676 127.653ZM333.669 127.215C334.074 122.78 335.247 119.567 337.188 117.575C339.157 115.583 342.167 114.588 346.221 114.588C350.301 114.588 353.118 115.57 354.672 117.535C356.253 119.5 356.841 122.701 356.437 127.135C356.035 131.544 354.83 134.81 352.823 136.935C350.843 139.059 347.839 140.122 343.813 140.122C339.813 140.122 337.015 139.073 335.419 136.975C333.851 134.877 333.267 131.623 333.669 127.215ZM347.742 122.475C347.458 121.784 346.743 121.439 345.596 121.439C344.449 121.439 343.686 121.771 343.305 122.435C342.925 123.099 342.635 124.52 342.437 126.697L342.277 128.45C342.073 130.681 342.115 132.128 342.401 132.792C342.687 133.456 343.417 133.788 344.59 133.788C345.763 133.788 346.526 133.469 346.877 132.832C347.229 132.194 347.505 130.774 347.706 128.569L347.873 126.737C348.072 124.559 348.028 123.139 347.742 122.475ZM378.784 139.723H370.624L366.474 129.964H366.194L365.304 139.723H357.704L359.96 114.986H368.4L372.201 125.064H372.441L373.36 114.986H381.04L378.784 139.723ZM401.003 121.718H395.723L394.081 139.723H385.561L387.203 121.718H381.643L382.616 114.986H402.096L401.003 121.718ZM409.704 139.723H401.264L403.52 114.986H411.96L409.704 139.723ZM424.649 133.629C425.129 133.629 425.777 133.549 426.591 133.39L426.809 130.999H424.809L425.31 125.502H434.75L433.454 139.723H427.414L426.93 138.449H426.77C425.281 139.564 423.591 140.122 421.697 140.122C415.457 140.122 412.72 135.926 413.485 127.534C413.868 123.338 414.999 120.138 416.88 117.934C418.79 115.703 421.759 114.588 425.786 114.588C428.772 114.588 431.561 114.999 434.153 115.822L432.15 123.311C429.238 122.488 427.129 122.076 425.823 122.076C424.543 122.076 423.651 122.501 423.146 123.351C422.669 124.201 422.337 125.648 422.151 127.693C421.964 129.738 422.014 131.238 422.3 132.194C422.613 133.15 423.396 133.629 424.649 133.629ZM437.146 127.215C437.55 122.78 438.723 119.567 440.665 117.575C442.633 115.583 445.644 114.588 449.697 114.588C453.777 114.588 456.594 115.57 458.149 117.535C459.729 119.5 460.318 122.701 459.913 127.135C459.511 131.544 458.307 134.81 456.3 136.935C454.319 139.059 451.316 140.122 447.289 140.122C443.289 140.122 440.491 139.073 438.896 136.975C437.327 134.877 436.744 131.623 437.146 127.215ZM451.218 122.475C450.934 121.784 450.219 121.439 449.073 121.439C447.926 121.439 447.162 121.771 446.782 122.435C446.401 123.099 446.112 124.52 445.913 126.697L445.753 128.45C445.55 130.681 445.591 132.128 445.877 132.792C446.164 133.456 446.893 133.788 448.067 133.788C449.24 133.788 450.002 133.469 450.354 132.832C450.705 132.194 450.981 130.774 451.182 128.569L451.35 126.737C451.548 124.559 451.504 123.139 451.218 122.475Z" fill="#F4C12A"/>
</g>
<path d="M309.284 382.062C301.685 381.42 294.952 376.103 292.877 368.312C289.022 353.837 286.052 338.967 284.064 324.128C282.341 311.297 281.316 298.226 281.014 285.276C280.776 275.004 288.902 266.484 299.174 266.247C309.445 266.009 317.965 274.135 318.203 284.407C318.479 295.996 319.394 307.698 320.933 319.185C322.716 332.469 325.37 345.774 328.823 358.737C331.463 368.666 325.563 378.852 315.641 381.501C313.51 382.068 311.367 382.245 309.291 382.07L309.284 382.062Z" fill="#003E75"/>
<path d="M297.724 303.397C307.96 304.261 316.959 296.664 317.823 286.428C318.688 276.192 311.09 267.193 300.854 266.329C290.618 265.464 281.62 273.062 280.755 283.298C279.891 293.534 287.488 302.532 297.724 303.397Z" fill="#2C2044"/>
<path d="M300.86 266.27L193.362 257.192C183.126 256.327 174.127 263.924 173.263 274.16C172.399 284.397 179.996 293.395 190.232 294.26L297.729 303.338C307.965 304.202 316.964 296.605 317.828 286.369C318.693 276.133 311.096 267.134 300.86 266.27Z" fill="#003E75"/>
<path fill-rule="evenodd" clip-rule="evenodd" d="M301.217 291.636C301.623 291.575 302.002 291.854 302.063 292.26C303.067 298.909 304.011 316.834 299.822 335.685C299.733 336.086 299.335 336.339 298.934 336.25C298.533 336.161 298.28 335.763 298.369 335.362C302.513 316.715 301.572 298.978 300.592 292.483C300.531 292.076 300.81 291.697 301.217 291.636Z" fill="#002649"/>
<path d="M223.647 215.42C224.73 254.118 217.931 258.847 216.511 278.109C215.774 288.112 215.154 295.042 217.374 301.34C223.904 319.885 250.187 320.867 252.717 320.929C255.313 320.841 281.518 319.569 287.859 300.981C290.007 294.683 289.332 287.827 288.485 277.743C286.909 258.935 280.028 253.419 280.711 215.129L223.655 215.42L223.647 215.42Z" fill="#2C2044"/>
<path d="M264.595 256.278L267.532 221.501L235.802 218.821L232.865 253.599C230.488 253.54 228.132 253.498 225.833 253.49C228.248 263.438 236.772 270.989 247.299 271.878C257.827 272.767 267.497 266.745 271.545 257.35C269.278 256.965 266.949 256.611 264.595 256.278Z" fill="#FCDABA"/>
<path d="M266.364 235.327L265.166 249.517C259.637 249.647 250.808 248.894 244.045 243.746C238.657 239.648 237.302 234.822 236.902 232.839L266.364 235.327Z" fill="#DCAC82"/>
<path d="M299.613 284.838C300.386 278.691 301.151 272.544 301.924 266.397C297.906 264.729 294.427 263.487 291.74 262.595C291.74 262.595 283.604 259.915 274.181 257.887C273.257 257.689 272.398 257.512 271.545 257.351C269.613 256.986 268 256.715 266.881 256.531L267.412 250.237C267.509 249.088 266.323 248.279 265.289 248.766C261.636 250.474 258.334 251.195 255.722 251.453C254.901 251.533 254.151 251.574 253.479 251.577C252.762 251.583 252.129 251.56 251.602 251.515C247.789 251.231 244.373 249.859 240.35 248.25C237.966 247.302 235.283 246.27 233.231 245.372C232.295 244.964 231.234 245.592 231.148 246.615L230.569 253.465C224.287 253.233 219.126 253.521 215.431 253.859C212.505 254.12 209.729 254.363 204.25 255.319C203.257 255.496 193.376 257.029 193.362 257.192C193.442 270.833 192.901 294.485 192.901 294.485L199.347 378.363C196.044 383.348 192.741 388.326 189.438 393.311C188.181 395.205 188.548 397.753 190.3 399.2C198.198 405.758 216.845 418.719 243.393 419.191C265.648 419.585 282.313 411.002 290.519 405.789C292.46 404.557 293.135 402.038 292.084 399.985C289.615 395.177 287.147 390.37 284.678 385.562C294.081 361.306 299.592 334.07 301.399 317.976C302.253 310.425 302.667 295.176 299.621 284.832L299.613 284.838Z" fill="#003E75"/>
<path d="M190.224 294.259C200.46 295.124 209.459 287.526 210.323 277.29C211.188 267.054 203.59 258.056 193.354 257.191C183.118 256.327 174.12 263.924 173.255 274.16C172.391 284.396 179.988 293.395 190.224 294.259Z" fill="#544A69"/>
<path d="M275.636 204.694L280.1 204.672C283.388 204.655 286.065 207.305 286.082 210.593L286.105 215.057C286.121 218.346 283.471 221.023 280.183 221.039L275.719 221.062L275.636 204.694Z" fill="#DCAC82"/>
<path d="M255.692 170.192L259.412 170.173C271.732 170.11 281.782 180.059 281.845 192.379L282.015 225.859C282.068 236.126 273.777 244.501 263.51 244.553L256.071 244.591C243.75 244.654 233.7 234.705 233.637 222.385L233.486 192.625C233.423 180.305 243.371 170.255 255.692 170.192Z" fill="#FCDABA"/>
<path d="M252.114 212.678C253.104 212.673 253.902 211.603 253.895 210.288C253.888 208.973 253.08 207.912 252.09 207.917C251.1 207.922 250.302 208.992 250.309 210.307C250.316 211.621 251.124 212.683 252.114 212.678Z" fill="#2C2044"/>
<path d="M274.924 212.562C275.914 212.557 276.711 211.487 276.705 210.172C276.698 208.857 275.89 207.795 274.899 207.8C273.909 207.805 273.112 208.875 273.119 210.19C273.125 211.505 273.933 212.567 274.924 212.562Z" fill="#2C2044"/>
<path d="M255.09 200.989C255.03 200.99 254.963 200.975 254.904 200.938C254.135 200.503 252.89 199.966 251.29 199.93C249.482 199.887 248.071 200.475 247.211 200.977C247.033 201.082 246.809 201.024 246.704 200.846C246.599 200.668 246.657 200.445 246.835 200.339C247.785 199.784 249.329 199.144 251.309 199.186C253.057 199.229 254.429 199.817 255.272 200.297C255.451 200.4 255.512 200.623 255.409 200.802C255.342 200.921 255.216 200.989 255.09 200.989Z" fill="#2C2044"/>
<path d="M278.703 200.869C278.629 200.87 278.547 200.848 278.48 200.796C277.822 200.308 276.748 199.756 275.379 199.807C274.174 199.858 273.232 200.391 272.654 200.826C272.491 200.953 272.253 200.917 272.133 200.754C272.006 200.591 272.042 200.36 272.205 200.233C272.864 199.731 273.948 199.13 275.346 199.064C276.93 198.996 278.161 199.645 278.916 200.199C279.08 200.317 279.118 200.555 278.993 200.719C278.919 200.816 278.807 200.869 278.696 200.869L278.703 200.869Z" fill="#2C2044"/>
<path d="M247.108 217.398C248.542 217.391 249.702 216.739 249.697 215.942C249.693 215.145 248.528 214.504 247.094 214.512C245.66 214.519 244.5 215.171 244.504 215.968C244.508 216.765 245.674 217.406 247.108 217.398Z" fill="#FBCCA1"/>
<path d="M279.375 217.234C280.809 217.227 281.968 216.575 281.964 215.778C281.96 214.981 280.794 214.34 279.36 214.348C277.926 214.355 276.767 215.007 276.771 215.804C276.775 216.601 277.941 217.242 279.375 217.234Z" fill="#FBCCA1"/>
<path d="M265.602 232.958C267.57 232.948 269.156 230.958 269.143 228.514C269.131 226.069 267.525 224.095 265.557 224.105C263.589 224.115 262.003 226.105 262.016 228.55C262.028 230.995 263.634 232.968 265.602 232.958Z" fill="#6B222F"/>
<path d="M268.861 230.256C268.334 231.836 267.075 232.951 265.601 232.958C264.128 232.966 262.858 231.871 262.307 230.297C262.455 230.117 263.638 228.698 265.639 228.717C267.566 228.737 268.704 230.063 268.861 230.256Z" fill="#DE4A65"/>
<path opacity="0.5" d="M298.652 317.953C296.159 305.042 291.453 292.862 284.649 281.745C279.61 273.509 273.475 265.973 266.398 259.32C266.849 258.492 267.26 257.601 267.639 256.655C267.366 256.609 267.115 256.573 266.888 256.531C264.863 261.497 261.303 266.252 255.066 266.994C247.184 267.934 234.964 260.205 230.568 253.464C230.263 253.454 229.965 253.443 229.667 253.433C230.832 255.383 232.621 257.363 234.758 259.201C229.665 267.171 225.131 275.591 221.288 284.227C216.854 294.201 213.263 304.627 210.613 315.229C205.297 315.945 199.978 316.773 194.684 317.744L194.741 318.488C207.732 316.106 220.874 314.498 233.883 313.685C250.365 312.665 265.94 311.696 285.974 315.658C291.1 316.673 296.196 317.947 301.212 319.476C301.248 319.225 301.276 318.981 301.304 318.729C300.424 318.461 299.542 318.207 298.652 317.953ZM286.117 314.931C265.988 310.946 250.368 311.919 233.841 312.942C226.388 313.403 218.896 314.137 211.414 315.118C214.044 304.663 217.586 294.374 221.964 284.53C225.779 275.96 230.278 267.604 235.329 259.69C240.452 263.916 247.356 267.306 252.687 267.756C253.554 267.83 254.383 267.825 255.152 267.733C259.715 267.193 263.395 264.554 266.034 260.006C272.998 266.575 279.045 274.014 284.019 282.132C290.704 293.068 295.352 305.041 297.843 317.72C293.97 316.639 290.046 315.71 286.117 314.931Z" fill="#002649"/>
<path d="M255.108 418.567C254.308 418.672 253.494 418.76 252.667 418.832C258.715 400.609 264.655 359.717 264.701 339.718C264.73 325.586 262.93 311.539 259.019 295.514L258.753 294.417C255.358 280.511 251.852 266.148 253.501 251.578C254.166 251.575 254.908 251.533 255.721 251.452C255.736 251.453 255.744 251.447 255.759 251.448C254.051 265.751 257.54 280.053 260.919 293.883L261.191 294.988C265.139 311.188 266.962 325.409 266.933 339.727C266.89 357.83 261.395 398.857 255.108 418.567Z" fill="#918AA0"/>
<path d="M255.121 253.694C255.748 253.747 256.299 253.282 256.351 252.655C256.404 252.029 255.939 251.478 255.313 251.425C254.687 251.372 254.136 251.837 254.083 252.464C254.03 253.09 254.495 253.641 255.121 253.694Z" fill="#CECAD6"/>
<path d="M258.642 257.09L257.166 253.971C257.014 253.645 256.656 253.465 256.3 253.525L255.414 253.681L254.527 253.838C254.171 253.897 253.899 254.195 253.869 254.551L253.542 257.988C253.471 258.736 254.129 259.344 254.872 259.213L257.813 258.692C258.556 258.561 258.966 257.767 258.643 257.082L258.642 257.09ZM257.59 258.151L254.892 258.625C254.604 258.675 254.329 258.48 254.278 258.2C254.227 257.919 254.422 257.637 254.702 257.593L257.4 257.119C257.688 257.069 257.963 257.264 258.014 257.544C258.065 257.825 257.87 258.107 257.589 258.158L257.59 258.151Z" fill="#CECAD6"/>
<path d="M227.437 318.577C227.43 317.419 226.478 316.487 225.319 316.509C221.289 316.579 218.548 316.848 214.583 317.559C213.446 317.761 212.689 318.862 212.914 320.001C213.127 321.094 213.309 322.035 213.522 323.136C213.735 324.244 214.808 324.977 215.922 324.78C219.416 324.164 221.871 323.916 225.416 323.849C226.545 323.825 227.452 322.901 227.451 321.766C227.448 320.653 227.447 319.69 227.437 318.577Z" fill="#A59FB2"/>
<path d="M276.901 204.725C271.59 204.931 268.036 205.559 264.599 205.576C261.162 205.594 258.19 204.999 252.877 204.847C248.331 204.714 240.253 205.15 237.903 205.385C237.509 205.424 237.221 205.76 237.237 206.147L237.307 208.096C237.316 208.364 237.473 208.601 237.712 208.734C238.13 208.962 238.765 209.435 238.977 210.297C239.304 211.62 240.07 218.892 243.285 220.483C245.933 221.787 250.146 222.316 252.63 222.035C255.188 221.747 257.662 221.094 259.698 217.654C261.742 214.214 262.002 211.37 262.818 210.868C263.641 210.358 264.623 210.308 264.623 210.308C264.623 210.308 265.606 210.348 266.434 210.849C267.262 211.351 267.552 214.184 269.623 217.604C271.701 221.023 274.161 221.859 276.735 221.912C279.079 221.967 281.086 221.474 283.207 220.28C286.331 218.523 287.098 211.384 287.411 210.051C287.615 209.187 288.245 208.707 288.66 208.474C288.898 208.347 289.053 208.108 289.059 207.833L289.108 205.853C289.121 205.474 288.837 205.14 288.457 205.098C286.559 204.869 281.304 204.546 276.893 204.718L276.901 204.725ZM260.633 211.243C260.633 211.288 260.633 211.333 260.626 211.377C260.5 212.888 259.96 214.997 257.826 218.259C255.693 221.521 248.781 221.46 244.837 219.88C241.251 218.44 240.948 211.664 241.256 209.281C241.292 208.976 241.35 208.693 241.423 208.425C241.934 206.57 243.798 205.801 249.586 205.735C256.222 205.656 259.591 206.762 260.336 208.589C260.336 208.589 260.73 209.792 260.633 211.251L260.633 211.243ZM281.657 219.685C277.729 221.305 273.675 221.422 271.508 218.182C269.342 214.942 268.78 212.839 268.639 211.329C268.638 211.285 268.638 211.24 268.631 211.195C268.519 209.745 268.9 208.53 268.9 208.53C269.62 206.696 270.722 205.567 277.352 205.578C283.147 205.586 284.431 206.338 284.954 208.188C285.029 208.456 285.083 208.738 285.129 209.043C285.461 211.422 285.228 218.201 281.657 219.678L281.657 219.685Z" fill="#544A69"/>
<path d="M269.837 172.01C269.837 172.01 266.398 165.971 246.709 168.311C222.975 171.133 223.07 192.909 223.119 202.514L223.174 213.146L233.589 213.093C234.981 211.724 236.557 209.93 238.041 207.654C238.521 206.922 240.255 204.227 242.143 199.426C243.274 196.549 242.955 196.751 243.757 194.88C244.602 192.911 245.896 189.891 248.228 187.581C251.937 183.901 257.904 182.383 263.207 183.621C266.343 184.349 268.576 185.877 269.808 186.883C270.522 186.738 273.948 186.103 277.307 188.229C281.002 190.568 281.758 194.433 281.866 195.058C283.026 193.594 283.931 188.686 283.918 186.089C283.873 177.228 278.557 170.626 269.844 172.017L269.837 172.01Z" fill="#2C2044"/>
<path d="M229.084 204.931L233.548 204.908L233.631 221.276L229.167 221.299C225.879 221.316 223.202 218.666 223.185 215.377L223.162 210.913C223.145 207.625 225.795 204.948 229.084 204.931Z" fill="#FCDABA"/>
<path d="M228.046 215.769C227.927 215.77 227.8 215.711 227.733 215.6C227.62 215.429 227.671 215.198 227.842 215.086L230.874 213.106L227.822 211.158C227.65 211.047 227.597 210.817 227.707 210.645C227.818 210.473 228.048 210.42 228.22 210.531L231.766 212.789C231.87 212.856 231.938 212.974 231.938 213.101C231.939 213.227 231.873 213.347 231.769 213.414L228.246 215.709C228.187 215.746 228.113 215.769 228.046 215.769Z" fill="#DCAC82"/>
<path d="M227.331 218.451C228.391 218.446 229.246 217.582 229.24 216.522C229.235 215.462 228.371 214.607 227.311 214.612C226.251 214.618 225.396 215.481 225.401 216.542C225.407 217.602 226.271 218.457 227.331 218.451Z" fill="#2C2044"/>
<path d="M267.79 327.714H370.186C372.701 327.714 374.494 330.162 373.735 332.557L353.491 396.482C353.097 397.717 351.951 398.558 350.656 398.558H247.709C245.194 398.558 243.401 396.11 244.16 393.714L264.241 330.31C264.732 328.763 266.168 327.714 267.79 327.714Z" fill="#CECAD6"/>
<path d="M313.733 368.91C318.113 365.295 319.521 359.77 316.879 356.569C314.237 353.369 308.545 353.705 304.166 357.32C299.786 360.935 298.378 366.46 301.02 369.661C303.662 372.861 309.354 372.525 313.733 368.91Z" fill="white"/>
<path d="M185.504 398.697C195.74 399.562 204.739 391.964 205.603 381.728C206.468 371.492 198.871 362.494 188.635 361.629C178.399 360.765 169.4 368.362 168.535 378.598C167.671 388.834 175.268 397.833 185.504 398.697Z" fill="#FCDABA"/>
<path d="M224.032 366.149C224.222 368.323 222.9 370.362 220.821 371.023C219.608 371.413 218.272 371.763 216.815 372.036C214.486 372.474 212.392 372.61 210.637 372.612C213.235 373.757 216.241 374.862 219.629 375.76C223.938 376.908 227.92 377.491 231.381 377.716C236.95 378.082 235.556 385.923 230.676 386.586C236.18 387.103 235.847 394.235 231.834 396.137C232.398 399.798 229.239 403.257 225.486 402.955C226.241 406.125 224.11 410.671 219.638 409.957C212.802 408.858 205.147 407.121 196.987 404.364C190.962 402.332 180.695 397.642 180.695 397.642L193.428 362.691C193.428 362.691 201.756 363.805 206.926 363.51C211.105 363.266 214.961 362.695 218.413 361.964C221.157 361.389 223.775 363.358 224.025 366.149L224.032 366.149Z" fill="#FCDABA"/>
<path d="M231.808 396.515C231.808 396.515 231.801 396.514 231.793 396.514C228.632 396.105 225.447 395.545 222.333 394.834C218.656 393.993 214.99 392.937 211.429 391.688C211.233 391.619 211.132 391.409 211.201 391.213C211.269 391.017 211.48 390.916 211.675 390.985C215.207 392.224 218.844 393.277 222.492 394.108C225.583 394.81 228.739 395.375 231.878 395.774C232.085 395.799 232.226 395.99 232.202 396.19C232.177 396.389 232.001 396.531 231.801 396.514L231.808 396.515Z" fill="#DCAC82"/>
<path d="M230.652 386.965C228.333 386.746 225.984 386.444 223.681 386.047C220.486 385.509 217.276 384.79 214.154 383.921C213.957 383.867 213.84 383.663 213.894 383.466C213.948 383.269 214.152 383.152 214.349 383.206C217.449 384.065 220.629 384.782 223.802 385.319C226.091 385.706 228.418 386.007 230.714 386.223C230.922 386.241 231.071 386.425 231.054 386.625C231.037 386.825 230.852 386.982 230.652 386.965Z" fill="#DCAC82"/>
<path d="M185.526 398.707C184.666 398.634 183.803 398.501 182.939 398.302C154.34 391.787 133.889 370.132 132.044 344.411C131.115 331.446 135.075 316.302 143.208 301.772C151.896 286.244 164.964 271.996 180.996 260.575C189.361 254.614 200.979 256.566 206.94 264.931C212.901 273.297 210.949 284.914 202.584 290.875C176.884 309.178 168.441 331.79 169.154 341.744C169.808 350.878 178.878 359.215 191.199 362.025C201.213 364.304 207.487 374.279 205.2 384.293C203.113 393.442 194.615 399.467 185.519 398.699L185.526 398.707Z" fill="#FCDABA"/>
<path d="M202.584 290.875C176.884 309.178 168.441 331.79 169.154 341.743C169.734 349.819 176.885 357.269 187.044 360.83C186.624 365.454 185.484 372.145 182.264 379.593C179.249 386.566 175.482 391.736 172.566 395.148C149.497 386.278 133.662 366.895 132.044 344.411C131.116 331.438 135.082 316.302 143.208 301.772C151.897 286.244 164.964 271.996 180.996 260.575C189.369 254.614 200.979 256.565 206.939 264.938C212.9 273.304 210.949 284.914 202.584 290.875Z" fill="#003E75"/>
<path opacity="0.5" d="M193.594 298.382C193.498 298.373 193.412 298.329 193.344 298.248C193.207 298.095 193.227 297.858 193.388 297.722C195.657 295.793 198.015 293.864 200.405 291.998C202.387 290.448 203.397 289.72 203.994 289.285C204.527 288.897 204.766 288.723 205.13 288.388C208.952 284.865 211.557 277.088 208.837 269.601C205.633 260.767 196.904 258.208 195.919 257.945C195.722 257.891 195.604 257.687 195.658 257.49C195.712 257.293 195.909 257.175 196.113 257.23C197.136 257.503 206.2 260.157 209.537 269.354C212.359 277.141 209.635 285.259 205.629 288.937C205.232 289.3 204.962 289.493 204.428 289.889C203.831 290.324 202.83 291.045 200.855 292.589C198.473 294.448 196.116 296.37 193.863 298.292C193.782 298.36 193.683 298.389 193.594 298.382Z" fill="#002649"/>
<path opacity="0.3" d="M260.632 211.244C260.632 211.288 260.633 211.333 260.625 211.378C260.499 212.889 259.959 214.997 257.826 218.259C255.692 221.521 248.78 221.46 244.836 219.88C241.25 218.44 240.948 211.664 241.256 209.281C241.291 208.976 241.349 208.693 241.422 208.425C241.934 206.57 243.797 205.801 249.585 205.735C256.221 205.656 259.59 206.763 260.336 208.589C260.336 208.589 260.729 209.792 260.632 211.251L260.632 211.244Z" fill="#94FFF2"/>
<path opacity="0.3" d="M281.656 219.686C277.729 221.305 273.675 221.423 271.508 218.182C269.341 214.942 268.78 212.839 268.638 211.33C268.638 211.285 268.638 211.24 268.63 211.196C268.519 209.745 268.899 208.531 268.899 208.531C269.619 206.697 270.722 205.568 277.351 205.579C283.147 205.586 284.431 206.339 284.953 208.189C285.029 208.456 285.083 208.739 285.129 209.043C285.461 211.423 285.227 218.202 281.656 219.678L281.656 219.686Z" fill="#94FFF2"/>
<path d="M313.282 238.708C315.019 236.452 314.598 233.214 312.342 231.477C310.086 229.74 306.848 230.161 305.111 232.417C303.374 234.673 303.795 237.911 306.051 239.648C308.307 241.385 311.545 240.964 313.282 238.708Z" fill="#CE92D6"/>
<path d="M323.798 201.947C321.886 200.968 320.133 200.372 318.77 200.006C316.844 199.489 315.052 199.246 313.456 199.155C311.025 199.025 308.93 200.841 308.746 203.269L307.142 223.78C306.952 226.218 308.522 228.439 310.874 229.077L310.922 229.089L310.971 229.1C313.33 229.737 315.805 228.596 316.862 226.398L325.787 207.861C326.839 205.672 325.945 203.047 323.789 201.942L323.798 201.947Z" fill="#CE92D6"/>
<path d="M323.333 239.766C325.081 239.057 325.923 237.065 325.214 235.317C324.505 233.57 322.514 232.728 320.766 233.437C319.018 234.145 318.176 236.137 318.885 237.885C319.594 239.632 321.586 240.474 323.333 239.766Z" fill="#CE92D6"/>
<path d="M341.647 222.269C340.88 221.071 340.077 220.141 339.422 219.479C338.499 218.542 337.555 217.798 336.669 217.218C335.323 216.332 333.522 216.667 332.6 217.991L324.825 229.189C323.902 230.52 324.058 232.313 325.189 233.467L325.212 233.489L325.234 233.511C326.372 234.664 328.165 234.843 329.504 233.935L340.813 226.324C342.145 225.424 342.517 223.623 341.647 222.269Z" fill="#CE92D6"/>
<path d="M332.216 323.68C331.66 321.181 329.183 319.607 326.685 320.163C324.186 320.719 322.611 323.196 323.167 325.695L324.163 330.168C324.72 332.667 327.196 334.242 329.695 333.685C332.194 333.129 333.768 330.652 333.212 328.154L332.216 323.68Z" fill="#FCDABA"/>
<path d="M343.589 322.295C343.439 319.739 341.246 317.789 338.691 317.938C336.135 318.088 334.185 320.281 334.334 322.837L334.655 328.303C334.804 330.859 336.997 332.809 339.553 332.659C342.108 332.51 344.059 330.317 343.909 327.761L343.589 322.295Z" fill="#FCDABA"/>
<path d="M354.056 322.59C354.136 320.031 352.126 317.892 349.567 317.812C347.009 317.732 344.87 319.742 344.79 322.3L344.624 327.61C344.544 330.169 346.554 332.308 349.112 332.387C351.671 332.467 353.81 330.458 353.89 327.899L354.056 322.59Z" fill="#FCDABA"/>
<path d="M364.696 324.701C364.776 322.143 362.767 320.004 360.208 319.924C357.649 319.844 355.51 321.853 355.431 324.412L355.287 329.015C355.207 331.574 357.216 333.713 359.775 333.793C362.334 333.873 364.473 331.863 364.553 329.305L364.696 324.701Z" fill="#FCDABA"/>
<path d="M26.9062 45.1106C26.6761 44.9942 26.4132 44.9323 26.1187 44.9272C25.9127 44.9209 25.7029 44.9462 25.488 44.9968C25.2731 45.0486 25.0747 45.1295 24.8927 45.2382C24.7094 45.3469 24.5603 45.4872 24.4414 45.6579C24.3226 45.8285 24.2581 46.0307 24.2443 46.2658L25.3465 46.2582C25.3692 46.1495 25.4109 46.0547 25.4716 45.9751C25.5322 45.8955 25.6081 45.8335 25.7003 45.7918C25.7926 45.7488 25.8975 45.7286 26.0151 45.7311C26.1453 45.7374 26.2464 45.7691 26.3184 45.8272C26.3905 45.8853 26.4372 45.9637 26.4612 46.0635C26.484 46.1634 26.4904 46.2696 26.4764 46.3847L26.4334 46.6601L25.8988 46.6564C25.6649 46.6564 25.4286 46.6791 25.1897 46.7246C24.9521 46.7701 24.7322 46.846 24.5299 46.9534C24.3277 47.0596 24.1633 47.205 24.0357 47.3895C23.908 47.5728 23.8385 47.8028 23.8284 48.0783C23.8183 48.3223 23.8689 48.5372 23.9826 48.7204C24.0951 48.9037 24.2493 49.0491 24.4427 49.154C24.6361 49.2589 24.8497 49.3145 25.081 49.3196C25.2478 49.3221 25.4046 49.2994 25.55 49.2513C25.6953 49.2033 25.8293 49.1351 25.9519 49.044C26.0214 48.9922 26.0858 48.9353 26.1465 48.8734C26.1554 48.9973 26.1769 49.1173 26.2122 49.2349L27.2904 49.2311L27.298 49.1616C27.2386 49.0137 27.2146 48.8557 27.2285 48.6914C27.2424 48.5258 27.2601 48.3678 27.2841 48.2161L27.5774 46.4035C27.609 46.0939 27.5622 45.8297 27.4383 45.6123C27.3144 45.3949 27.1375 45.2268 26.9062 45.1106ZM26.0858 48.1807C25.9923 48.2806 25.8811 48.3564 25.7534 48.4095C25.6258 48.4626 25.4956 48.4879 25.3629 48.4854C25.2694 48.4828 25.1897 48.4601 25.1227 48.4184C25.057 48.3766 25.0077 48.3197 24.9761 48.2478C24.9445 48.1757 24.9357 48.0948 24.9483 48.0038C24.9647 47.8761 25.0026 47.7674 25.0633 47.6789C25.1253 47.5905 25.2024 47.5184 25.2959 47.4616C25.3894 47.4059 25.4918 47.3642 25.6018 47.3364C25.7117 47.3086 25.8242 47.2934 25.9355 47.2909L26.3323 47.2934L26.2262 47.9735C26.1895 48.048 26.144 48.1175 26.0846 48.1795L26.0858 48.1807Z" fill="white"/>
<path d="M27.9912 49.2333H29.0884L30.1312 43.2319H29.029L27.9912 49.2333Z" fill="white"/>
<path d="M34.612 48.3046C34.4363 48.3918 34.2442 48.4323 34.0356 48.4272C33.8725 48.4221 33.7347 48.3855 33.6274 48.3185C33.5199 48.2515 33.4339 48.163 33.3733 48.053C33.3126 47.9431 33.2709 47.8204 33.2507 47.6839C33.2393 47.6119 33.2343 47.5399 33.233 47.4666H35.833L35.8949 46.9976C35.9227 46.7284 35.9138 46.4718 35.8671 46.2253C35.8203 45.9789 35.7331 45.7602 35.6054 45.5668C35.4778 45.3747 35.3097 45.2205 35.1011 45.1067C34.8926 44.9929 34.641 44.9323 34.3466 44.9272C34.0306 44.9184 33.7449 44.9727 33.4883 45.089C33.2317 45.2053 33.0105 45.3646 32.8222 45.5694C32.6351 45.7741 32.4847 46.0092 32.3735 46.2746C32.261 46.5413 32.1902 46.8206 32.1586 47.1152L32.1434 47.2757C32.1232 47.5563 32.1485 47.8204 32.2218 48.0657C32.2951 48.3096 32.4088 48.5258 32.5643 48.7103C32.7185 48.8961 32.912 49.0402 33.1445 49.1464C33.3771 49.2513 33.6375 49.3069 33.9256 49.312H33.9269C34.1317 49.3145 34.339 49.2892 34.5475 49.2361C34.7561 49.1831 34.9507 49.0996 35.1315 48.9859C35.3122 48.8721 35.4613 48.7267 35.5789 48.5498L35.0859 47.9557C34.9444 48.1023 34.7877 48.2187 34.6107 48.3058L34.612 48.3046ZM33.525 46.2367C33.6021 46.104 33.7032 45.9978 33.8258 45.9156C33.9484 45.8348 34.1001 45.7968 34.2783 45.8019C34.435 45.807 34.5602 45.8474 34.6537 45.9232C34.7472 45.9978 34.8117 46.099 34.8445 46.2215C34.8774 46.3454 34.885 46.4781 34.8635 46.6222L34.8445 46.7195L33.3341 46.717C33.3379 46.7006 33.3417 46.6841 33.3455 46.6677C33.3859 46.5135 33.4466 46.3694 33.525 46.2367Z" fill="white"/>
<path d="M39.0554 45.0052L38.1568 46.283L37.6878 45.0052V45.0039H36.5629L37.3832 47.0212L35.7969 49.2319H37.0229L37.9697 47.8807L38.4968 49.2319H39.6141L38.7584 47.1223L40.2776 45.0052H39.0554Z" fill="white"/>
<path d="M42.2916 43.9624H41.1932L41.0175 45.0052H40.4208L40.2793 45.8015H40.8835L40.5018 48.0716C40.479 48.3131 40.5018 48.5267 40.57 48.7099C40.6396 48.8932 40.7533 49.0373 40.9138 49.1409C41.0744 49.2459 41.2791 49.3002 41.5294 49.3053C41.6394 49.3053 41.7468 49.2977 41.8517 49.2837C41.9579 49.2699 42.0615 49.2471 42.1664 49.2155L42.2448 48.3762C42.1879 48.3851 42.1323 48.3914 42.0767 48.3977C42.021 48.404 41.9679 48.4066 41.9124 48.404C41.8125 48.399 41.7405 48.38 41.6937 48.3459C41.6469 48.3118 41.6178 48.2638 41.6065 48.1993C41.5951 48.1348 41.5951 48.0577 41.6052 47.9667L41.9768 45.8028H42.6758L42.8174 45.0065H42.1146L42.2941 43.9637L42.2916 43.9624Z" fill="white"/>
<path d="M46.3496 45.5668C46.222 45.3747 46.0538 45.2205 45.8453 45.1067C45.6367 44.9929 45.3852 44.9323 45.0907 44.9272C44.7747 44.9184 44.489 44.9727 44.2325 45.089C43.9759 45.2053 43.7546 45.3646 43.5663 45.5694C43.3792 45.7741 43.2289 46.0092 43.1176 46.2746C43.0051 46.5413 42.9343 46.8206 42.9027 47.1152L42.8876 47.2757C42.8673 47.5563 42.8926 47.8204 42.966 48.0657C43.0393 48.3096 43.153 48.5258 43.3085 48.7103C43.4627 48.8961 43.6561 49.0402 43.8887 49.1464C44.1212 49.2513 44.3816 49.3069 44.6698 49.312H44.671C44.8758 49.3145 45.0831 49.2892 45.2917 49.2361C45.5002 49.1831 45.6948 49.0996 45.8756 48.9859C46.0564 48.8721 46.2056 48.7267 46.3231 48.5498L45.8301 47.9557C45.6886 48.1023 45.5318 48.2187 45.3549 48.3058C45.1792 48.393 44.987 48.4335 44.7785 48.4284C44.6155 48.4234 44.4777 48.3867 44.3702 48.3198C44.2628 48.2528 44.1768 48.1643 44.1162 48.0543C44.0555 47.9444 44.0138 47.8217 43.9935 47.6852C43.9822 47.6132 43.9771 47.5411 43.9759 47.4678H46.5758L46.6378 46.9989C46.6656 46.7297 46.6568 46.4731 46.61 46.2266C46.5633 45.9801 46.476 45.7614 46.3484 45.5681L46.3496 45.5668ZM45.6064 46.6235L45.5874 46.7208L44.077 46.7183C44.0808 46.7018 44.0846 46.6854 44.0883 46.669C44.1288 46.5148 44.1895 46.3707 44.2678 46.2379C44.3449 46.1053 44.4461 45.999 44.5687 45.9169C44.6913 45.836 44.8417 45.7981 45.0212 45.8031C45.1779 45.8082 45.303 45.8487 45.3966 45.9245C45.4901 45.999 45.5546 46.1002 45.5874 46.2228C45.6203 46.3467 45.6279 46.4794 45.6064 46.6235Z" fill="white"/>
<path d="M49.9065 44.97C49.8408 44.9548 49.7776 44.9422 49.7169 44.9308C49.6562 44.9194 49.5931 44.9156 49.5273 44.9156C49.2771 44.9131 49.0647 44.9725 48.8928 45.0938C48.7803 45.1735 48.6817 45.2696 48.5945 45.3795L48.635 45.0066H47.6035L46.8691 49.2334H47.9663L48.4403 46.4969C48.4997 46.3882 48.5717 46.2946 48.6577 46.2188C48.7474 46.1392 48.8536 46.0785 48.9762 46.0368C49.0988 45.9951 49.2353 45.9761 49.387 45.9787C49.4527 45.9811 49.5172 45.9863 49.5804 45.9938C49.6436 46.0027 49.7068 46.0115 49.77 46.0216L49.9065 44.9712V44.97Z" fill="white"/>
<path d="M49.7598 49.2321H50.8568L51.5912 45.0054H50.4941L49.7598 49.2321Z" fill="white"/>
<path d="M51.2276 43.3346C51.0557 43.3371 50.9091 43.3927 50.7877 43.4989C50.6664 43.6063 50.6095 43.7478 50.6146 43.9249C50.6171 44.0968 50.679 44.232 50.8004 44.3318C50.9217 44.4304 51.0646 44.4785 51.2289 44.4759C51.3982 44.4722 51.5436 44.4178 51.6662 44.3116C51.7888 44.2055 51.8469 44.0626 51.8419 43.8856C51.8419 43.7175 51.7812 43.5823 51.6586 43.4812C51.536 43.38 51.3932 43.332 51.2289 43.3346H51.2276Z" fill="white"/>
<path d="M55.4879 45.583C55.3463 45.3846 55.1644 45.2278 54.9432 45.1103C54.7207 44.994 54.4577 44.9321 54.1532 44.927C53.8321 44.9194 53.5439 44.9725 53.2873 45.0863C53.0307 45.2001 52.8083 45.3567 52.6199 45.559C52.4316 45.7612 52.2799 45.9938 52.1662 46.258C52.0524 46.5221 51.9804 46.8053 51.9488 47.1049L51.9374 47.187V47.1844C51.9134 47.4663 51.9298 47.733 51.9879 47.9859C52.0461 48.2386 52.1434 48.4636 52.285 48.6595C52.4253 48.8567 52.6073 49.0122 52.8311 49.1285C53.0548 49.2447 53.3164 49.3054 53.616 49.3105C53.932 49.3194 54.2176 49.2663 54.4754 49.155C54.7333 49.0425 54.9558 48.8883 55.1454 48.6886C55.335 48.4889 55.4867 48.2576 55.6029 47.9972C55.7193 47.7356 55.7938 47.4563 55.8279 47.1591L55.8355 47.0732C55.8621 46.7901 55.8456 46.5196 55.7875 46.2643C55.7294 46.009 55.6282 45.7815 55.4867 45.5843L55.4879 45.583ZM54.7346 47.072L54.727 47.1541C54.7119 47.3008 54.6802 47.4487 54.6335 47.6016C54.5867 47.7545 54.5235 47.8948 54.4426 48.0237C54.3617 48.1527 54.2594 48.2563 54.1342 48.3321C54.0104 48.4092 53.8599 48.4447 53.6855 48.4396C53.5225 48.4345 53.3922 48.3903 53.2987 48.3081C53.2052 48.226 53.1382 48.1211 53.0977 47.9934C53.0573 47.8658 53.0346 47.7305 53.0295 47.5889C53.0244 47.4474 53.0283 47.3134 53.0408 47.1883L53.0484 47.1023C53.0648 46.9557 53.094 46.8066 53.1407 46.6524C53.1862 46.4981 53.2494 46.3565 53.3303 46.2264C53.4112 46.0962 53.5136 45.9913 53.6387 45.9116C53.7639 45.832 53.913 45.7954 54.0875 45.8004C54.2505 45.8068 54.3806 45.851 54.4742 45.9357C54.5678 46.0204 54.6348 46.1278 54.6765 46.2567C54.7182 46.3856 54.7422 46.5234 54.7447 46.6675C54.7485 46.8116 54.7447 46.9468 54.7346 47.072Z" fill="white"/>
<path d="M59.1578 44.97C59.092 44.9548 59.0289 44.9422 58.9682 44.9308C58.9075 44.9194 58.8443 44.9156 58.7786 44.9156C58.5283 44.9131 58.3159 44.9725 58.1428 45.0938C58.0303 45.1735 57.9317 45.2696 57.8445 45.3795L57.885 45.0066H56.8535L56.1191 49.2334H57.2163L57.6903 46.4969C57.7497 46.3882 57.8217 46.2946 57.9077 46.2188C57.9974 46.1392 58.1036 46.0785 58.2263 46.0368C58.3488 45.9951 58.4853 45.9761 58.637 45.9787C58.7015 45.9811 58.7672 45.9863 58.8304 45.9938C58.8936 46.0014 58.9568 46.0115 59.02 46.0216L59.1565 44.9712L59.1578 44.97Z" fill="white"/>
<path d="M34.4487 39.027C34.4057 39.2001 34.3766 39.324 34.3614 39.3745C34.0858 40.641 34.1516 41.1403 35.1362 41.024C36.2005 40.8938 36.3307 40.344 36.677 39.027C36.6985 38.9321 36.7276 38.8235 36.7643 38.6933C40.3464 38.2079 43.864 37.9045 48.7051 37.5064C48.901 37.49 49.0716 37.4723 49.2194 37.4507C49.2839 37.4444 49.3471 37.4394 49.4142 37.4331C50.8437 37.3004 50.8298 37.0501 50.9613 36.1628C51.1129 35.1528 49.9905 35.1541 49.6531 35.1642H49.4925C47.3197 35.2211 45.7891 35.2325 43.4393 35.4878C41.4334 35.6559 39.4009 35.8783 37.4518 36.1236C37.879 34.5967 38.2987 33.0989 38.2987 33.0989C38.2987 33.0989 38.7323 34.0329 39.9558 33.9381C41.6925 33.8004 43.8059 32.1143 44.8335 29.0162C45.9193 25.7236 45.8245 21.9898 43.6036 21.67C41.8088 21.416 40.9543 23.0022 40.8317 23.3195C40.8317 23.3195 41.216 21.8786 40.0708 22.1326C38.9788 22.3715 38.7829 22.8556 38.5073 23.7316C38.4567 23.8832 37.5378 27.3073 36.5759 30.911C36.562 30.9324 36.5468 30.9615 36.5405 30.9905C36.3016 31.8084 35.8314 32.0763 35.4914 32.0978C34.3918 32.1698 36.7579 24.9121 36.9387 24.3534C37.1776 23.6305 37.3153 23.0793 36.5114 22.776C35.9692 22.5737 35.2297 22.6458 35.0137 23.2247C34.9189 23.4712 34.8543 23.6443 34.8543 23.6443C34.8543 23.6443 34.2388 22.7254 32.8712 22.848C31.5035 22.9707 29.7745 24.6353 28.6369 27.5589C27.4943 30.4762 27.0013 34.6662 29.7075 35.0846C31.0827 35.2944 32.2404 34.5133 32.8409 33.2177C32.8409 33.2177 32.7322 34.086 33.6448 34.5133C33.9999 34.6789 34.8822 34.6144 35.7215 34.1442C35.504 34.9696 35.2943 35.7431 35.1135 36.4383C29.2663 37.2485 24.6554 38.1535 24.6554 38.1535C24.6554 38.1535 27.8621 27.3049 28.5851 24.9247C29.193 22.9277 28.0492 23.3612 27.2099 23.6077C26.3124 23.8681 25.8852 24.6214 25.4364 25.9966C23.4748 31.9967 21.9264 33.8636 20.8052 33.4579C19.7777 33.0888 23.0122 26.7209 22.2386 25.8816C21.5662 25.151 20.1834 25.194 19.9154 25.6212C19.6551 26.0485 20.0456 26.4466 19.8724 27.0546C19.7069 27.6625 18.4101 30.9552 18.2735 31.6933C18.1358 32.4315 17.0146 36.5205 19.9888 36.3397C21.7469 36.2386 22.949 34.9064 23.0791 34.5373C22.5294 36.1223 21.7469 38.692 21.7469 38.692C21.7469 38.692 18.1496 39.5894 15.2842 42.5927C13.004 44.974 11.3975 50.1045 14.7988 50.9222C20.081 52.1963 22.5862 44.1258 23.8666 41.0872C28.1515 40.1317 31.4214 39.5022 34.4474 39.0244L34.4487 39.027ZM39.7245 28.2364V28.2288C40.4475 25.8626 41.1136 24.921 41.7367 24.653C43.227 24.0159 43.5101 25.8828 42.3586 28.7268C41.0264 32.0119 39.4704 31.9398 38.8776 31.2889C38.8776 31.2889 38.9572 30.7251 39.7245 28.2351V28.2364ZM33.0659 29.6546C32.4288 31.1953 31.8284 32.2811 31.003 32.2887C29.8237 32.2963 29.8516 30.5229 30.6921 28.287C31.4012 26.4124 32.6892 25.2256 33.3843 25.0954C34.0796 24.9652 34.8897 25.2547 33.0659 29.6546ZM17.4469 47.6081C14.6383 50.1196 15.3474 46.6828 16.3902 45.199C18.3734 42.3841 20.8268 41.6674 20.8268 41.6674C19.5817 45.3076 18.0258 47.0949 17.4469 47.6081Z" fill="white"/>
<path d="M48.4085 33.1936C50.1313 33.1215 51.6216 31.8766 52.1651 30.95C52.4254 30.5014 52.5342 29.7998 52.4836 29.4877C52.3534 28.6117 51.8175 28.4815 50.9061 29.6318C50.6812 29.8845 48.8876 31.4847 48.0041 30.5368C47.367 29.8491 47.903 28.503 47.932 28.503C49.0822 28.4158 51.0944 27.9532 52.6934 26.1078H52.6871C53.7513 24.8779 54.2355 22.2589 52.4558 21.2958C50.2994 20.1304 47.4909 21.9114 46.3267 25.7462C45.2915 29.154 44.9086 33.3529 48.411 33.1924L48.4085 33.1936ZM50.1086 23.1198V23.1273C51.078 22.2223 51.997 23.3081 50.8834 24.8577C49.7546 26.4288 48.43 26.3846 48.4237 26.4352C48.5615 25.8196 49.0531 24.112 50.1098 23.1198H50.1086Z" fill="white"/>
<path d="M388.223 369.258L386.976 365.914C386.248 366.515 385.353 366.854 384.403 366.891L385.645 370.223C385.727 370.444 385.971 370.555 386.191 370.473L387.974 369.805C388.194 369.723 388.304 369.478 388.223 369.258Z" fill="#F5F5F5"/>
<path d="M383.959 358.5C381.317 358.502 380 358.321 380 362.476C380.002 364.465 380.068 365.457 380.599 365.953L381.795 362.536C381.877 362.301 382.046 362.113 382.27 362.005C382.494 361.896 382.747 361.882 382.982 361.965L384.855 362.624C385.089 362.707 385.279 362.876 385.386 363.101C385.494 363.325 385.507 363.579 385.425 363.813L384.519 366.4C386.445 366.128 387.927 364.473 387.925 362.467C387.923 360.274 386.147 358.498 383.959 358.5Z" fill="#F5F5F5"/>
<path d="M384.673 363.143L382.8 362.484C382.6 362.413 382.382 362.519 382.311 362.719L380.022 369.26C379.951 369.46 380.057 369.679 380.257 369.75L382.13 370.409C382.33 370.48 382.548 370.374 382.619 370.173L384.908 363.632C384.978 363.432 384.873 363.213 384.673 363.143Z" fill="#F5F5F5"/>
<path d="M393.675 368.25V360.614H396.255C396.854 360.614 397.344 360.722 397.724 360.938C398.107 361.152 398.39 361.441 398.574 361.807C398.758 362.172 398.85 362.58 398.85 363.03C398.85 363.48 398.758 363.889 398.574 364.257C398.393 364.624 398.112 364.918 397.732 365.137C397.351 365.353 396.864 365.461 396.27 365.461H394.421V364.641H396.24C396.65 364.641 396.98 364.57 397.228 364.428C397.477 364.286 397.657 364.095 397.769 363.854C397.883 363.61 397.94 363.336 397.94 363.03C397.94 362.724 397.883 362.451 397.769 362.21C397.657 361.968 397.476 361.779 397.224 361.643C396.973 361.504 396.64 361.434 396.225 361.434H394.599V368.25H393.675ZM402.486 368.369C401.969 368.369 401.515 368.246 401.125 368C400.737 367.754 400.434 367.41 400.215 366.967C399.999 366.525 399.891 366.008 399.891 365.416C399.891 364.82 399.999 364.299 400.215 363.854C400.434 363.409 400.737 363.063 401.125 362.817C401.515 362.571 401.969 362.448 402.486 362.448C403.003 362.448 403.455 362.571 403.843 362.817C404.233 363.063 404.536 363.409 404.753 363.854C404.971 364.299 405.081 364.82 405.081 365.416C405.081 366.008 404.971 366.525 404.753 366.967C404.536 367.41 404.233 367.754 403.843 368C403.455 368.246 403.003 368.369 402.486 368.369ZM402.486 367.579C402.878 367.579 403.202 367.478 403.455 367.277C403.709 367.075 403.896 366.811 404.018 366.483C404.14 366.155 404.201 365.799 404.201 365.416C404.201 365.033 404.14 364.677 404.018 364.346C403.896 364.015 403.709 363.748 403.455 363.544C403.202 363.341 402.878 363.239 402.486 363.239C402.093 363.239 401.77 363.341 401.516 363.544C401.263 363.748 401.075 364.015 400.953 364.346C400.831 364.677 400.77 365.033 400.77 365.416C400.77 365.799 400.831 366.155 400.953 366.483C401.075 366.811 401.263 367.075 401.516 367.277C401.77 367.478 402.093 367.579 402.486 367.579ZM407.527 368.25L405.782 362.523H406.707L407.944 366.908H408.004L409.227 362.523H410.167L411.375 366.893H411.435L412.672 362.523H413.597L411.852 368.25H410.987L409.734 363.85H409.645L408.392 368.25H407.527ZM416.967 368.369C416.415 368.369 415.939 368.248 415.539 368.004C415.141 367.758 414.834 367.415 414.618 366.975C414.404 366.532 414.297 366.018 414.297 365.431C414.297 364.844 414.404 364.327 414.618 363.88C414.834 363.43 415.135 363.08 415.52 362.828C415.908 362.575 416.36 362.448 416.877 362.448C417.176 362.448 417.47 362.498 417.761 362.597C418.052 362.697 418.317 362.858 418.555 363.082C418.794 363.303 418.984 363.597 419.126 363.962C419.268 364.327 419.338 364.777 419.338 365.312V365.685H414.924V364.924H418.444C418.444 364.601 418.379 364.312 418.25 364.059C418.123 363.805 417.941 363.605 417.705 363.459C417.472 363.312 417.196 363.239 416.877 363.239C416.527 363.239 416.224 363.326 415.968 363.5C415.714 363.671 415.519 363.895 415.382 364.171C415.246 364.447 415.177 364.743 415.177 365.058V365.565C415.177 365.998 415.252 366.364 415.401 366.665C415.553 366.964 415.763 367.191 416.031 367.348C416.3 367.502 416.612 367.579 416.967 367.579C417.198 367.579 417.407 367.546 417.593 367.482C417.782 367.415 417.945 367.315 418.082 367.184C418.219 367.049 418.324 366.883 418.399 366.684L419.249 366.923C419.159 367.211 419.009 367.465 418.798 367.683C418.587 367.9 418.326 368.068 418.015 368.19C417.704 368.31 417.355 368.369 416.967 368.369ZM420.677 368.25V362.523H421.527V363.388H421.587C421.691 363.104 421.88 362.874 422.154 362.698C422.427 362.521 422.735 362.433 423.078 362.433C423.143 362.433 423.224 362.434 423.321 362.437C423.418 362.439 423.491 362.443 423.541 362.448V363.343C423.511 363.336 423.442 363.324 423.336 363.309C423.231 363.292 423.121 363.283 423.004 363.283C422.725 363.283 422.477 363.342 422.258 363.459C422.042 363.573 421.87 363.732 421.743 363.936C421.619 364.137 421.557 364.367 421.557 364.626V368.25H420.677ZM426.811 368.369C426.259 368.369 425.783 368.248 425.383 368.004C424.985 367.758 424.678 367.415 424.462 366.975C424.248 366.532 424.141 366.018 424.141 365.431C424.141 364.844 424.248 364.327 424.462 363.88C424.678 363.43 424.979 363.08 425.364 362.828C425.752 362.575 426.204 362.448 426.721 362.448C427.02 362.448 427.314 362.498 427.605 362.597C427.896 362.697 428.161 362.858 428.399 363.082C428.638 363.303 428.828 363.597 428.97 363.962C429.111 364.327 429.182 364.777 429.182 365.312V365.685H424.767V364.924H428.287C428.287 364.601 428.223 364.312 428.093 364.059C427.967 363.805 427.785 363.605 427.549 363.459C427.315 363.312 427.039 363.239 426.721 363.239C426.371 363.239 426.067 363.326 425.811 363.5C425.558 363.671 425.363 363.895 425.226 364.171C425.089 364.447 425.021 364.743 425.021 365.058V365.565C425.021 365.998 425.096 366.364 425.245 366.665C425.396 366.964 425.606 367.191 425.875 367.348C426.143 367.502 426.455 367.579 426.811 367.579C427.042 367.579 427.251 367.546 427.437 367.482C427.626 367.415 427.789 367.315 427.926 367.184C428.062 367.049 428.168 366.883 428.243 366.684L429.093 366.923C429.003 367.211 428.853 367.465 428.642 367.683C428.43 367.9 428.169 368.068 427.859 368.19C427.548 368.31 427.199 368.369 426.811 368.369ZM432.683 368.369C432.206 368.369 431.785 368.249 431.419 368.008C431.054 367.764 430.768 367.421 430.562 366.979C430.356 366.534 430.252 366.008 430.252 365.401C430.252 364.8 430.356 364.278 430.562 363.835C430.768 363.393 431.055 363.051 431.423 362.81C431.791 362.569 432.216 362.448 432.698 362.448C433.071 362.448 433.366 362.51 433.582 362.635C433.801 362.756 433.967 362.896 434.082 363.052C434.199 363.206 434.289 363.333 434.354 363.433H434.428V360.614H435.308V368.25H434.458V367.37H434.354C434.289 367.474 434.197 367.606 434.078 367.765C433.959 367.922 433.788 368.062 433.567 368.187C433.346 368.308 433.051 368.369 432.683 368.369ZM432.803 367.579C433.156 367.579 433.454 367.487 433.698 367.303C433.941 367.116 434.126 366.859 434.253 366.531C434.38 366.2 434.443 365.819 434.443 365.386C434.443 364.959 434.381 364.585 434.257 364.264C434.133 363.941 433.949 363.69 433.705 363.511C433.461 363.329 433.161 363.239 432.803 363.239C432.43 363.239 432.119 363.334 431.871 363.526C431.625 363.715 431.439 363.972 431.315 364.298C431.193 364.621 431.132 364.984 431.132 365.386C431.132 365.794 431.194 366.164 431.319 366.498C431.445 366.828 431.632 367.092 431.878 367.288C432.127 367.482 432.435 367.579 432.803 367.579ZM440.115 368.25V360.614H440.995V363.433H441.069C441.134 363.333 441.223 363.206 441.338 363.052C441.455 362.896 441.621 362.756 441.837 362.635C442.056 362.51 442.352 362.448 442.725 362.448C443.207 362.448 443.632 362.569 444 362.81C444.368 363.051 444.655 363.393 444.861 363.835C445.068 364.278 445.171 364.8 445.171 365.401C445.171 366.008 445.068 366.534 444.861 366.979C444.655 367.421 444.369 367.764 444.004 368.008C443.638 368.249 443.217 368.369 442.74 368.369C442.372 368.369 442.077 368.308 441.856 368.187C441.635 368.062 441.465 367.922 441.345 367.765C441.226 367.606 441.134 367.474 441.069 367.37H440.965V368.25H440.115ZM440.98 365.386C440.98 365.819 441.043 366.2 441.17 366.531C441.297 366.859 441.482 367.116 441.726 367.303C441.969 367.487 442.267 367.579 442.62 367.579C442.988 367.579 443.295 367.482 443.541 367.288C443.79 367.092 443.976 366.828 444.101 366.498C444.227 366.164 444.291 365.794 444.291 365.386C444.291 364.984 444.229 364.621 444.104 364.298C443.983 363.972 443.797 363.715 443.549 363.526C443.303 363.334 442.993 363.239 442.62 363.239C442.262 363.239 441.962 363.329 441.718 363.511C441.474 363.69 441.291 363.941 441.166 364.264C441.042 364.585 440.98 364.959 440.98 365.386ZM446.879 370.398C446.729 370.398 446.596 370.385 446.48 370.36C446.363 370.338 446.282 370.316 446.237 370.293L446.461 369.518C446.675 369.572 446.864 369.592 447.028 369.577C447.192 369.562 447.337 369.489 447.464 369.357C447.593 369.228 447.711 369.018 447.818 368.727L447.982 368.28L445.864 362.523H446.819L448.4 367.087H448.46L450.041 362.523H450.995L448.564 369.085C448.455 369.381 448.319 369.626 448.158 369.82C447.996 370.016 447.808 370.162 447.594 370.256C447.383 370.351 447.145 370.398 446.879 370.398ZM456.929 364.432C456.929 364.024 457.029 363.653 457.228 363.317C457.426 362.981 457.693 362.714 458.029 362.515C458.365 362.316 458.737 362.217 459.144 362.217C459.497 362.217 459.823 362.293 460.121 362.444C460.422 362.596 460.67 362.804 460.867 363.067C461.063 363.328 461.185 363.624 461.232 363.955H460.33C460.28 363.699 460.142 363.49 459.916 363.328C459.69 363.164 459.433 363.082 459.144 363.082C458.896 363.082 458.669 363.143 458.466 363.265C458.262 363.387 458.099 363.549 457.977 363.753C457.855 363.957 457.795 364.183 457.795 364.432C457.795 364.68 457.855 364.907 457.977 365.11C458.099 365.314 458.262 365.477 458.466 365.599C458.669 365.721 458.896 365.782 459.144 365.782C459.433 365.782 459.676 365.701 459.875 365.539C460.076 365.375 460.203 365.165 460.255 364.909H461.158C461.11 365.24 460.995 365.537 460.811 365.8C460.627 366.061 460.391 366.268 460.102 366.419C459.817 366.571 459.497 366.647 459.144 366.647C458.737 366.647 458.365 366.547 458.029 366.348C457.693 366.149 457.426 365.882 457.228 365.547C457.029 365.211 456.929 364.84 456.929 364.432ZM459.107 368.369C458.565 368.369 458.056 368.267 457.578 368.064C457.103 367.86 456.685 367.578 456.322 367.217C455.961 366.854 455.677 366.435 455.471 365.961C455.268 365.486 455.167 364.976 455.17 364.432C455.172 363.887 455.275 363.378 455.479 362.903C455.685 362.428 455.968 362.011 456.329 361.65C456.689 361.287 457.107 361.004 457.582 360.8C458.056 360.596 458.565 360.494 459.107 360.494C459.652 360.494 460.161 360.596 460.636 360.8C461.113 361.004 461.53 361.287 461.888 361.65C462.249 362.011 462.531 362.428 462.735 362.903C462.939 363.378 463.042 363.887 463.045 364.432C463.047 364.976 462.946 365.486 462.742 365.961C462.538 366.435 462.256 366.854 461.896 367.217C461.536 367.578 461.116 367.86 460.639 368.064C460.162 368.267 459.652 368.369 459.107 368.369ZM459.107 367.504C459.532 367.504 459.931 367.425 460.304 367.266C460.677 367.107 461.004 366.887 461.284 366.606C461.566 366.325 461.785 365.999 461.944 365.629C462.103 365.256 462.182 364.858 462.179 364.436C462.177 364.01 462.096 363.612 461.937 363.239C461.778 362.866 461.558 362.539 461.277 362.258C460.996 361.977 460.67 361.757 460.3 361.598C459.93 361.439 459.532 361.359 459.107 361.359C458.684 361.359 458.288 361.439 457.918 361.598C457.547 361.757 457.222 361.978 456.94 362.262C456.66 362.543 456.439 362.869 456.277 363.242C456.118 363.613 456.037 364.01 456.034 364.436C456.032 364.856 456.11 365.252 456.269 365.625C456.428 365.995 456.649 366.321 456.929 366.602C457.213 366.883 457.54 367.104 457.91 367.266C458.283 367.425 458.682 367.504 459.107 367.504ZM464.837 368.25V360.614H467.417C468.014 360.614 468.503 360.716 468.886 360.919C469.269 361.121 469.552 361.398 469.736 361.751C469.921 362.104 470.012 362.505 470.012 362.955C470.012 363.405 469.921 363.804 469.736 364.152C469.552 364.5 469.27 364.774 468.89 364.972C468.51 365.169 468.024 365.267 467.432 365.267H465.344V364.432H467.402C467.81 364.432 468.138 364.372 468.387 364.253C468.637 364.134 468.819 363.964 468.931 363.746C469.045 363.525 469.102 363.261 469.102 362.955C469.102 362.65 469.045 362.382 468.931 362.154C468.817 361.925 468.634 361.748 468.383 361.624C468.132 361.497 467.8 361.434 467.387 361.434H465.762V368.25H464.837ZM468.431 364.82L470.311 368.25H469.237L467.387 364.82H468.431ZM473.773 368.369C473.222 368.369 472.746 368.248 472.345 368.004C471.948 367.758 471.641 367.415 471.424 366.975C471.211 366.532 471.104 366.018 471.104 365.431C471.104 364.844 471.211 364.327 471.424 363.88C471.641 363.43 471.942 363.08 472.327 362.828C472.714 362.575 473.167 362.448 473.684 362.448C473.983 362.448 474.277 362.498 474.568 362.597C474.859 362.697 475.123 362.858 475.362 363.082C475.601 363.303 475.791 363.597 475.933 363.962C476.074 364.327 476.145 364.777 476.145 365.312V365.685H471.73V364.924H475.25C475.25 364.601 475.186 364.312 475.057 364.059C474.93 363.805 474.748 363.605 474.512 363.459C474.278 363.312 474.002 363.239 473.684 363.239C473.334 363.239 473.03 363.326 472.774 363.5C472.521 363.671 472.326 363.895 472.189 364.171C472.052 364.447 471.984 364.743 471.984 365.058V365.565C471.984 365.998 472.058 366.364 472.207 366.665C472.36 366.964 472.57 367.191 472.838 367.348C473.107 367.502 473.418 367.579 473.773 367.579C474.005 367.579 474.214 367.546 474.4 367.482C474.589 367.415 474.752 367.315 474.889 367.184C475.025 367.049 475.131 366.883 475.206 366.684L476.056 366.923C475.966 367.211 475.816 367.465 475.604 367.683C475.393 367.9 475.132 368.068 474.821 368.19C474.511 368.31 474.161 368.369 473.773 368.369ZM477.484 368.25V362.523H478.334V363.418H478.408C478.528 363.112 478.72 362.874 478.987 362.705C479.252 362.534 479.572 362.448 479.944 362.448C480.322 362.448 480.637 362.534 480.888 362.705C481.141 362.874 481.339 363.112 481.481 363.418H481.54C481.687 363.122 481.907 362.887 482.2 362.713C482.494 362.536 482.845 362.448 483.256 362.448C483.768 362.448 484.186 362.608 484.513 362.929C484.838 363.247 485.001 363.743 485.001 364.417V368.25H484.121V364.417C484.121 363.994 484.005 363.692 483.774 363.511C483.543 363.329 483.271 363.239 482.957 363.239C482.555 363.239 482.243 363.36 482.022 363.604C481.801 363.845 481.69 364.151 481.69 364.521V368.25H480.795V364.327C480.795 364.002 480.689 363.74 480.478 363.541C480.267 363.339 479.995 363.239 479.662 363.239C479.433 363.239 479.219 363.3 479.02 363.421C478.824 363.543 478.664 363.712 478.543 363.928C478.423 364.142 478.363 364.39 478.363 364.67V368.25H477.484ZM486.61 368.25V362.523H487.489V368.25H486.61ZM487.057 361.568C486.886 361.568 486.738 361.51 486.613 361.393C486.492 361.276 486.43 361.136 486.43 360.972C486.43 360.808 486.492 360.667 486.613 360.55C486.738 360.433 486.886 360.375 487.057 360.375C487.228 360.375 487.375 360.433 487.497 360.55C487.621 360.667 487.684 360.808 487.684 360.972C487.684 361.136 487.621 361.276 487.497 361.393C487.375 361.51 487.228 361.568 487.057 361.568ZM491.592 362.523V363.268H488.624V362.523H491.592ZM489.489 361.151H490.369V366.609C490.369 366.858 490.405 367.044 490.477 367.169C490.552 367.29 490.646 367.372 490.761 367.415C490.878 367.455 491.001 367.474 491.13 367.474C491.227 367.474 491.306 367.469 491.368 367.459C491.431 367.447 491.48 367.437 491.518 367.43L491.697 368.22C491.637 368.243 491.554 368.265 491.447 368.287C491.34 368.312 491.204 368.325 491.041 368.325C490.792 368.325 490.548 368.271 490.309 368.164C490.073 368.057 489.877 367.894 489.721 367.676C489.566 367.457 489.489 367.181 489.489 366.848V361.151ZM495.256 368.369C494.704 368.369 494.228 368.248 493.828 368.004C493.43 367.758 493.123 367.415 492.907 366.975C492.693 366.532 492.586 366.018 492.586 365.431C492.586 364.844 492.693 364.327 492.907 363.88C493.123 363.43 493.423 363.08 493.809 362.828C494.197 362.575 494.649 362.448 495.166 362.448C495.464 362.448 495.759 362.498 496.05 362.597C496.341 362.697 496.606 362.858 496.844 363.082C497.083 363.303 497.273 363.597 497.415 363.962C497.556 364.327 497.627 364.777 497.627 365.312V365.685H493.213V364.924H496.732C496.732 364.601 496.668 364.312 496.538 364.059C496.411 363.805 496.23 363.605 495.994 363.459C495.76 363.312 495.484 363.239 495.166 363.239C494.815 363.239 494.512 363.326 494.257 363.5C494.003 363.671 493.807 363.895 493.671 364.171C493.534 364.447 493.466 364.743 493.466 365.058V365.565C493.466 365.998 493.54 366.364 493.69 366.665C493.841 366.964 494.051 367.191 494.32 367.348C494.588 367.502 494.9 367.579 495.256 367.579C495.487 367.579 495.696 367.546 495.882 367.482C496.071 367.415 496.234 367.315 496.371 367.184C496.507 367.049 496.613 366.883 496.687 366.684L497.538 366.923C497.448 367.211 497.298 367.465 497.086 367.683C496.875 367.9 496.614 368.068 496.303 368.19C495.993 368.31 495.643 368.369 495.256 368.369ZM501.367 368.369C500.815 368.369 500.339 368.248 499.939 368.004C499.541 367.758 499.234 367.415 499.018 366.975C498.804 366.532 498.697 366.018 498.697 365.431C498.697 364.844 498.804 364.327 499.018 363.88C499.234 363.43 499.535 363.08 499.92 362.828C500.308 362.575 500.761 362.448 501.277 362.448C501.576 362.448 501.871 362.498 502.161 362.597C502.452 362.697 502.717 362.858 502.955 363.082C503.194 363.303 503.384 363.597 503.526 363.962C503.668 364.327 503.738 364.777 503.738 365.312V365.685H499.324V364.924H502.843C502.843 364.601 502.779 364.312 502.65 364.059C502.523 363.805 502.342 363.605 502.105 363.459C501.871 363.312 501.595 363.239 501.277 363.239C500.927 363.239 500.623 363.326 500.368 363.5C500.114 363.671 499.919 363.895 499.783 364.171C499.645 364.447 499.577 364.743 499.577 365.058V365.565C499.577 365.998 499.652 366.364 499.801 366.665C499.953 366.964 500.163 367.191 500.431 367.348C500.7 367.502 501.011 367.579 501.367 367.579C501.598 367.579 501.807 367.546 501.994 367.482C502.183 367.415 502.345 367.315 502.482 367.184C502.618 367.049 502.724 366.883 502.799 366.684L503.649 366.923C503.56 367.211 503.409 367.465 503.197 367.683C502.987 367.9 502.726 368.068 502.414 368.19C502.104 368.31 501.754 368.369 501.367 368.369Z" fill="#F5F5F5"/>
</g>
<defs>
<filter id="filter0_f_721_29474" x="-115.916" y="-1.4886" width="743.771" height="640.673" filterUnits="userSpaceOnUse" color-interpolation-filters="sRGB">
<feFlood flood-opacity="0" result="BackgroundImageFix"/>
<feBlend mode="normal" in="SourceGraphic" in2="BackgroundImageFix" result="shape"/>
<feGaussianBlur stdDeviation="86.6667" result="effect1_foregroundBlur_721_29474"/>
</filter>
<filter id="filter1_d_721_29474" x="33.1066" y="71.606" width="453.787" height="46.5612" filterUnits="userSpaceOnUse" color-interpolation-filters="sRGB">
<feFlood flood-opacity="0" result="BackgroundImageFix"/>
<feColorMatrix in="SourceAlpha" type="matrix" values="0 0 0 0 0 0 0 0 0 0 0 0 0 0 0 0 0 0 127 0" result="hardAlpha"/>
<feOffset dy="4.16"/>
<feGaussianBlur stdDeviation="2.08"/>
<feComposite in2="hardAlpha" operator="out"/>
<feColorMatrix type="matrix" values="0 0 0 0 0 0 0 0 0 0 0 0 0 0 0 0 0 0 0.4 0"/>
<feBlend mode="normal" in2="BackgroundImageFix" result="effect1_dropShadow_721_29474"/>
<feBlend mode="normal" in="SourceGraphic" in2="effect1_dropShadow_721_29474" result="shape"/>
</filter>
<filter id="filter2_d_721_29474" x="33.1066" y="109.847" width="453.787" height="45.1672" filterUnits="userSpaceOnUse" color-interpolation-filters="sRGB">
<feFlood flood-opacity="0" result="BackgroundImageFix"/>
<feColorMatrix in="SourceAlpha" type="matrix" values="0 0 0 0 0 0 0 0 0 0 0 0 0 0 0 0 0 0 127 0" result="hardAlpha"/>
<feOffset dy="4.16"/>
<feGaussianBlur stdDeviation="2.08"/>
<feComposite in2="hardAlpha" operator="out"/>
<feColorMatrix type="matrix" values="0 0 0 0 0 0 0 0 0 0 0 0 0 0 0 0 0 0 0.4 0"/>
<feBlend mode="normal" in2="BackgroundImageFix" result="effect1_dropShadow_721_29474"/>
<feBlend mode="normal" in="SourceGraphic" in2="effect1_dropShadow_721_29474" result="shape"/>
</filter>
<radialGradient id="paint0_radial_721_29474" cx="0" cy="0" r="1" gradientUnits="userSpaceOnUse" gradientTransform="translate(504.833 -327.526) rotate(82.1784) scale(640.372 577.736)">
<stop stop-color="#44DFD7"/>
<stop offset="1" stop-color="#6A029D"/>
</radialGradient>
<clipPath id="clip0_721_29474">
<rect width="520" height="392" rx="12" fill="white"/>
</clipPath>
</defs>
</svg>
